Betamatic.ufo
<glyph name="exclam" format="1">
  <advance width="458"/>
  <unicode hex="0021"/>
  <outline>
    <contour>
      <point x="202.526" y="310.512" type="line"/>
      <point x="160" y="1553" type="line"/>
      <point x="338" y="1553" type="line"/>
      <point x="264.416" y="310.512" type="line"/>
    </contour>
    <contour>
      <point x="296" y="-42.6299" type="line"/>
      <point x="172" y="-42.6299" type="line"/>
      <point x="172" y="64" type="line"/>
      <point x="296" y="64" type="line"/>
    </contour>
  </outline>
</glyph>
<glyph name="quotedbl" format="1">
  <advance width="647"/>
  <unicode hex="0022"/>
  <outline>
    <contour>
      <point x="144" y="1575" type="line"/>
      <point x="197" y="1578" type="line"/>
      <point x="262.806" y="1567.88" type="line"/>
      <point x="232.352" y="1185" type="line"/>
      <point x="165" y="1193" type="line"/>
    </contour>
    <contour>
      <point x="386" y="1575" type="line"/>
      <point x="465" y="1578" type="line"/>
      <point x="509" y="1575" type="line"/>
      <point x="497.676" y="1203" type="line"/>
      <point x="433" y="1193" type="line"/>
    </contour>
  </outline>
</glyph>
<glyph name="numbersign" format="1">
  <advance width="1196"/>
  <unicode hex="0023"/>
  <outline>
    <contour>
      <point x="404" y="686" type="line"/>
      <point x="782" y="686" type="line"/>
      <point x="829" y="952" type="line"/>
      <point x="446" y="952" type="line"/>
    </contour>
    <contour>
      <point x="132" y="1047" type="line"/>
      <point x="349" y="1047" type="line"/>
      <point x="412" y="1493.19" type="line"/>
      <point x="472" y="1567" type="line"/>
      <point x="551" y="1520" type="line"/>
      <point x="474" y="1058" type="line"/>
      <point x="839" y="1058" type="line"/>
      <point x="1010" y="1566" type="line"/>
      <point x="1072" y="1528" type="line"/>
      <point x="977" y="1056" type="line"/>
      <point x="1123" y="1056" type="line"/>
      <point x="1123" y="959" type="line"/>
      <point x="962" y="959" type="line"/>
      <point x="935.585" y="709.875" type="line"/>
      <point x="1077" y="709.875" type="line"/>
      <point x="1077" y="584" type="line"/>
      <point x="909" y="584" type="line"/>
      <point x="719" y="-92" type="line"/>
      <point x="629" y="-47" type="line"/>
      <point x="768" y="581" type="line"/>
      <point x="395" y="581" type="line"/>
      <point x="331" y="-44" type="line"/>
      <point x="175" y="-44" type="line"/>
      <point x="268" y="576" type="line"/>
      <point x="87" y="576" type="line"/>
      <point x="87" y="683" type="line"/>
      <point x="284" y="683" type="line"/>
      <point x="325" y="948" type="line"/>
      <point x="258" y="948" type="line"/>
      <point x="132" y="1004" type="line"/>
    </contour>
  </outline>
</glyph>
<glyph name="dollar" format="1">
  <advance width="754"/>
  <unicode hex="0024"/>
  <outline>
    <contour>
      <point x="166" y="323" type="curve"/>
      <point x="164" y="322" type="line"/>
      <point x="226" y="322"/>
      <point x="213" y="241"/>
      <point x="294" y="241" type="curve" smooth="yes"/>
      <point x="313" y="241"/>
      <point x="332" y="245"/>
      <point x="351" y="246" type="curve"/>
      <point x="350" y="359"/>
      <point x="313" y="808"/>
      <point x="313" y="808" type="curve"/>
      <point x="209" y="978"/>
      <point x="91" y="1085"/>
      <point x="91" y="1284" type="curve" smooth="yes"/>
      <point x="91" y="1354"/>
      <point x="122" y="1488"/>
      <point x="238" y="1516" type="curve"/>
      <point x="235" y="1532"/>
      <point x="230" y="1557"/>
      <point x="230" y="1582" type="curve" smooth="yes"/>
      <point x="230" y="1611"/>
      <point x="237" y="1639"/>
      <point x="269" y="1639" type="curve" smooth="yes"/>
      <point x="319" y="1639"/>
      <point x="317" y="1619"/>
      <point x="317" y="1575" type="curve" smooth="yes"/>
      <point x="317" y="1551"/>
      <point x="320" y="1527"/>
      <point x="328" y="1527" type="curve" smooth="yes"/>
      <point x="397" y="1527"/>
      <point x="579" y="1450"/>
      <point x="579" y="1397" type="curve" smooth="yes"/>
      <point x="579" y="1362"/>
      <point x="564" y="1349"/>
      <point x="532" y="1349" type="curve" smooth="yes"/>
      <point x="446" y="1349"/>
      <point x="352" y="1425"/>
      <point x="325" y="1437" type="curve"/>
      <point x="325" y="1388"/>
      <point x="330" y="1340"/>
      <point x="330" y="1291" type="curve" smooth="yes"/>
      <point x="330" y="1196"/>
      <point x="346" y="1102"/>
      <point x="359" y="1008" type="curve"/>
      <point x="377" y="1012"/>
      <point x="689" y="539"/>
      <point x="689" y="419" type="curve" smooth="yes"/>
      <point x="689" y="278"/>
      <point x="564" y="203"/>
      <point x="446" y="178" type="curve"/>
      <point x="447" y="154"/>
      <point x="454" y="108"/>
      <point x="454" y="63" type="curve" smooth="yes"/>
      <point x="454" y="22"/>
      <point x="445" y="-17"/>
      <point x="407" y="-17" type="curve" smooth="yes"/>
      <point x="365" y="-17"/>
      <point x="355" y="18"/>
      <point x="355" y="44" type="curve" smooth="yes"/>
      <point x="355" y="162" type="line"/>
      <point x="218" y="162"/>
      <point x="112" y="181"/>
      <point x="112" y="280" type="curve" smooth="yes"/>
      <point x="112" y="303"/>
      <point x="137" y="323"/>
    </contour>
    <contour>
      <point x="560" y="386" type="curve"/>
      <point x="562" y="384" type="line"/>
      <point x="562" y="517"/>
      <point x="443" y="652"/>
      <point x="402" y="734" type="curve"/>
      <point x="410" y="579"/>
      <point x="429" y="424"/>
      <point x="433" y="269" type="curve"/>
      <point x="498" y="299"/>
      <point x="560" y="342"/>
    </contour>
    <contour>
      <point x="282" y="1084" type="curve"/>
      <point x="282" y="1085" type="line"/>
      <point x="263" y="1193"/>
      <point x="257" y="1307"/>
      <point x="251" y="1419" type="curve"/>
      <point x="199" y="1382"/>
      <point x="195" y="1330"/>
      <point x="195" y="1287" type="curve" smooth="yes"/>
      <point x="195" y="1218"/>
      <point x="231" y="1149"/>
    </contour>
  </outline>
</glyph>
<glyph name="percent" format="1">
  <advance width="1636"/>
  <unicode hex="0025"/>
  <outline>
    <contour>
      <point x="354" y="701" type="curve" smooth="yes"/>
      <point x="101" y="701"/>
      <point x="99" y="1026"/>
      <point x="99" y="1164" type="curve" smooth="yes"/>
      <point x="99" y="1256"/>
      <point x="142" y="1554"/>
      <point x="319" y="1554" type="curve" smooth="yes"/>
      <point x="585" y="1554"/>
      <point x="616" y="1301"/>
      <point x="616" y="1148" type="curve" smooth="yes"/>
      <point x="616" y="1111"/>
      <point x="620" y="1064"/>
      <point x="620" y="1014" type="curve" smooth="yes"/>
      <point x="620" y="869"/>
      <point x="590" y="701"/>
    </contour>
    <contour>
      <point x="1159" y="3" type="curve" smooth="yes"/>
      <point x="933" y="3"/>
      <point x="889" y="271"/>
      <point x="889" y="371" type="curve" smooth="yes"/>
      <point x="889" y="410" type="line" smooth="yes"/>
      <point x="889" y="561"/>
      <point x="900" y="839"/>
      <point x="1200" y="839" type="curve" smooth="yes"/>
      <point x="1534" y="839"/>
      <point x="1546" y="604"/>
      <point x="1546" y="430" type="curve" smooth="yes"/>
      <point x="1546" y="379" type="line" smooth="yes"/>
      <point x="1546" y="230"/>
      <point x="1499" y="3"/>
    </contour>
    <contour>
      <point x="1097" y="1488" type="line"/>
      <point x="518" y="11" type="line"/>
      <point x="410" y="66" type="line"/>
      <point x="973" y="1537" type="line"/>
    </contour>
    <contour>
      <point x="332" y="1450" type="curve" smooth="yes"/>
      <point x="282" y="1450"/>
      <point x="232" y="1211"/>
      <point x="232" y="1166" type="curve" smooth="yes"/>
      <point x="232" y="1103"/>
      <point x="241" y="801"/>
      <point x="353" y="801" type="curve" smooth="yes"/>
      <point x="493" y="801"/>
      <point x="498" y="1018"/>
      <point x="498" y="1093" type="curve" smooth="yes"/>
      <point x="498" y="1180"/>
      <point x="498" y="1450"/>
    </contour>
    <contour>
      <point x="1018" y="389" type="curve" smooth="yes"/>
      <point x="1018" y="366" type="line" smooth="yes"/>
      <point x="1018" y="329"/>
      <point x="1088" y="116"/>
      <point x="1168" y="116" type="curve" smooth="yes"/>
      <point x="1407" y="116"/>
      <point x="1416" y="303"/>
      <point x="1416" y="386" type="curve" smooth="yes"/>
      <point x="1416" y="434" type="line" smooth="yes"/>
      <point x="1416" y="547"/>
      <point x="1400" y="733"/>
      <point x="1187" y="733" type="curve"/>
      <point x="1187" y="734" type="line"/>
      <point x="1025" y="734"/>
      <point x="1018" y="482"/>
    </contour>
  </outline>
</glyph>
<glyph name="ampersand" format="1">
  <advance width="1626"/>
  <unicode hex="0026"/>
  <outline>
    <contour>
      <point x="942" y="1496" type="curve" smooth="yes"/>
      <point x="942" y="1481"/>
      <point x="942" y="1462"/>
      <point x="953" y="1451" type="curve"/>
      <point x="870" y="1366"/>
      <point x="625" y="1164"/>
      <point x="625" y="1085" type="curve" smooth="yes"/>
      <point x="625" y="962"/>
      <point x="908" y="505"/>
      <point x="1077" y="417" type="curve"/>
      <point x="1182" y="531"/>
      <point x="1213" y="656"/>
      <point x="1213" y="779" type="curve" smooth="yes"/>
      <point x="1213" y="788" type="line"/>
      <point x="1165" y="788"/>
      <point x="1121" y="803"/>
      <point x="1102" y="823" type="curve"/>
      <point x="1102" y="875" type="line"/>
      <point x="1217" y="875"/>
      <point x="1405" y="884"/>
      <point x="1471" y="901" type="curve"/>
      <point x="1507" y="895"/>
      <point x="1546" y="880"/>
      <point x="1546" y="847" type="curve" smooth="yes"/>
      <point x="1546" y="797"/>
      <point x="1446" y="791"/>
      <point x="1399" y="791" type="curve" smooth="yes"/>
      <point x="1333" y="791" type="line"/>
      <point x="1333" y="745"/>
      <point x="1330" y="699"/>
      <point x="1327" y="653" type="curve"/>
      <point x="1329" y="653"/>
      <point x="1330" y="650"/>
      <point x="1330" y="644" type="curve" smooth="yes"/>
      <point x="1330" y="601"/>
      <point x="1268" y="426"/>
      <point x="1223" y="355" type="curve"/>
      <point x="1267" y="320"/>
      <point x="1327" y="292"/>
      <point x="1392" y="292" type="curve" smooth="yes"/>
      <point x="1428" y="292"/>
      <point x="1463" y="298"/>
      <point x="1499" y="298" type="curve"/>
      <point x="1549" y="267" type="line"/>
      <point x="1549" y="206"/>
      <point x="1477" y="199"/>
      <point x="1414" y="199" type="curve" smooth="yes"/>
      <point x="1317" y="199"/>
      <point x="1232" y="233"/>
      <point x="1120" y="276" type="curve"/>
      <point x="968" y="227"/>
      <point x="821" y="198"/>
      <point x="634" y="198" type="curve" smooth="yes"/>
      <point x="284" y="198"/>
      <point x="111" y="382"/>
      <point x="111" y="534" type="curve" smooth="yes"/>
      <point x="111" y="780"/>
      <point x="206" y="913"/>
      <point x="420" y="1125" type="curve"/>
      <point x="418" y="1219"/>
      <point x="389" y="1312"/>
      <point x="389" y="1406" type="curve" smooth="yes"/>
      <point x="389" y="1576" type="line" smooth="yes"/>
      <point x="389" y="1632"/>
      <point x="427" y="1728"/>
      <point x="579" y="1728" type="curve" smooth="yes"/>
      <point x="725" y="1728"/>
      <point x="955" y="1682"/>
      <point x="955" y="1600" type="curve" smooth="yes"/>
      <point x="955" y="1565"/>
      <point x="942" y="1530"/>
    </contour>
    <contour>
      <point x="586" y="1471" type="line"/>
      <point x="587" y="1471" type="line"/>
      <point x="587" y="1409"/>
      <point x="591" y="1348"/>
      <point x="591" y="1286" type="curve" smooth="yes"/>
      <point x="591" y="1263" type="line"/>
      <point x="657" y="1328"/>
      <point x="760" y="1461"/>
      <point x="760" y="1531" type="curve" smooth="yes"/>
      <point x="760" y="1566"/>
      <point x="753" y="1628"/>
      <point x="654" y="1630" type="curve"/>
      <point x="622" y="1617"/>
      <point x="604" y="1598"/>
      <point x="586" y="1580" type="curve"/>
    </contour>
    <contour>
      <point x="466" y="967" type="curve"/>
      <point x="309" y="849"/>
      <point x="236" y="708"/>
      <point x="236" y="569" type="curve" smooth="yes"/>
      <point x="236" y="442"/>
      <point x="353" y="282"/>
      <point x="674" y="282" type="curve" smooth="yes"/>
      <point x="760" y="282"/>
      <point x="929" y="307"/>
      <point x="990" y="337" type="curve"/>
      <point x="708" y="522"/>
      <point x="550" y="727"/>
    </contour>
  </outline>
</glyph>
<glyph name="quotesingle" format="1">
  <advance width="425"/>
  <unicode hex="0027"/>
  <outline>
    <contour>
      <point x="140" y="1531" type="curve" smooth="yes"/>
      <point x="140" y="1559"/>
      <point x="183" y="1578"/>
      <point x="219" y="1578" type="curve" smooth="yes"/>
      <point x="258" y="1578"/>
      <point x="278" y="1556"/>
      <point x="290" y="1531" type="curve"/>
      <point x="290" y="1525" type="line" smooth="yes"/>
      <point x="290" y="1521"/>
      <point x="284" y="1514"/>
      <point x="284" y="1511" type="curve" smooth="yes"/>
      <point x="284" y="1407"/>
      <point x="239" y="1193"/>
      <point x="187" y="1193" type="curve" smooth="yes"/>
      <point x="170" y="1193"/>
      <point x="140" y="1435"/>
    </contour>
  </outline>
</glyph>
<glyph name="parenleft" format="1">
  <advance width="612"/>
  <unicode hex="0028"/>
  <outline>
    <contour>
      <point x="458" y="1651" type="line"/>
      <point x="454" y="1421"/>
      <point x="246" y="1156"/>
      <point x="245" y="880" type="curve" smooth="yes"/>
      <point x="245" y="454"/>
      <point x="451" y="13"/>
      <point x="559" y="-318" type="curve"/>
      <point x="548" y="-340"/>
      <point x="518" y="-361"/>
      <point x="484" y="-361" type="curve" smooth="yes"/>
      <point x="234" y="-361"/>
      <point x="112" y="701"/>
      <point x="112" y="881" type="curve" smooth="yes"/>
      <point x="112" y="1001"/>
      <point x="215" y="1651"/>
      <point x="399" y="1651" type="curve" smooth="yes"/>
    </contour>
  </outline>
</glyph>
<glyph name="parenright" format="1">
  <advance width="634"/>
  <unicode hex="0029"/>
  <outline>
    <contour>
      <point x="174" y="-71" type="curve" smooth="yes"/>
      <point x="308" y="158"/>
      <point x="400" y="563"/>
      <point x="400" y="815" type="curve" smooth="yes"/>
      <point x="400" y="1087"/>
      <point x="186" y="1407"/>
      <point x="186" y="1610" type="curve" smooth="yes"/>
      <point x="186" y="1621" type="line"/>
      <point x="234" y="1621" type="line" smooth="yes"/>
      <point x="449" y="1621"/>
      <point x="494" y="942"/>
      <point x="532" y="817" type="curve"/>
      <point x="533" y="815" type="line"/>
      <point x="533" y="651"/>
      <point x="353" y="-303"/>
      <point x="132" y="-303" type="curve" smooth="yes"/>
      <point x="97" y="-303"/>
      <point x="62" y="-284"/>
      <point x="62" y="-255" type="curve" smooth="yes"/>
      <point x="62" y="-217"/>
      <point x="150" y="-112"/>
    </contour>
  </outline>
</glyph>
<glyph name="asterisk" format="1">
  <advance width="1417"/>
  <unicode hex="002A"/>
  <outline>
    <contour>
      <point x="147" y="1198" type="line"/>
      <point x="499" y="1198" type="line"/>
      <point x="286" y="1501" type="line"/>
      <point x="359" y="1547" type="line"/>
      <point x="649" y="1258" type="line"/>
      <point x="972" y="1567" type="line"/>
      <point x="1062" y="1512" type="line"/>
      <point x="833" y="1194" type="line"/>
      <point x="1196" y="1194" type="line"/>
      <point x="1241" y="1137" type="line"/>
      <point x="1241" y="1085" type="line"/>
      <point x="818" y="1085" type="line"/>
      <point x="1089" y="752" type="line"/>
      <point x="989" y="691" type="line"/>
      <point x="681" y="1011" type="line"/>
      <point x="399" y="697" type="line"/>
      <point x="335" y="697" type="line"/>
      <point x="275.169" y="738.007" type="line"/>
      <point x="529" y="1096" type="line"/>
      <point x="168" y="1096" type="line"/>
      <point x="147" y="1150" type="line"/>
    </contour>
  </outline>
</glyph>
<glyph name="plus" format="1">
  <advance width="971"/>
  <unicode hex="002B"/>
  <outline>
    <contour>
      <point x="396" y="599" type="line"/>
      <point x="151" y="599" type="line"/>
      <point x="178" y="708" type="line"/>
      <point x="396" y="708" type="line"/>
      <point x="396" y="915" type="line"/>
      <point x="466" y="968" type="line"/>
      <point x="544" y="968" type="line"/>
      <point x="544" y="701" type="line"/>
      <point x="782" y="701" type="line"/>
      <point x="782" y="591" type="line"/>
      <point x="544" y="591" type="line"/>
      <point x="569" y="389" type="line"/>
      <point x="482" y="333" type="line"/>
      <point x="396" y="385" type="line"/>
    </contour>
  </outline>
</glyph>
<glyph name="hyphen" format="1">
  <advance width="856"/>
  <unicode hex="002D"/>
  <outline>
    <contour>
      <point x="632" y="709" type="line"/>
      <point x="153" y="671" type="line"/>
      <point x="153" y="760" type="line"/>
      <point x="632" y="798" type="line"/>
    </contour>
  </outline>
</glyph>
<glyph name="period" format="1">
  <advance width="492"/>
  <unicode hex="002E"/>
  <outline>
    <contour>
      <point x="148" y="37" type="curve" smooth="yes"/>
      <point x="148" y="78"/>
      <point x="195" y="116"/>
      <point x="248" y="116" type="curve" smooth="yes"/>
      <point x="299" y="116"/>
      <point x="343" y="77"/>
      <point x="343" y="39" type="curve" smooth="yes"/>
      <point x="343" y="-8"/>
      <point x="296" y="-36"/>
      <point x="238" y="-36" type="curve" smooth="yes"/>
      <point x="188" y="-36"/>
      <point x="148" y="0"/>
    </contour>
  </outline>
</glyph>
<glyph name="slash" format="1">
  <advance width="744"/>
  <unicode hex="002F"/>
  <outline>
    <contour>
      <point x="40" y="10" type="line"/>
      <point x="542" y="1533" type="line"/>
      <point x="663" y="1503" type="line"/>
      <point x="150" y="-31" type="line"/>
    </contour>
  </outline>
</glyph>
<glyph name="zero" format="1">
  <advance width="960"/>
  <unicode hex="0030"/>
  <outline>
    <contour>
      <point x="388" y="1563" type="curve" smooth="yes"/>
      <point x="859" y="1563"/>
      <point x="861" y="805"/>
      <point x="861" y="521" type="curve" smooth="yes"/>
      <point x="861" y="373"/>
      <point x="851" y="7"/>
      <point x="518" y="7" type="curve" smooth="yes"/>
      <point x="160" y="7"/>
      <point x="137" y="648"/>
      <point x="137" y="804" type="curve" smooth="yes"/>
      <point x="137" y="1233" type="line" smooth="yes"/>
      <point x="137" y="1413"/>
      <point x="154" y="1563"/>
    </contour>
    <contour>
      <point x="739" y="568" type="curve"/>
      <point x="739" y="767"/>
      <point x="679" y="1458"/>
      <point x="388" y="1458" type="curve" smooth="yes"/>
      <point x="313" y="1458"/>
      <point x="250" y="1410"/>
      <point x="250" y="1338" type="curve" smooth="yes"/>
      <point x="250" y="1222"/>
      <point x="268" y="1106"/>
      <point x="268" y="990" type="curve" smooth="yes"/>
      <point x="268" y="923"/>
      <point x="306" y="857"/>
      <point x="306" y="790" type="curve" smooth="yes"/>
      <point x="306" y="685"/>
      <point x="322" y="100"/>
      <point x="553" y="100" type="curve" smooth="yes"/>
      <point x="706" y="100"/>
      <point x="739" y="497"/>
    </contour>
  </outline>
</glyph>
<glyph name="one" format="1">
  <advance width="789"/>
  <unicode hex="0031"/>
  <outline>
    <contour>
      <point x="230" y="91" type="line"/>
      <point x="383" y="91" type="line"/>
      <point x="290.517" y="1478.57" type="line"/>
      <point x="82" y="1479" type="line"/>
      <point x="82" y="1571" type="line"/>
      <point x="292" y="1571" type="line"/>
      <point x="399.337" y="1537.58" type="line"/>
      <point x="453" y="1079" type="line"/>
      <point x="511.775" y="96.0463" type="line"/>
      <point x="611.64" y="96.0463" type="line"/>
      <point x="611.64" y="-18" type="line"/>
      <point x="230" y="-18" type="line"/>
    </contour>
  </outline>
</glyph>
<glyph name="two" format="1">
  <advance width="761"/>
  <unicode hex="0032"/>
  <outline>
    <contour>
      <point x="525" y="1236" type="curve" smooth="yes"/>
      <point x="525" y="1305"/>
      <point x="520" y="1492"/>
      <point x="398" y="1500" type="curve"/>
      <point x="348.531" y="1479.67"/>
      <point x="325.199" y="1447.45"/>
      <point x="322.316" y="1363" type="curve"/>
      <point x="260" y="1363" type="line"/>
      <point x="195" y="1390" type="line"/>
      <point x="195" y="1465"/>
      <point x="247" y="1586"/>
      <point x="367" y="1586" type="curve"/>
      <point x="367" y="1587" type="line"/>
      <point x="651" y="1587"/>
      <point x="653" y="1357"/>
      <point x="653" y="1201" type="curve" smooth="yes"/>
      <point x="653" y="774"/>
      <point x="384" y="408"/>
      <point x="246" y="86" type="curve"/>
      <point x="611" y="107" type="line"/>
      <point x="611" y="4" type="line"/>
      <point x="126" y="4" type="line"/>
      <point x="78" y="47" type="line"/>
      <point x="78" y="47"/>
      <point x="525" y="864"/>
    </contour>
  </outline>
</glyph>
<glyph name="three" format="1">
  <advance width="787"/>
  <unicode hex="0033"/>
  <outline>
    <contour>
      <point x="351.9" y="55.3058" type="curve" smooth="yes"/>
      <point x="482.978" y="55.3058"/>
      <point x="525.197" y="154.649"/>
      <point x="525.197" y="286.343" type="curve" smooth="yes"/>
      <point x="525.197" y="471.793"/>
      <point x="441.477" y="721.394"/>
      <point x="404.27" y="848.079" type="curve"/>
      <point x="309" y="848.079" type="line"/>
      <point x="309" y="889" type="line"/>
      <point x="357.694" y="970.469"/>
      <point x="407.935" y="1129.14"/>
      <point x="407.935" y="1262.31" type="curve" smooth="yes"/>
      <point x="407.935" y="1384.47"/>
      <point x="365.664" y="1485.17"/>
      <point x="241.156" y="1485.17" type="curve" smooth="yes"/>
      <point x="200.388" y="1485.17"/>
      <point x="150.804" y="1474.38"/>
      <point x="91" y="1450" type="curve"/>
      <point x="91" y="1506" type="line"/>
      <point x="147.128" y="1539.81"/>
      <point x="198.488" y="1554.59"/>
      <point x="244.69" y="1554.59" type="curve" smooth="yes"/>
      <point x="424.882" y="1554.59"/>
      <point x="526.597" y="1329.76"/>
      <point x="526.597" y="1132.16" type="curve" smooth="yes"/>
      <point x="526.597" y="1054.45"/>
      <point x="510.869" y="980.959"/>
      <point x="478" y="927" type="curve"/>
      <point x="534.075" y="784.675"/>
      <point x="618.608" y="517.062"/>
      <point x="618.608" y="301.26" type="curve" smooth="yes"/>
      <point x="618.608" y="117.951"/>
      <point x="557.614" y="-27.9761"/>
      <point x="366.374" y="-27.9761" type="curve" smooth="yes"/>
      <point x="319.436" y="-27.9761"/>
      <point x="264.653" y="-19.1856"/>
      <point x="201" y="0" type="curve"/>
      <point x="221.911" y="79.4721" type="line"/>
      <point x="272.68" y="62.8902"/>
      <point x="315.682" y="55.3058"/>
    </contour>
  </outline>
</glyph>
<glyph name="four" format="1">
  <advance width="796"/>
  <unicode hex="0034"/>
  <outline>
    <contour>
      <point x="451.46" y="576.018" type="line"/>
      <point x="429" y="1161" type="line"/>
      <point x="493" y="1207" type="line"/>
      <point x="541.169" y="1170.53" type="line"/>
      <point x="581" y="596" type="line"/>
      <point x="658" y="596" type="line"/>
      <point x="737" y="557" type="line"/>
      <point x="650" y="507" type="line"/>
      <point x="588" y="507" type="line"/>
      <point x="623.846" y="39.6785" type="line"/>
      <point x="559" y="-38" type="line"/>
      <point x="480" y="63.2085" type="line"/>
      <point x="480" y="491" type="line"/>
      <point x="230" y="491" type="line"/>
      <point x="106.604" y="513.76" type="line"/>
      <point x="165" y="1124" type="line"/>
      <point x="165" y="1503" type="line"/>
      <point x="216" y="1543" type="line"/>
      <point x="332.542" y="1490.84" type="line"/>
      <point x="254.082" y="576.336" type="line"/>
    </contour>
  </outline>
</glyph>
<glyph name="five" format="1">
  <advance width="760"/>
  <unicode hex="0035"/>
  <outline>
    <contour>
      <point x="669" y="434" type="curve" smooth="yes"/>
      <point x="669" y="106.479"/>
      <point x="572.558" y="-36"/>
      <point x="123" y="-36" type="curve"/>
      <point x="123" y="77" type="line"/>
      <point x="179.399" y="71.5615"/>
      <point x="230.841" y="67.7507"/>
      <point x="276.855" y="67.7507" type="curve" smooth="yes"/>
      <point x="445.285" y="67.7507"/>
      <point x="541" y="118.81"/>
      <point x="541" y="328" type="curve" smooth="yes"/>
      <point x="541" y="415"/>
      <point x="511" y="914"/>
      <point x="377" y="914" type="curve" smooth="yes"/>
      <point x="325" y="914" type="line"/>
      <point x="325" y="907" type="line"/>
      <point x="238" y="907" type="line"/>
      <point x="153.219" y="1009.46" type="line"/>
      <point x="90" y="1540" type="line"/>
      <point x="136" y="1574" type="line"/>
      <point x="473" y="1574" type="line"/>
      <point x="494" y="1477" type="line"/>
      <point x="234" y="1477" type="line"/>
      <point x="286" y="1002" type="line"/>
      <point x="641" y="971"/>
      <point x="669" y="687"/>
    </contour>
  </outline>
</glyph>
<glyph name="six" format="1">
  <advance width="856"/>
  <unicode hex="0036"/>
  <outline>
    <contour>
      <point x="257" y="769" type="curve" smooth="yes"/>
      <point x="257" y="635"/>
      <point x="270" y="72"/>
      <point x="532" y="72" type="curve" smooth="yes"/>
      <point x="642" y="72"/>
      <point x="645" y="176"/>
      <point x="645" y="211" type="curve" smooth="yes"/>
      <point x="645" y="319"/>
      <point x="601" y="859"/>
      <point x="352" y="881" type="curve"/>
      <point x="264" y="852"/>
      <point x="257" y="813"/>
    </contour>
    <contour>
      <point x="497" y="-14" type="curve"/>
      <point x="497" y="-15" type="line"/>
      <point x="149" y="-15"/>
      <point x="126" y="418"/>
      <point x="126" y="709" type="curve" smooth="yes"/>
      <point x="126" y="778"/>
      <point x="127" y="837"/>
      <point x="127" y="884" type="curve" smooth="yes"/>
      <point x="127" y="1040"/>
      <point x="129" y="1586"/>
      <point x="510" y="1586" type="curve"/>
      <point x="510" y="1495" type="line"/>
      <point x="309.207" y="1495"/>
      <point x="270.161" y="1066.81"/>
      <point x="259" y="949" type="curve"/>
      <point x="283" y="951"/>
      <point x="305" y="952"/>
      <point x="328" y="952" type="curve" smooth="yes"/>
      <point x="755" y="952"/>
      <point x="768" y="396"/>
      <point x="768" y="236" type="curve" smooth="yes"/>
      <point x="768" y="114"/>
      <point x="754" y="-14"/>
    </contour>
  </outline>
</glyph>
<glyph name="seven" format="1">
  <advance width="612"/>
  <unicode hex="0037"/>
  <outline>
    <contour>
      <point x="515.102" y="1590" type="line"/>
      <point x="571" y="1524" type="line"/>
      <point x="240.789" y="-10.0625" type="line"/>
      <point x="162" y="-10.0625" type="line"/>
      <point x="99" y="24" type="line"/>
      <point x="436" y="1499" type="line"/>
      <point x="114" y="1499" type="line"/>
      <point x="114" y="1590" type="line"/>
    </contour>
  </outline>
</glyph>
<glyph name="eight" format="1">
  <advance width="835"/>
  <unicode hex="0038"/>
  <outline>
    <contour>
      <point x="300" y="1515" type="line"/>
      <point x="259" y="1487"/>
      <point x="228" y="1449"/>
      <point x="228" y="1413" type="curve" smooth="yes"/>
      <point x="228" y="1308"/>
      <point x="294" y="1072"/>
      <point x="362" y="969" type="curve"/>
      <point x="417" y="1080"/>
      <point x="452" y="1196"/>
      <point x="452" y="1312" type="curve" smooth="yes"/>
      <point x="452" y="1342"/>
      <point x="419" y="1518"/>
      <point x="345" y="1518" type="curve"/>
    </contour>
    <contour>
      <point x="281" y="190" type="curve" smooth="yes"/>
      <point x="281" y="188" type="line" smooth="yes"/>
      <point x="281" y="148"/>
      <point x="345" y="6"/>
      <point x="424" y="6" type="curve" smooth="yes"/>
      <point x="589" y="6"/>
      <point x="635" y="74"/>
      <point x="635" y="140" type="curve" smooth="yes"/>
      <point x="635" y="359"/>
      <point x="517" y="574"/>
      <point x="389" y="783" type="curve"/>
      <point x="306" y="628"/>
      <point x="281" y="354"/>
    </contour>
    <contour>
      <point x="158" y="198" type="curve"/>
      <point x="157" y="198" type="line"/>
      <point x="157" y="430"/>
      <point x="222" y="660"/>
      <point x="281" y="863" type="curve"/>
      <point x="281" y="863"/>
      <point x="98" y="1225"/>
      <point x="98" y="1421" type="curve" smooth="yes"/>
      <point x="98" y="1510"/>
      <point x="149" y="1607"/>
      <point x="284" y="1607" type="curve" smooth="yes"/>
      <point x="374" y="1607" type="line"/>
      <point x="636" y="1530"/>
      <point x="640" y="1466"/>
      <point x="640" y="1313" type="curve" smooth="yes"/>
      <point x="640" y="1160"/>
      <point x="565" y="1010"/>
      <point x="492" y="862" type="curve"/>
      <point x="665" y="651"/>
      <point x="757" y="349"/>
      <point x="757" y="119" type="curve" smooth="yes"/>
      <point x="757" y="103"/>
      <point x="755" y="87"/>
      <point x="749" y="72" type="curve"/>
      <point x="749" y="60" type="line"/>
      <point x="701" y="-24"/>
      <point x="622" y="-82"/>
      <point x="420" y="-82" type="curve" smooth="yes"/>
      <point x="199" y="-82"/>
      <point x="158" y="98"/>
    </contour>
  </outline>
</glyph>
<glyph name="nine" format="1">
  <advance width="700"/>
  <unicode hex="0039"/>
  <outline>
    <contour>
      <point x="218" y="1247" type="curve" smooth="yes"/>
      <point x="218" y="1228"/>
      <point x="223" y="1178"/>
      <point x="239" y="1162" type="curve"/>
      <point x="256" y="1047"/>
      <point x="318" y="1057"/>
      <point x="430" y="1009" type="curve"/>
      <point x="440" y="1148"/>
      <point x="442" y="1288"/>
      <point x="442" y="1427" type="curve" smooth="yes"/>
      <point x="442" y="1480"/>
      <point x="430" y="1527"/>
      <point x="347" y="1527" type="curve" smooth="yes"/>
      <point x="241" y="1527"/>
      <point x="218" y="1306"/>
    </contour>
    <contour>
      <point x="537" y="237" type="curve" smooth="yes"/>
      <point x="537" y="188"/>
      <point x="520" y="139"/>
      <point x="520" y="90" type="curve" smooth="yes"/>
      <point x="520" y="78"/>
      <point x="521" y="64"/>
      <point x="521" y="49" type="curve" smooth="yes"/>
      <point x="521" y="9"/>
      <point x="512" y="-34"/>
      <point x="447" y="-34" type="curve"/>
      <point x="391" y="4" type="line"/>
      <point x="430" y="94"/>
      <point x="433" y="502"/>
      <point x="433" y="686" type="curve" smooth="yes"/>
      <point x="433" y="772"/>
      <point x="429" y="848"/>
      <point x="427" y="931" type="curve"/>
      <point x="234" y="965"/>
      <point x="88" y="1087"/>
      <point x="88" y="1243" type="curve" smooth="yes"/>
      <point x="88" y="1370"/>
      <point x="123" y="1614"/>
      <point x="345" y="1614" type="curve" smooth="yes"/>
      <point x="529" y="1614"/>
      <point x="569" y="1547"/>
      <point x="569" y="1420" type="curve" smooth="yes"/>
      <point x="569" y="1026"/>
      <point x="537" y="631"/>
    </contour>
  </outline>
</glyph>
<glyph name="colon" format="1">
  <advance width="472"/>
  <unicode hex="003A"/>
  <outline>
    <contour>
      <point x="160" y="1024" type="curve" smooth="yes"/>
      <point x="160" y="1064"/>
      <point x="206" y="1103"/>
      <point x="259" y="1103" type="curve" smooth="yes"/>
      <point x="310" y="1103"/>
      <point x="354" y="1064"/>
      <point x="354" y="1026" type="curve" smooth="yes"/>
      <point x="354" y="979"/>
      <point x="307" y="951"/>
      <point x="249" y="951" type="curve" smooth="yes"/>
      <point x="199" y="951"/>
      <point x="160" y="987"/>
    </contour>
    <contour>
      <point x="133" y="250" type="curve" smooth="yes"/>
      <point x="133" y="291"/>
      <point x="180" y="329"/>
      <point x="233" y="329" type="curve" smooth="yes"/>
      <point x="284" y="329"/>
      <point x="327" y="290"/>
      <point x="327" y="252" type="curve" smooth="yes"/>
      <point x="327" y="206"/>
      <point x="281" y="177"/>
      <point x="223" y="177" type="curve" smooth="yes"/>
      <point x="173" y="177"/>
      <point x="133" y="213"/>
    </contour>
  </outline>
</glyph>
<glyph name="semicolon" format="1">
  <advance width="543"/>
  <unicode hex="003B"/>
  <outline>
    <contour>
      <point x="172" y="-11" type="curve" smooth="yes"/>
      <point x="151" y="-11"/>
      <point x="117" y="10"/>
      <point x="117" y="27" type="curve" smooth="yes"/>
      <point x="117" y="51" type="line"/>
      <point x="161" y="83"/>
      <point x="246" y="122"/>
      <point x="257" y="171" type="curve"/>
      <point x="214" y="195"/>
      <point x="181" y="230"/>
      <point x="181" y="272" type="curve" smooth="yes"/>
      <point x="181" y="324"/>
      <point x="250" y="359"/>
      <point x="312" y="359" type="curve" smooth="yes"/>
      <point x="381" y="359"/>
      <point x="430" y="309"/>
      <point x="430" y="258" type="curve" smooth="yes"/>
      <point x="430" y="168"/>
      <point x="306" y="-11"/>
    </contour>
    <contour>
      <point x="227" y="1025" type="curve" smooth="yes"/>
      <point x="227" y="1065"/>
      <point x="273" y="1104"/>
      <point x="326" y="1104" type="curve" smooth="yes"/>
      <point x="377" y="1104"/>
      <point x="421" y="1065"/>
      <point x="421" y="1027" type="curve" smooth="yes"/>
      <point x="421" y="980"/>
      <point x="374" y="952"/>
      <point x="316" y="952" type="curve" smooth="yes"/>
      <point x="267" y="952"/>
      <point x="227" y="988"/>
    </contour>
  </outline>
</glyph>
<glyph name="less" format="1">
  <advance width="726"/>
  <unicode hex="003C"/>
  <outline>
    <contour>
      <point x="91" y="698" type="line"/>
      <point x="510.573" y="1446.24" type="line"/>
      <point x="579" y="1411" type="line"/>
      <point x="243" y="702" type="line"/>
      <point x="663.326" y="43.4198" type="line"/>
      <point x="611" y="-22" type="line"/>
    </contour>
  </outline>
</glyph>
<glyph name="equal" format="1">
  <advance width="1030"/>
  <unicode hex="003D"/>
  <outline>
    <contour>
      <point x="155" y="579" type="line"/>
      <point x="155" y="680" type="line"/>
      <point x="874" y="680" type="line"/>
      <point x="874" y="579" type="line"/>
    </contour>
    <contour>
      <point x="902" y="872" type="line"/>
      <point x="899" y="818" type="line"/>
      <point x="828" y="764" type="line"/>
      <point x="158" y="764" type="line"/>
      <point x="155" y="826" type="line"/>
      <point x="165" y="872" type="line"/>
    </contour>
  </outline>
</glyph>
<glyph name="greater" format="1">
  <advance width="758"/>
  <unicode hex="003E"/>
  <outline>
    <contour>
      <point x="241.703" y="1445.25" type="line"/>
      <point x="672" y="698" type="line"/>
      <point x="208" y="-19" type="line"/>
      <point x="153" y="-19" type="line"/>
      <point x="83" y="49" type="line"/>
      <point x="519" y="702" type="line"/>
      <point x="104" y="1391" type="line"/>
    </contour>
  </outline>
</glyph>
<glyph name="question" format="1">
  <advance width="639"/>
  <unicode hex="003F"/>
  <outline>
    <contour>
      <point x="62" y="37" type="curve" smooth="yes"/>
      <point x="62" y="78"/>
      <point x="109" y="116"/>
      <point x="162" y="116" type="curve" smooth="yes"/>
      <point x="213" y="116"/>
      <point x="257" y="77"/>
      <point x="257" y="39" type="curve" smooth="yes"/>
      <point x="257" y="-8"/>
      <point x="210" y="-36"/>
      <point x="152" y="-36" type="curve" smooth="yes"/>
      <point x="102" y="-36"/>
      <point x="62" y="0"/>
    </contour>
    <contour>
      <point x="438" y="1236" type="curve" smooth="yes"/>
      <point x="438" y="1305"/>
      <point x="433" y="1492"/>
      <point x="311" y="1500" type="curve"/>
      <point x="261.531" y="1479.67"/>
      <point x="238.199" y="1447.45"/>
      <point x="235.316" y="1363" type="curve"/>
      <point x="173" y="1363" type="line"/>
      <point x="108" y="1390" type="line"/>
      <point x="108" y="1465"/>
      <point x="160" y="1586"/>
      <point x="280" y="1586" type="curve"/>
      <point x="280" y="1587" type="line"/>
      <point x="564" y="1587"/>
      <point x="566" y="1357"/>
      <point x="566" y="1201" type="curve" smooth="yes"/>
      <point x="566" y="774"/>
      <point x="477" y="758"/>
      <point x="339" y="436" type="curve"/>
      <point x="219" y="274" type="line"/>
      <point x="171" y="317" type="line"/>
      <point x="171" y="317"/>
      <point x="438" y="864"/>
    </contour>
  </outline>
</glyph>
<glyph name="at" format="1">
  <advance width="1799"/>
  <unicode hex="0040"/>
  <outline>
    <contour>
      <point x="1551" y="776" type="curve"/>
      <point x="1550" y="776" type="line"/>
      <point x="1550" y="1089"/>
      <point x="1431" y="1612"/>
      <point x="810" y="1612" type="curve" smooth="yes"/>
      <point x="305" y="1612"/>
      <point x="268" y="1272"/>
      <point x="268" y="999" type="curve" smooth="yes"/>
      <point x="268" y="847" type="line" smooth="yes"/>
      <point x="268" y="615"/>
      <point x="287" y="-31"/>
      <point x="737" y="-31" type="curve" smooth="yes"/>
      <point x="1270" y="-31"/>
      <point x="1214" y="57"/>
      <point x="1527" y="169" type="curve"/>
      <point x="1527" y="179" type="line"/>
      <point x="1600" y="140" type="line"/>
      <point x="1534" y="-27"/>
      <point x="1082" y="-120"/>
      <point x="753" y="-120" type="curve" smooth="yes"/>
      <point x="127" y="-120"/>
      <point x="126" y="683"/>
      <point x="126" y="956" type="curve" smooth="yes"/>
      <point x="126" y="1262"/>
      <point x="135" y="1719"/>
      <point x="829" y="1719" type="curve" smooth="yes"/>
      <point x="1596" y="1719"/>
      <point x="1699" y="1146"/>
      <point x="1699" y="767" type="curve" smooth="yes"/>
      <point x="1699" y="645"/>
      <point x="1695" y="406"/>
      <point x="1422" y="406" type="curve" smooth="yes"/>
      <point x="1348" y="406"/>
      <point x="1301" y="426"/>
      <point x="1269" y="449" type="curve"/>
      <point x="1209" y="368"/>
      <point x="1049" y="306"/>
      <point x="849" y="306" type="curve" smooth="yes"/>
      <point x="489" y="306"/>
      <point x="486" y="661"/>
      <point x="486" y="851" type="curve" smooth="yes"/>
      <point x="486" y="1047"/>
      <point x="491" y="1351"/>
      <point x="858" y="1351" type="curve" smooth="yes"/>
      <point x="1331" y="1351"/>
      <point x="1303" y="818"/>
      <point x="1340" y="565" type="curve"/>
      <point x="1340" y="556" type="line"/>
      <point x="1439" y="510" type="line"/>
      <point x="1540" y="536"/>
      <point x="1551" y="723"/>
    </contour>
    <contour>
      <point x="857" y="1246" type="line" smooth="yes"/>
      <point x="654" y="1245"/>
      <point x="645" y="1013"/>
      <point x="645" y="888" type="curve" smooth="yes"/>
      <point x="645" y="855" type="line" smooth="yes"/>
      <point x="645" y="678"/>
      <point x="651" y="410"/>
      <point x="881" y="410" type="curve" smooth="yes"/>
      <point x="1013" y="410"/>
      <point x="1166" y="550"/>
      <point x="1166" y="605" type="curve" smooth="yes"/>
      <point x="1166" y="759" type="line" smooth="yes"/>
      <point x="1166" y="875"/>
      <point x="1109" y="1245"/>
      <point x="858" y="1246" type="curve" smooth="yes"/>
    </contour>
  </outline>
</glyph>
<glyph name="A" format="1">
  <advance width="928"/>
  <unicode hex="0041"/>
  <outline>
    <contour>
      <point x="634" y="448" type="line"/>
      <point x="572" y="1298" type="line"/>
      <point x="574" y="1316" type="line"/>
      <point x="346" y="465" type="line"/>
      <point x="583" y="442" type="line"/>
    </contour>
    <contour>
      <point x="81" y="64" type="line"/>
      <point x="500" y="1544" type="line"/>
      <point x="683" y="1526" type="line"/>
      <point x="836" y="21" type="line"/>
      <point x="774" y="9"/>
      <point x="719" y="1"/>
      <point x="636" y="-1" type="curve"/>
      <point x="636" y="321" type="line"/>
      <point x="329" y="373" type="line"/>
      <point x="223" y="23" type="line"/>
    </contour>
  </outline>
</glyph>
<glyph name="B" format="1">
  <advance width="974"/>
  <unicode hex="0042"/>
  <outline>
    <contour>
      <point x="172" y="538" type="curve" smooth="yes"/>
      <point x="172" y="815"/>
      <point x="154" y="1093"/>
      <point x="154" y="1370" type="curve" smooth="yes"/>
      <point x="154" y="1512" type="line"/>
      <point x="244" y="1537" type="line"/>
      <point x="660" y="1537"/>
      <point x="820" y="1392"/>
      <point x="820" y="1201" type="curve" smooth="yes"/>
      <point x="820" y="1083"/>
      <point x="731" y="938"/>
      <point x="536" y="879" type="curve"/>
      <point x="770.993" y="790.439"/>
      <point x="898.812" y="600.672"/>
      <point x="898.812" y="418.48" type="curve" smooth="yes"/>
      <point x="898.812" y="195.043"/>
      <point x="706.569" y="-17"/>
      <point x="284" y="-17" type="curve"/>
      <point x="159" y="34" type="line"/>
      <point x="159" y="202"/>
      <point x="172" y="370"/>
    </contour>
    <contour>
      <point x="459" y="786" type="curve" smooth="yes"/>
      <point x="305" y="786" type="line"/>
      <point x="323" y="573"/>
      <point x="326" y="323"/>
      <point x="326" y="110" type="curve"/>
      <point x="593" y="129"/>
      <point x="699" y="252"/>
      <point x="699" y="369" type="curve" smooth="yes"/>
      <point x="699" y="606"/>
      <point x="565" y="786"/>
    </contour>
    <contour>
      <point x="352" y="1421" type="curve" smooth="yes"/>
      <point x="291" y="1421"/>
      <point x="291" y="1376"/>
      <point x="291" y="1357" type="curve" smooth="yes"/>
      <point x="291" y="1201"/>
      <point x="307" y="1044"/>
      <point x="309" y="888" type="curve"/>
      <point x="505" y="908"/>
      <point x="673" y="1097"/>
      <point x="673" y="1236" type="curve" smooth="yes"/>
      <point x="673" y="1315"/>
      <point x="532" y="1421"/>
    </contour>
  </outline>
</glyph>
<glyph name="C" format="1">
  <advance width="898"/>
  <unicode hex="0043"/>
  <outline>
    <contour>
      <point x="524" y="-33" type="curve"/>
      <point x="524" y="-32" type="line"/>
      <point x="150" y="-32"/>
      <point x="114" y="426"/>
      <point x="114" y="793" type="curve" smooth="yes"/>
      <point x="114" y="883"/>
      <point x="117" y="967"/>
      <point x="117" y="1038" type="curve" smooth="yes"/>
      <point x="117" y="1385"/>
      <point x="167" y="1566"/>
      <point x="551" y="1566" type="curve" smooth="yes"/>
      <point x="626" y="1566"/>
      <point x="746" y="1566"/>
      <point x="746" y="1565" type="curve" smooth="yes"/>
      <point x="743" y="1420" type="line"/>
      <point x="269" y="1420"/>
      <point x="253" y="1253"/>
      <point x="253" y="893" type="curve" smooth="yes"/>
      <point x="253" y="810" type="line" smooth="yes"/>
      <point x="253" y="553"/>
      <point x="262" y="93"/>
      <point x="559" y="93" type="curve" smooth="yes"/>
      <point x="666" y="93"/>
      <point x="769" y="127"/>
      <point x="840" y="192" type="curve"/>
      <point x="885" y="75" type="line"/>
      <point x="789" y="1"/>
      <point x="694" y="-33"/>
    </contour>
  </outline>
</glyph>
<glyph name="D" format="1">
  <advance width="1164"/>
  <unicode hex="0044"/>
  <outline>
    <contour>
      <point x="262" y="-4" type="curve" smooth="yes"/>
      <point x="207" y="-4"/>
      <point x="139.479" y="15.2324"/>
      <point x="139.479" y="66.2324" type="curve"/>
      <point x="95.5243" y="1481.17" type="line"/>
      <point x="95.5243" y="1548.17"/>
      <point x="219" y="1552"/>
      <point x="302" y="1552" type="curve" smooth="yes"/>
      <point x="346" y="1552" type="line"/>
      <point x="346" y="1553" type="line"/>
      <point x="1062" y="1553"/>
      <point x="1059" y="1111"/>
      <point x="1076" y="869" type="curve"/>
      <point x="1076" y="553"/>
      <point x="868" y="-4"/>
    </contour>
    <contour>
      <point x="914" y="854" type="curve" smooth="yes"/>
      <point x="914" y="1142"/>
      <point x="830" y="1429"/>
      <point x="263" y="1429" type="curve"/>
      <point x="263" y="1427" type="line" smooth="yes"/>
      <point x="263" y="1054"/>
      <point x="323" y="623"/>
      <point x="301" y="250" type="curve"/>
      <point x="301" y="114" type="line"/>
      <point x="751" y="243"/>
      <point x="914" y="634"/>
    </contour>
  </outline>
</glyph>
<glyph name="E" format="1">
  <advance width="665"/>
  <unicode hex="0045"/>
  <outline>
    <contour>
      <point x="308" y="105" type="line"/>
      <point x="406" y="107"/>
      <point x="511" y="111"/>
      <point x="609" y="111" type="curve"/>
      <point x="597" y="57" type="line"/>
      <point x="597" y="50" type="line"/>
      <point x="563" y="-12" type="line"/>
      <point x="290" y="-12" type="line" smooth="yes"/>
      <point x="228" y="-12"/>
      <point x="155" y="-10"/>
      <point x="155" y="55" type="curve" smooth="yes"/>
      <point x="155" y="1533" type="line"/>
      <point x="255" y="1533"/>
      <point x="405" y="1551"/>
      <point x="505" y="1551" type="curve"/>
      <point x="507" y="1484" type="line"/>
      <point x="506" y="1423" type="line"/>
      <point x="439" y="1423"/>
      <point x="377" y="1425"/>
      <point x="310" y="1425" type="curve" smooth="yes"/>
      <point x="301" y="1425"/>
      <point x="290" y="1425"/>
      <point x="281" y="1424" type="curve"/>
      <point x="281" y="1311"/>
      <point x="302" y="1199"/>
      <point x="302" y="1086" type="curve" smooth="yes"/>
      <point x="302" y="1008"/>
      <point x="290" y="930"/>
      <point x="289" y="852" type="curve"/>
      <point x="356" y="858"/>
      <point x="420" y="870"/>
      <point x="489" y="870" type="curve"/>
      <point x="492" y="813" type="line"/>
      <point x="497" y="750" type="line"/>
      <point x="461" y="750"/>
      <point x="408" y="752"/>
      <point x="355" y="752" type="curve" smooth="yes"/>
      <point x="328" y="752"/>
      <point x="321" y="749"/>
      <point x="308" y="737" type="curve"/>
    </contour>
  </outline>
</glyph>
<glyph name="F" format="1">
  <advance width="595"/>
  <unicode hex="0046"/>
  <outline>
    <contour>
      <point x="108" y="1520" type="curve" smooth="yes"/>
      <point x="108" y="1543"/>
      <point x="321" y="1554"/>
      <point x="355" y="1554" type="curve" smooth="yes"/>
      <point x="396" y="1554"/>
      <point x="433" y="1553"/>
      <point x="464" y="1549" type="curve"/>
      <point x="469" y="1484" type="line"/>
      <point x="474" y="1440" type="line"/>
      <point x="449" y="1440"/>
      <point x="391" y="1442"/>
      <point x="329" y="1442" type="curve" smooth="yes"/>
      <point x="293" y="1442"/>
      <point x="255" y="1438"/>
      <point x="255" y="1419" type="curve" smooth="yes"/>
      <point x="255" y="1235"/>
      <point x="293" y="1053"/>
      <point x="296" y="869" type="curve"/>
      <point x="362" y="876"/>
      <point x="426" y="891"/>
      <point x="494" y="891" type="curve"/>
      <point x="517" y="828" type="line"/>
      <point x="528" y="784" type="line"/>
      <point x="462" y="762"/>
      <point x="347" y="763"/>
      <point x="296" y="761" type="curve"/>
      <point x="296" y="591"/>
      <point x="317" y="423"/>
      <point x="329" y="254" type="curve" smooth="yes"/>
      <point x="341" y="81" type="line"/>
      <point x="345" y="6" type="line"/>
      <point x="255" y="-2" type="line"/>
      <point x="194" y="-10" type="line"/>
      <point x="179" y="129" type="line"/>
      <point x="179" y="292"/>
      <point x="108" y="1446"/>
    </contour>
  </outline>
</glyph>
<glyph name="G" format="1">
  <advance width="1356"/>
  <unicode hex="0047"/>
  <outline>
    <contour>
      <point x="783" y="-54" type="curve" smooth="yes"/>
      <point x="125" y="-54"/>
      <point x="113" y="464"/>
      <point x="113" y="711" type="curve" smooth="yes"/>
      <point x="113" y="753"/>
      <point x="112" y="805"/>
      <point x="112" y="862" type="curve" smooth="yes"/>
      <point x="112" y="1158"/>
      <point x="146" y="1591"/>
      <point x="763" y="1591" type="curve"/>
      <point x="1010" y="1566" type="line"/>
      <point x="1010" y="1424" type="line"/>
      <point x="905" y="1424"/>
      <point x="818" y="1445"/>
      <point x="717" y="1445" type="curve" smooth="yes"/>
      <point x="268" y="1445"/>
      <point x="258" y="905"/>
      <point x="258" y="744" type="curve" smooth="yes"/>
      <point x="258" y="456"/>
      <point x="228" y="91"/>
      <point x="776" y="91" type="curve" smooth="yes"/>
      <point x="914" y="91"/>
      <point x="1016" y="124"/>
      <point x="1095" y="177" type="curve"/>
      <point x="1046" y="371" type="line"/>
      <point x="954" y="369"/>
      <point x="827" y="363"/>
      <point x="707" y="363" type="curve"/>
      <point x="707" y="511" type="line"/>
      <point x="841" y="507"/>
      <point x="1081.27" y="500.857"/>
      <point x="1185.27" y="500.857" type="curve"/>
      <point x="1255" y="-35" type="line"/>
      <point x="1120" y="-35" type="line"/>
      <point x="1120" y="42" type="line"/>
      <point x="1099" y="42" type="line"/>
      <point x="996" y="5"/>
      <point x="901" y="-54"/>
    </contour>
  </outline>
</glyph>
<glyph name="H" format="1">
  <advance width="990"/>
  <unicode hex="0048"/>
  <outline>
    <contour>
      <point x="191" y="5" type="line"/>
      <point x="140" y="221"/>
      <point x="98" y="1320"/>
      <point x="98" y="1510" type="curve" smooth="yes"/>
      <point x="98" y="1555" type="line"/>
      <point x="157" y="1557" type="line"/>
      <point x="257" y="1544" type="line"/>
      <point x="251" y="1482"/>
      <point x="248" y="1421"/>
      <point x="248" y="1360" type="curve" smooth="yes"/>
      <point x="248" y="1220"/>
      <point x="268" y="1079"/>
      <point x="268" y="939" type="curve"/>
      <point x="273" y="809" type="line"/>
      <point x="413" y="811"/>
      <point x="551" y="822"/>
      <point x="677" y="824" type="curve"/>
      <point x="676" y="1058"/>
      <point x="654" y="1292"/>
      <point x="654" y="1526" type="curve"/>
      <point x="834" y="1547" type="line"/>
      <point x="837" y="1393" type="line"/>
      <point x="837" y="943"/>
      <point x="895" y="491"/>
      <point x="895" y="43" type="curve"/>
      <point x="748" y="37" type="line"/>
      <point x="748" y="92"/>
      <point x="719" y="221"/>
      <point x="719" y="356" type="curve"/>
      <point x="702" y="701" type="line"/>
      <point x="565" y="701"/>
      <point x="419" y="701"/>
      <point x="294" y="685" type="curve"/>
      <point x="293" y="476"/>
      <point x="311" y="268"/>
      <point x="311" y="59" type="curve"/>
    </contour>
  </outline>
</glyph>
<glyph name="I" format="1">
  <advance width="642"/>
  <unicode hex="0049"/>
  <outline>
    <contour>
      <point x="568" y="19" type="line"/>
      <point x="83" y="19" type="line"/>
      <point x="86" y="64" type="line"/>
      <point x="87" y="113" type="line"/>
      <point x="249" y="112" type="line"/>
      <point x="262" y="158" type="line"/>
      <point x="212" y="1105" type="line"/>
      <point x="217" y="1314" type="line"/>
      <point x="211" y="1428" type="line"/>
      <point x="98" y="1419" type="line"/>
      <point x="86" y="1518" type="line"/>
      <point x="415" y="1553" type="line"/>
      <point x="493" y="1557" type="line"/>
      <point x="491" y="1447" type="line"/>
      <point x="438" y="1445"/>
      <point x="386" y="1443"/>
      <point x="333" y="1441" type="curve"/>
      <point x="401" y="203" type="line"/>
      <point x="401" y="115" type="line"/>
      <point x="565" y="116" type="line"/>
      <point x="563" y="82" type="line"/>
      <point x="567" y="62" type="line"/>
    </contour>
  </outline>
</glyph>
<glyph name="J" format="1">
  <advance width="624"/>
  <unicode hex="004A"/>
  <outline>
    <contour>
      <point x="427" y="1444" type="curve"/>
      <point x="427" y="1429" type="line" smooth="yes"/>
      <point x="427" y="1323"/>
      <point x="414" y="1218"/>
      <point x="414" y="1112" type="curve" smooth="yes"/>
      <point x="414" y="846"/>
      <point x="463" y="581"/>
      <point x="463" y="315" type="curve" smooth="yes"/>
      <point x="463" y="64"/>
      <point x="403" y="-86"/>
      <point x="204" y="-194" type="curve"/>
      <point x="152" y="-194"/>
      <point x="108" y="-175"/>
      <point x="108" y="-131" type="curve" smooth="yes"/>
      <point x="108" y="-130" type="line" smooth="yes"/>
      <point x="108" y="-20"/>
      <point x="318" y="-5"/>
      <point x="318" y="241" type="curve" smooth="yes"/>
      <point x="318" y="334"/>
      <point x="320" y="429"/>
      <point x="320" y="525" type="curve" smooth="yes"/>
      <point x="320" y="836"/>
      <point x="312" y="1155"/>
      <point x="249" y="1445" type="curve"/>
      <point x="212" y="1439"/>
      <point x="173" y="1429"/>
      <point x="134" y="1429" type="curve" smooth="yes"/>
      <point x="97" y="1429"/>
      <point x="66" y="1453"/>
      <point x="66" y="1481" type="curve" smooth="yes"/>
      <point x="66" y="1553"/>
      <point x="321" y="1553"/>
      <point x="385" y="1553" type="curve" smooth="yes"/>
      <point x="439" y="1553"/>
      <point x="538" y="1548"/>
      <point x="538" y="1497" type="curve" smooth="yes"/>
      <point x="538" y="1453"/>
      <point x="473" y="1444"/>
    </contour>
  </outline>
</glyph>
<glyph name="K" format="1">
  <advance width="1020"/>
  <unicode hex="004B"/>
  <outline>
    <contour>
      <point x="169" y="1049" type="curve"/>
      <point x="169" y="1275"/>
      <point x="167" y="1406"/>
      <point x="167" y="1560" type="curve"/>
      <point x="304" y="1560" type="line"/>
      <point x="304" y="1374" type="line" smooth="yes"/>
      <point x="304" y="1234"/>
      <point x="295" y="1093"/>
      <point x="291" y="953" type="curve"/>
      <point x="353" y="1044"/>
      <point x="674" y="1495"/>
      <point x="787" y="1595" type="curve"/>
      <point x="865" y="1541" type="line"/>
      <point x="865" y="1498"/>
      <point x="545" y="1131"/>
      <point x="506" y="1020" type="curve"/>
      <point x="506" y="994" type="line"/>
      <point x="567" y="902"/>
      <point x="935" y="95"/>
      <point x="965" y="40" type="curve"/>
      <point x="860" y="-49" type="line"/>
      <point x="766" y="79"/>
      <point x="479" y="761"/>
      <point x="392" y="879" type="curve"/>
      <point x="304" y="775"/>
      <point x="282" y="768"/>
      <point x="282" y="649" type="curve" smooth="yes"/>
      <point x="282" y="522"/>
      <point x="299" y="396"/>
      <point x="299" y="269" type="curve" smooth="yes"/>
      <point x="299" y="0" type="line"/>
      <point x="160" y="0" type="line"/>
      <point x="160" y="224"/>
      <point x="165" y="436"/>
      <point x="165" y="660" type="curve" smooth="yes"/>
      <point x="165" y="754"/>
      <point x="169" y="905"/>
    </contour>
  </outline>
</glyph>
<glyph name="L" format="1">
  <advance width="638"/>
  <unicode hex="004C"/>
  <outline>
    <contour>
      <point x="323" y="102" type="line"/>
      <point x="574" y="102" type="line"/>
      <point x="574" y="-4" type="line"/>
      <point x="180" y="-4" type="line"/>
      <point x="180" y="41"/>
      <point x="177" y="87"/>
      <point x="177" y="132" type="curve" smooth="yes"/>
      <point x="177" y="615"/>
      <point x="124" y="1096"/>
      <point x="124" y="1579" type="curve"/>
      <point x="172" y="1573"/>
      <point x="221" y="1567"/>
      <point x="270" y="1562" type="curve"/>
      <point x="270" y="1299"/>
      <point x="297" y="1036"/>
      <point x="297" y="775" type="curve" smooth="yes"/>
      <point x="297" y="753"/>
      <point x="296" y="732"/>
      <point x="292" y="710" type="curve"/>
      <point x="292" y="701" type="line" smooth="yes"/>
      <point x="292" y="523"/>
      <point x="323" y="345"/>
      <point x="323" y="167" type="curve" smooth="yes"/>
    </contour>
  </outline>
</glyph>
<glyph name="M" format="1">
  <advance width="1474"/>
  <unicode hex="004D"/>
  <outline>
    <contour>
      <point x="617" y="222" type="line"/>
      <point x="261.945" y="1339.03" type="line"/>
      <point x="322.019" y="-21.434" type="line"/>
      <point x="149.149" y="32.4639" type="line"/>
      <point x="100.321" y="1521.72" type="line"/>
      <point x="346" y="1554" type="line"/>
      <point x="728" y="424" type="line"/>
      <point x="1041.15" y="1528.11" type="line"/>
      <point x="1194" y="1529" type="line"/>
      <point x="1317" y="-11" type="line"/>
      <point x="1146" y="-11" type="line"/>
      <point x="1055" y="1132" type="line"/>
      <point x="795" y="248" type="line"/>
    </contour>
  </outline>
</glyph>
<glyph name="N" format="1">
  <advance width="1310"/>
  <unicode hex="004E"/>
  <outline>
    <contour>
      <point x="266" y="1" type="line"/>
      <point x="143" y="1" type="line"/>
      <point x="143" y="39" type="line"/>
      <point x="144" y="45"/>
      <point x="145" y="52"/>
      <point x="145" y="60" type="curve" smooth="yes"/>
      <point x="145" y="88"/>
      <point x="135" y="129"/>
      <point x="135" y="177" type="curve" smooth="yes"/>
      <point x="135" y="371"/>
      <point x="131" y="688"/>
      <point x="131" y="812" type="curve" smooth="yes"/>
      <point x="131" y="1073" type="line" smooth="yes"/>
      <point x="131" y="1198"/>
      <point x="149" y="1324"/>
      <point x="149" y="1449" type="curve" smooth="yes"/>
      <point x="149" y="1462" type="line" smooth="yes"/>
      <point x="149" y="1519"/>
      <point x="153" y="1554"/>
      <point x="249" y="1554" type="curve" smooth="yes"/>
      <point x="342" y="1554" type="line"/>
      <point x="416" y="1374"/>
      <point x="733" y="733"/>
      <point x="957" y="298" type="curve"/>
      <point x="998" y="225" type="line"/>
      <point x="998" y="463"/>
      <point x="1012" y="701"/>
      <point x="1012" y="939" type="curve" smooth="yes"/>
      <point x="1012" y="1545" type="line"/>
      <point x="1159" y="1576" type="line"/>
      <point x="1159" y="1522"/>
      <point x="1155" y="1482"/>
      <point x="1155" y="1444" type="curve" smooth="yes"/>
      <point x="1155" y="1193"/>
      <point x="1145" y="939"/>
      <point x="1145" y="687" type="curve" smooth="yes"/>
      <point x="1145" y="61" type="line"/>
      <point x="958" y="-21" type="line"/>
      <point x="811" y="189"/>
      <point x="588.282" y="670.052"/>
      <point x="351.282" y="1112.05" type="curve"/>
      <point x="266" y="1297" type="line"/>
    </contour>
  </outline>
</glyph>
<glyph name="O" format="1">
  <advance width="1211"/>
  <unicode hex="004F"/>
  <outline>
    <contour>
      <point x="676" y="-56" type="curve" smooth="yes"/>
      <point x="166" y="-56"/>
      <point x="133" y="610"/>
      <point x="133" y="800" type="curve" smooth="yes"/>
      <point x="133" y="878"/>
      <point x="130" y="959"/>
      <point x="130" y="1039" type="curve" smooth="yes"/>
      <point x="130" y="1322"/>
      <point x="167" y="1585"/>
      <point x="500" y="1585" type="curve" smooth="yes"/>
      <point x="909" y="1585"/>
      <point x="1101" y="1122"/>
      <point x="1101" y="688" type="curve" smooth="yes"/>
      <point x="1101" y="305"/>
      <point x="954" y="-56"/>
    </contour>
    <contour>
      <point x="517" y="1468" type="curve" smooth="yes"/>
      <point x="293" y="1468"/>
      <point x="290" y="979"/>
      <point x="290" y="862" type="curve" smooth="yes"/>
      <point x="290" y="727"/>
      <point x="370" y="65"/>
      <point x="682" y="65" type="curve" smooth="yes"/>
      <point x="901" y="65"/>
      <point x="922" y="563"/>
      <point x="922" y="653" type="curve" smooth="yes"/>
      <point x="922" y="795"/>
      <point x="912" y="1468"/>
    </contour>
  </outline>
</glyph>
<glyph name="P" format="1">
  <advance width="726"/>
  <unicode hex="0050"/>
  <outline>
    <contour>
      <point x="477" y="1141" type="curve" smooth="yes"/>
      <point x="477" y="1260"/>
      <point x="402" y="1376"/>
      <point x="250" y="1459" type="curve"/>
      <point x="251" y="1243"/>
      <point x="272" y="1027"/>
      <point x="273" y="811" type="curve"/>
      <point x="408" y="908"/>
      <point x="477" y="1026"/>
    </contour>
    <contour>
      <point x="195" y="1566" type="line" smooth="yes"/>
      <point x="470" y="1566"/>
      <point x="613" y="1365"/>
      <point x="613" y="1175" type="curve" smooth="yes"/>
      <point x="613" y="983"/>
      <point x="506" y="805"/>
      <point x="280" y="712" type="curve"/>
      <point x="281" y="476"/>
      <point x="301" y="240"/>
      <point x="301" y="4" type="curve"/>
      <point x="149" y="4" type="line"/>
      <point x="149" y="225"/>
      <point x="131" y="501"/>
      <point x="132" y="789" type="curve"/>
      <point x="132" y="1566" type="line"/>
    </contour>
  </outline>
</glyph>
<glyph name="Q" format="1">
  <advance width="1222"/>
  <unicode hex="0051"/>
  <outline>
    <contour>
      <point x="529" y="1575" type="curve"/>
      <point x="1046" y="1575"/>
      <point x="1080" y="1178"/>
      <point x="1080" y="861" type="curve" smooth="yes"/>
      <point x="1080" y="787"/>
      <point x="1079" y="717"/>
      <point x="1079" y="658" type="curve" smooth="yes"/>
      <point x="1079" y="497" type="line" smooth="yes"/>
      <point x="1079" y="320"/>
      <point x="1066" y="139"/>
      <point x="834" y="29" type="curve"/>
      <point x="894" y="-88"/>
      <point x="961" y="-195"/>
      <point x="1012" y="-320" type="curve"/>
      <point x="912.02" y="-357.796" type="line"/>
      <point x="687" y="-11" type="line"/>
      <point x="499" y="19" type="line"/>
      <point x="151" y="148"/>
      <point x="127" y="528"/>
      <point x="127" y="743" type="curve" smooth="yes"/>
      <point x="127" y="854"/>
      <point x="130" y="796"/>
      <point x="130" y="907" type="curve" smooth="yes"/>
      <point x="130" y="1195"/>
      <point x="206" y="1575"/>
    </contour>
    <contour>
      <point x="930" y="894" type="line" smooth="yes"/>
      <point x="930" y="1124"/>
      <point x="926" y="1464"/>
      <point x="521" y="1464" type="curve" smooth="yes"/>
      <point x="295" y="1464"/>
      <point x="267" y="865"/>
      <point x="267" y="743" type="curve" smooth="yes"/>
      <point x="267" y="309"/>
      <point x="446" y="115"/>
      <point x="629" y="115" type="curve" smooth="yes"/>
      <point x="785" y="115"/>
      <point x="930" y="246"/>
      <point x="930" y="527" type="curve" smooth="yes"/>
    </contour>
  </outline>
</glyph>
<glyph name="R" format="1">
  <advance width="904"/>
  <unicode hex="0052"/>
  <outline>
    <contour>
      <point x="281" y="1045" type="curve" smooth="yes"/>
      <point x="281" y="1014"/>
      <point x="281" y="982"/>
      <point x="285" y="951" type="curve"/>
      <point x="470" y="1014"/>
      <point x="499" y="1012"/>
      <point x="578" y="1207" type="curve"/>
      <point x="578" y="1358"/>
      <point x="512" y="1449"/>
      <point x="299" y="1463" type="curve"/>
      <point x="298" y="1324"/>
      <point x="281" y="1184"/>
    </contour>
    <contour>
      <point x="143" y="60" type="line" smooth="yes"/>
      <point x="143" y="460"/>
      <point x="161" y="861"/>
      <point x="161" y="1261" type="curve" smooth="yes"/>
      <point x="161" y="1513" type="line" smooth="yes"/>
      <point x="161" y="1541"/>
      <point x="168" y="1557"/>
      <point x="231" y="1557" type="curve" smooth="yes"/>
      <point x="613" y="1557"/>
      <point x="771" y="1370"/>
      <point x="771" y="1217" type="curve" smooth="yes"/>
      <point x="771" y="1097"/>
      <point x="723" y="949"/>
      <point x="475" y="876" type="curve"/>
      <point x="576" y="663"/>
      <point x="817.81" y="237.234"/>
      <point x="922.81" y="14.2337" type="curve"/>
      <point x="754.264" y="-40.3432" type="line"/>
      <point x="718" y="41" type="line"/>
      <point x="664" y="139"/>
      <point x="452" y="597"/>
      <point x="312" y="859" type="curve"/>
      <point x="312" y="-8" type="line"/>
      <point x="143" y="-8" type="line"/>
    </contour>
  </outline>
</glyph>
<glyph name="S" format="1">
  <advance width="765"/>
  <unicode hex="0053"/>
  <outline>
    <contour>
      <point x="275" y="1290" type="curve" smooth="yes"/>
      <point x="275" y="792"/>
      <point x="661" y="779"/>
      <point x="661" y="342" type="curve" smooth="yes"/>
      <point x="661" y="179"/>
      <point x="546" y="-45"/>
      <point x="297" y="-45" type="curve" smooth="yes"/>
      <point x="245" y="-45"/>
      <point x="154" y="-35"/>
      <point x="90" y="24" type="curve"/>
      <point x="120" y="109" type="line"/>
      <point x="182" y="63"/>
      <point x="246" y="48"/>
      <point x="297" y="48" type="curve" smooth="yes"/>
      <point x="444" y="48"/>
      <point x="503" y="268"/>
      <point x="503" y="355" type="curve" smooth="yes"/>
      <point x="503" y="690"/>
      <point x="123" y="940"/>
      <point x="123" y="1275" type="curve" smooth="yes"/>
      <point x="123" y="1413"/>
      <point x="203" y="1545"/>
      <point x="383" y="1545" type="curve" smooth="yes"/>
      <point x="452" y="1545"/>
      <point x="536" y="1526"/>
      <point x="636" y="1480" type="curve"/>
      <point x="636" y="1376" type="line"/>
      <point x="609" y="1383"/>
      <point x="482" y="1446"/>
      <point x="395" y="1446" type="curve" smooth="yes"/>
      <point x="329" y="1446"/>
      <point x="275" y="1411"/>
    </contour>
  </outline>
</glyph>
<glyph name="T" format="1">
  <advance width="711"/>
  <unicode hex="0054"/>
  <outline>
    <contour>
      <point x="454" y="454" type="curve" smooth="yes"/>
      <point x="454" y="297"/>
      <point x="456" y="142"/>
      <point x="456" y="-15" type="curve"/>
      <point x="328" y="-15" type="line"/>
      <point x="328" y="1424" type="line"/>
      <point x="244" y="1422"/>
      <point x="149" y="1413"/>
      <point x="65" y="1413" type="curve"/>
      <point x="65" y="1533" type="line"/>
      <point x="234" y="1547"/>
      <point x="561" y="1550"/>
      <point x="636" y="1550" type="curve"/>
      <point x="636" y="1438" type="line"/>
      <point x="577" y="1438"/>
      <point x="522" y="1442"/>
      <point x="465" y="1442" type="curve"/>
      <point x="465" y="1189" type="line" smooth="yes"/>
      <point x="465" y="1102"/>
      <point x="451" y="1013"/>
      <point x="451" y="925" type="curve" smooth="yes"/>
      <point x="451" y="765"/>
      <point x="454" y="615"/>
    </contour>
  </outline>
</glyph>
<glyph name="U" format="1">
  <advance width="1296"/>
  <unicode hex="0055"/>
  <outline>
    <contour>
      <point x="803" y="-37" type="curve"/>
      <point x="155" y="-37"/>
      <point x="111" y="605"/>
      <point x="111" y="1112" type="curve" smooth="yes"/>
      <point x="111" y="1230"/>
      <point x="100" y="1341"/>
      <point x="100" y="1435" type="curve" smooth="yes"/>
      <point x="100" y="1547" type="line"/>
      <point x="267" y="1547" type="line"/>
      <point x="267" y="995"/>
      <point x="196" y="95"/>
      <point x="801" y="95" type="curve" smooth="yes"/>
      <point x="1009" y="95"/>
      <point x="1017" y="220"/>
      <point x="1012" y="279" type="curve"/>
      <point x="953.311" y="1539.34" type="line"/>
      <point x="1051" y="1539" type="line"/>
      <point x="1129.01" y="1538.95" type="line"/>
      <point x="1161.81" y="288.152" type="line"/>
      <point x="1161.81" y="137.152"/>
      <point x="1130" y="-37"/>
    </contour>
  </outline>
</glyph>
<glyph name="V" format="1">
  <advance width="872"/>
  <unicode hex="0056"/>
  <outline>
    <contour>
      <point x="250" y="1563" type="line"/>
      <point x="339" y="1144"/>
      <point x="439" y="534"/>
      <point x="466" y="339" type="curve"/>
      <point x="524" y="746"/>
      <point x="587" y="1260"/>
      <point x="628" y="1568" type="curve"/>
      <point x="782" y="1568" type="line"/>
      <point x="764" y="1403"/>
      <point x="584" y="134"/>
      <point x="557" y="-34" type="curve"/>
      <point x="424" y="-12" type="line"/>
      <point x="307" y="359"/>
      <point x="179" y="1161"/>
      <point x="72" y="1523" type="curve"/>
    </contour>
  </outline>
</glyph>
<glyph name="W" format="1">
  <advance width="1452"/>
  <unicode hex="0057"/>
  <outline>
    <contour>
      <point x="499" y="1287" type="curve" smooth="yes"/>
      <point x="499" y="1386" type="line"/>
      <point x="678" y="1386" type="line"/>
      <point x="678" y="1215"/>
      <point x="842" y="752"/>
      <point x="960" y="352" type="curve"/>
      <point x="1040" y="760"/>
      <point x="1185" y="1465"/>
      <point x="1196" y="1577" type="curve"/>
      <point x="1255" y="1587"/>
      <point x="1315" y="1597"/>
      <point x="1374" y="1607" type="curve"/>
      <point x="1326" y="1281"/>
      <point x="1075" y="409"/>
      <point x="1040" y="33" type="curve"/>
      <point x="897" y="33" type="line"/>
      <point x="806" y="379"/>
      <point x="632" y="939"/>
      <point x="614" y="1053" type="curve"/>
      <point x="555" y="713"/>
      <point x="497" y="372"/>
      <point x="497" y="28" type="curve"/>
      <point x="323" y="28" type="line"/>
      <point x="323" y="161"/>
      <point x="115" y="1407"/>
      <point x="73" y="1491" type="curve"/>
      <point x="215" y="1540" type="line"/>
      <point x="240" y="1454"/>
      <point x="382" y="643"/>
      <point x="402" y="504" type="curve"/>
      <point x="429" y="695"/>
      <point x="499" y="1116"/>
    </contour>
  </outline>
</glyph>
<glyph name="X" format="1">
  <advance width="780"/>
  <unicode hex="0058"/>
  <outline>
    <contour>
      <point x="462" y="796" type="curve" smooth="yes"/>
      <point x="462" y="774"/>
      <point x="562" y="454"/>
      <point x="572" y="411" type="curve"/>
      <point x="622" y="236" type="line"/>
      <point x="630" y="173"/>
      <point x="666" y="93"/>
      <point x="672" y="55" type="curve"/>
      <point x="589" y="24" type="line"/>
      <point x="530" y="24" type="line"/>
      <point x="512" y="126"/>
      <point x="440" y="366"/>
      <point x="387" y="538" type="curve"/>
      <point x="356" y="437"/>
      <point x="224" y="101"/>
      <point x="160" y="-13" type="curve"/>
      <point x="88" y="33" type="line"/>
      <point x="88" y="34" type="line"/>
      <point x="155" y="255"/>
      <point x="334" y="750"/>
      <point x="332" y="750" type="curve"/>
      <point x="281" y="928"/>
      <point x="109" y="1456"/>
      <point x="110" y="1457" type="curve" smooth="yes"/>
      <point x="139" y="1479" type="line"/>
      <point x="214" y="1521" type="line"/>
      <point x="270" y="1376"/>
      <point x="374" y="1101"/>
      <point x="397" y="998" type="curve"/>
      <point x="423" y="1083"/>
      <point x="528" y="1386"/>
      <point x="602" y="1551" type="curve"/>
      <point x="681" y="1506" type="line"/>
      <point x="681" y="1397"/>
      <point x="462" y="932"/>
    </contour>
  </outline>
</glyph>
<glyph name="Y" format="1">
  <advance width="686"/>
  <unicode hex="0059"/>
  <outline>
    <contour>
      <point x="159" y="1546" type="line"/>
      <point x="354" y="926" type="line"/>
      <point x="515" y="1539" type="line"/>
      <point x="635" y="1517" type="line"/>
      <point x="458" y="761.396" type="line"/>
      <point x="458" y="-18" type="line"/>
      <point x="317" y="-18" type="line"/>
      <point x="318.598" y="661.553" type="line"/>
      <point x="24" y="1513" type="line"/>
    </contour>
  </outline>
</glyph>
<glyph name="Z" format="1">
  <advance width="652"/>
  <unicode hex="005A"/>
  <outline>
    <contour>
      <point x="545" y="1505" type="line"/>
      <point x="250" y="85" type="line"/>
      <point x="541" y="85" type="line"/>
      <point x="534.063" y="28.7967" type="line"/>
      <point x="489" y="-11" type="line"/>
      <point x="160" y="-11" type="line"/>
      <point x="85" y="31" type="line"/>
      <point x="406" y="1451" type="line"/>
      <point x="254" y="1451" type="line"/>
      <point x="110" y="1506" type="line"/>
      <point x="110" y="1549" type="line"/>
      <point x="472" y="1549" type="line"/>
    </contour>
  </outline>
</glyph>
<glyph name="bracketleft" format="1">
  <advance width="685"/>
  <unicode hex="005B"/>
  <outline>
    <contour>
      <point x="357.561" y="1465" type="line"/>
      <point x="242.164" y="22.7848" type="line"/>
      <point x="458" y="-28" type="line"/>
      <point x="422" y="-112" type="line"/>
      <point x="119.68" y="-76.2762" type="line"/>
      <point x="226" y="1480" type="line"/>
      <point x="257" y="1596" type="line"/>
      <point x="378" y="1596" type="line"/>
      <point x="560" y="1541" type="line"/>
      <point x="560" y="1465" type="line"/>
    </contour>
  </outline>
</glyph>
<glyph name="backslash" format="1">
  <advance width="737"/>
  <unicode hex="005C"/>
  <outline>
    <contour>
      <point x="197" y="1535" type="line"/>
      <point x="658" y="31" type="line"/>
      <point x="549" y="-30" type="line"/>
      <point x="85" y="1505" type="line"/>
    </contour>
  </outline>
</glyph>
<glyph name="bracketright" format="1">
  <advance width="665"/>
  <unicode hex="005D"/>
  <outline>
    <contour>
      <point x="169" y="-28" type="line"/>
      <point x="427.316" y="6.12814" type="line"/>
      <point x="346.062" y="1474.95" type="line"/>
      <point x="103" y="1454" type="line"/>
      <point x="103" y="1560" type="line"/>
      <point x="422" y="1560" type="line"/>
      <point x="470.251" y="1517.92" type="line"/>
      <point x="545.723" y="-75.2026" type="line"/>
      <point x="169" y="-122" type="line"/>
    </contour>
  </outline>
</glyph>
<glyph name="asciicircum" format="1">
  <advance width="474"/>
  <unicode hex="005E"/>
  <outline>
    <contour>
      <point x="152" y="1575" type="curve" smooth="yes"/>
      <point x="152" y="1612"/>
      <point x="178" y="1656"/>
      <point x="234" y="1656" type="curve" smooth="yes"/>
      <point x="286" y="1656"/>
      <point x="330" y="1623"/>
      <point x="330" y="1583" type="curve" smooth="yes"/>
      <point x="330" y="1546"/>
      <point x="296" y="1515"/>
      <point x="247" y="1515" type="curve" smooth="yes"/>
      <point x="199" y="1515"/>
      <point x="152" y="1534"/>
    </contour>
  </outline>
</glyph>
<glyph name="underscore" format="1">
  <advance width="1556"/>
  <unicode hex="005F"/>
  <outline>
    <contour>
      <point x="192" y="-137" type="curve" smooth="yes"/>
      <point x="156" y="-137"/>
      <point x="126" y="-113"/>
      <point x="126" y="-85" type="curve" smooth="yes"/>
      <point x="126" y="-34"/>
      <point x="270" y="-23"/>
      <point x="409" y="-23" type="curve" smooth="yes"/>
      <point x="554" y="-23"/>
      <point x="714" y="-20"/>
      <point x="773" y="-20" type="curve" smooth="yes"/>
      <point x="1011" y="-20"/>
      <point x="1191" y="0"/>
      <point x="1336" y="0" type="curve" smooth="yes"/>
      <point x="1378" y="0"/>
      <point x="1423" y="-24"/>
      <point x="1423" y="-58" type="curve" smooth="yes"/>
      <point x="1423" y="-109"/>
      <point x="1388" y="-116"/>
      <point x="1295" y="-116" type="curve" smooth="yes"/>
      <point x="1262" y="-116"/>
      <point x="1223" y="-115"/>
      <point x="1175" y="-115" type="curve" smooth="yes"/>
      <point x="824" y="-115"/>
      <point x="435" y="-137"/>
    </contour>
  </outline>
</glyph>
<glyph name="grave" format="1">
  <advance width="771"/>
  <unicode hex="0060"/>
  <outline>
    <contour>
      <point x="624" y="1565" type="line"/>
      <point x="561" y="1525" type="line"/>
      <point x="122.77" y="1642.18" type="line"/>
      <point x="163" y="1726" type="line"/>
    </contour>
  </outline>
</glyph>
<glyph name="a" format="1">
  <advance width="885"/>
  <unicode hex="0061"/>
  <outline>
    <contour>
      <point x="578" y="376" type="line"/>
      <point x="489" y="1038" type="line"/>
      <point x="333" y="408" type="line"/>
    </contour>
    <contour>
      <point x="598" y="1363" type="line"/>
      <point x="804" y="-17" type="line"/>
      <point x="650" y="-19" type="line"/>
      <point x="585" y="295" type="line"/>
      <point x="328" y="295" type="line"/>
      <point x="225" y="-10" type="line"/>
      <point x="80" y="25" type="line"/>
      <point x="430" y="1360" type="line"/>
      <point x="509" y="1363" type="line"/>
    </contour>
  </outline>
</glyph>
<glyph name="b" format="1">
  <advance width="836"/>
  <unicode hex="0062"/>
  <outline>
    <contour>
      <point x="572" y="309" type="curve" smooth="yes"/>
      <point x="572" y="401"/>
      <point x="551" y="620"/>
      <point x="303" y="644" type="curve"/>
      <point x="271.894" y="85.2843" type="line"/>
      <point x="480.894" y="108.284"/>
      <point x="572" y="218"/>
    </contour>
    <contour>
      <point x="532" y="1012" type="curve" smooth="yes"/>
      <point x="532" y="1076"/>
      <point x="485" y="1278"/>
      <point x="300" y="1288" type="curve"/>
      <point x="300" y="763" type="line"/>
      <point x="521" y="766"/>
      <point x="532" y="939"/>
    </contour>
    <contour>
      <point x="698" y="1029" type="curve" smooth="yes"/>
      <point x="698" y="894"/>
      <point x="577" y="808"/>
      <point x="500" y="726" type="curve"/>
      <point x="616" y="641"/>
      <point x="714" y="476"/>
      <point x="714" y="361" type="curve" smooth="yes"/>
      <point x="714" y="168"/>
      <point x="607" y="-19"/>
      <point x="209" y="-19" type="curve"/>
      <point x="126" y="-1" type="line"/>
      <point x="152" y="525" type="line"/>
      <point x="152" y="1329" type="line"/>
      <point x="237" y="1384" type="line"/>
      <point x="520" y="1384"/>
      <point x="698" y="1296"/>
    </contour>
  </outline>
</glyph>
<glyph name="c" format="1">
  <advance width="747"/>
  <unicode hex="0063"/>
  <outline>
    <contour>
      <point x="108" y="615" type="curve" smooth="yes"/>
      <point x="108" y="662" type="line" smooth="yes"/>
      <point x="108" y="1003"/>
      <point x="119" y="1364"/>
      <point x="643" y="1364" type="curve"/>
      <point x="643" y="1263" type="line"/>
      <point x="362" y="1182"/>
      <point x="284" y="1135"/>
      <point x="284" y="827" type="curve" smooth="yes"/>
      <point x="284" y="817" type="line" smooth="yes"/>
      <point x="284" y="685"/>
      <point x="267" y="554"/>
      <point x="267" y="422" type="curve" smooth="yes"/>
      <point x="267" y="289"/>
      <point x="298" y="104"/>
      <point x="473" y="104" type="curve" smooth="yes"/>
      <point x="524" y="104"/>
      <point x="588" y="120"/>
      <point x="666" y="157" type="curve"/>
      <point x="697" y="52" type="line"/>
      <point x="597" y="4"/>
      <point x="514" y="-17"/>
      <point x="444" y="-17" type="curve" smooth="yes"/>
      <point x="165" y="-17"/>
      <point x="109" y="313"/>
      <point x="109" y="495" type="curve" smooth="yes"/>
      <point x="109" y="527"/>
      <point x="108" y="569"/>
    </contour>
  </outline>
</glyph>
<glyph name="d" format="1">
  <advance width="1031"/>
  <unicode hex="0064"/>
  <outline>
    <contour>
      <point x="215" y="1353" type="curve"/>
      <point x="215" y="1352" type="line"/>
      <point x="748" y="1352"/>
      <point x="904" y="1036"/>
      <point x="904" y="704" type="curve" smooth="yes"/>
      <point x="904" y="592" type="line" smooth="yes"/>
      <point x="904" y="340"/>
      <point x="882" y="118"/>
      <point x="446" y="-13" type="curve"/>
      <point x="212" y="-13" type="line" smooth="yes"/>
      <point x="166" y="-13"/>
      <point x="164" y="189"/>
      <point x="164" y="255" type="curve" smooth="yes"/>
      <point x="164" y="470"/>
      <point x="152" y="685"/>
      <point x="152" y="900" type="curve" smooth="yes"/>
      <point x="152" y="1326" type="line" smooth="yes"/>
      <point x="152" y="1341"/>
      <point x="189" y="1353"/>
    </contour>
    <contour>
      <point x="320" y="140" type="curve" smooth="yes"/>
      <point x="320" y="91" type="line"/>
      <point x="401" y="91" type="line"/>
      <point x="720" y="269"/>
      <point x="767" y="373"/>
      <point x="767" y="611" type="curve" smooth="yes"/>
      <point x="767" y="783"/>
      <point x="754" y="1230"/>
      <point x="290" y="1257" type="curve"/>
      <point x="290" y="1044" type="line" smooth="yes"/>
      <point x="290" y="742"/>
      <point x="320" y="442"/>
    </contour>
  </outline>
</glyph>
<glyph name="e" format="1">
  <advance width="681"/>
  <unicode hex="0065"/>
  <outline>
    <contour>
      <point x="145" y="-27" type="line"/>
      <point x="145" y="314"/>
      <point x="162" y="679"/>
      <point x="162" y="1034" type="curve" smooth="yes"/>
      <point x="162" y="1142"/>
      <point x="168" y="1249"/>
      <point x="168" y="1357" type="curve"/>
      <point x="168" y="1355"/>
      <point x="178" y="1352"/>
      <point x="260" y="1352" type="curve" smooth="yes"/>
      <point x="314" y="1352"/>
      <point x="465" y="1339"/>
      <point x="578" y="1311" type="curve"/>
      <point x="578" y="1197" type="line"/>
      <point x="299" y="1236" type="line"/>
      <point x="299" y="822" type="line"/>
      <point x="514" y="822" type="line"/>
      <point x="514" y="713" type="line"/>
      <point x="295" y="713" type="line"/>
      <point x="295" y="77" type="line"/>
      <point x="601" y="77" type="line"/>
      <point x="601" y="-27" type="line"/>
    </contour>
  </outline>
</glyph>
<glyph name="f" format="1">
  <advance width="710"/>
  <unicode hex="0066"/>
  <outline>
    <contour>
      <point x="180" y="1294" type="curve" smooth="yes"/>
      <point x="180" y="1363" type="line"/>
      <point x="630" y="1363" type="line"/>
      <point x="630" y="1223" type="line"/>
      <point x="554" y="1239"/>
      <point x="410" y="1243"/>
      <point x="327" y="1243" type="curve"/>
      <point x="327" y="1219" type="line" smooth="yes"/>
      <point x="327" y="1082"/>
      <point x="303" y="945"/>
      <point x="303" y="808" type="curve" smooth="yes"/>
      <point x="303" y="753" type="line"/>
      <point x="350" y="753"/>
      <point x="413" y="754"/>
      <point x="482" y="754" type="curve"/>
      <point x="482" y="640" type="line"/>
      <point x="426" y="640"/>
      <point x="334" y="645"/>
      <point x="282" y="652" type="curve"/>
      <point x="282" y="-38" type="line" smooth="yes"/>
      <point x="282" y="-34"/>
      <point x="265" y="-30"/>
      <point x="192" y="-30" type="curve"/>
      <point x="118" y="13" type="line"/>
      <point x="167" y="434"/>
      <point x="180" y="867"/>
    </contour>
  </outline>
</glyph>
<glyph name="g" format="1">
  <advance width="1088"/>
  <unicode hex="0067"/>
  <outline>
    <contour>
      <point x="101" y="622" type="curve" smooth="yes"/>
      <point x="101" y="668" type="line" smooth="yes"/>
      <point x="101" y="935"/>
      <point x="111" y="1354"/>
      <point x="596" y="1354" type="curve" smooth="yes"/>
      <point x="665" y="1354"/>
      <point x="756" y="1349"/>
      <point x="846" y="1312" type="curve"/>
      <point x="846" y="1219" type="line"/>
      <point x="767" y="1236"/>
      <point x="682" y="1252"/>
      <point x="623" y="1252" type="curve" smooth="yes"/>
      <point x="269" y="1252"/>
      <point x="260" y="962"/>
      <point x="260" y="629" type="curve" smooth="yes"/>
      <point x="260" y="433"/>
      <point x="274" y="91"/>
      <point x="626" y="91" type="curve" smooth="yes"/>
      <point x="807" y="91"/>
      <point x="819" y="310"/>
      <point x="819" y="413" type="curve" smooth="yes"/>
      <point x="819" y="511" type="line"/>
      <point x="790" y="519"/>
      <point x="758" y="519"/>
      <point x="725" y="519" type="curve" smooth="yes"/>
      <point x="703" y="519"/>
      <point x="534" y="518"/>
      <point x="506" y="518" type="curve"/>
      <point x="506" y="623" type="line"/>
      <point x="630" y="623"/>
      <point x="869" y="629"/>
      <point x="949" y="620" type="curve"/>
      <point x="949" y="411" type="line" smooth="yes"/>
      <point x="949" y="112"/>
      <point x="864" y="-16"/>
      <point x="578" y="-16" type="curve" smooth="yes"/>
      <point x="173" y="-16"/>
      <point x="101" y="411"/>
    </contour>
  </outline>
</glyph>
<glyph name="h" format="1">
  <advance width="987"/>
  <unicode hex="0068"/>
  <outline>
    <contour>
      <point x="694" y="294" type="curve" smooth="yes"/>
      <point x="694" y="396"/>
      <point x="686" y="498"/>
      <point x="686" y="548" type="curve" smooth="yes"/>
      <point x="686" y="556" type="line" smooth="yes"/>
      <point x="686" y="576"/>
      <point x="685" y="595"/>
      <point x="685" y="615" type="curve" smooth="yes"/>
      <point x="685" y="621"/>
      <point x="684" y="628"/>
      <point x="684" y="634" type="curve" smooth="yes"/>
      <point x="684" y="636" type="line"/>
      <point x="665" y="633"/>
      <point x="627" y="632"/>
      <point x="606" y="632" type="curve" smooth="yes"/>
      <point x="501" y="632"/>
      <point x="406" y="649"/>
      <point x="297" y="651" type="curve"/>
      <point x="294" y="576"/>
      <point x="284" y="500"/>
      <point x="284" y="425" type="curve" smooth="yes"/>
      <point x="284" y="416" type="line" smooth="yes"/>
      <point x="284" y="287"/>
      <point x="291" y="158"/>
      <point x="291" y="29" type="curve"/>
      <point x="132" y="5" type="line" smooth="yes"/>
      <point x="137" y="5"/>
      <point x="138" y="134"/>
      <point x="138" y="283" type="curve" smooth="yes"/>
      <point x="138" y="391"/>
      <point x="146" y="509"/>
      <point x="146" y="595" type="curve" smooth="yes"/>
      <point x="146" y="647"/>
      <point x="147" y="680"/>
      <point x="147" y="712" type="curve" smooth="yes"/>
      <point x="147" y="752"/>
      <point x="152" y="792"/>
      <point x="152" y="832" type="curve" smooth="yes"/>
      <point x="152" y="1013"/>
      <point x="134" y="1193"/>
      <point x="134" y="1374" type="curve"/>
      <point x="209" y="1374" type="line"/>
      <point x="302" y="1323" type="line"/>
      <point x="302" y="1123"/>
      <point x="284" y="922"/>
      <point x="284" y="722" type="curve"/>
      <point x="373" y="712"/>
      <point x="462" y="712"/>
      <point x="551" y="712" type="curve" smooth="yes"/>
      <point x="695" y="712" type="line"/>
      <point x="695" y="755" type="line" smooth="yes"/>
      <point x="695" y="961"/>
      <point x="662" y="1164"/>
      <point x="662" y="1370" type="curve"/>
      <point x="802" y="1370" type="line"/>
      <point x="852" y="38" type="line"/>
      <point x="783" y="38" type="line"/>
      <point x="700" y="0" type="line" smooth="yes"/>
      <point x="695" y="-1"/>
      <point x="694" y="148"/>
    </contour>
  </outline>
</glyph>
<glyph name="i" format="1">
  <advance width="723"/>
  <unicode hex="0069"/>
  <outline>
    <contour>
      <point x="369" y="22" type="curve" smooth="yes"/>
      <point x="276" y="22"/>
      <point x="201" y="18"/>
      <point x="123" y="18" type="curve"/>
      <point x="125" y="55" type="line"/>
      <point x="125" y="118" type="line"/>
      <point x="281" y="118" type="line"/>
      <point x="282" y="127"/>
      <point x="286" y="136"/>
      <point x="286" y="145" type="curve" smooth="yes"/>
      <point x="286" y="290"/>
      <point x="268" y="435"/>
      <point x="268" y="580" type="curve" smooth="yes"/>
      <point x="268" y="732"/>
      <point x="282" y="884"/>
      <point x="282" y="1036" type="curve" smooth="yes"/>
      <point x="282" y="1109"/>
      <point x="278" y="1182"/>
      <point x="269" y="1254" type="curve"/>
      <point x="218" y="1254" type="line"/>
      <point x="174" y="1255"/>
      <point x="126" y="1254"/>
      <point x="77" y="1254" type="curve"/>
      <point x="74" y="1309" type="line"/>
      <point x="75" y="1356" type="line"/>
      <point x="227" y="1356" type="line" smooth="yes"/>
      <point x="309" y="1356"/>
      <point x="609" y="1356"/>
      <point x="609" y="1346" type="curve"/>
      <point x="594" y="1248" type="line"/>
      <point x="417" y="1248" type="line"/>
      <point x="425" y="1192"/>
      <point x="428" y="1129"/>
      <point x="428" y="1072" type="curve" smooth="yes"/>
      <point x="428" y="942"/>
      <point x="413" y="811"/>
      <point x="413" y="681" type="curve" smooth="yes"/>
      <point x="413" y="536"/>
      <point x="433" y="391"/>
      <point x="433" y="246" type="curve" smooth="yes"/>
      <point x="433" y="185" type="line" smooth="yes"/>
      <point x="433" y="166"/>
      <point x="428" y="146"/>
      <point x="424" y="130" type="curve"/>
      <point x="577" y="130" type="line"/>
      <point x="576" y="79" type="line"/>
      <point x="595" y="24" type="line"/>
      <point x="553" y="24"/>
      <point x="511" y="23"/>
      <point x="469" y="23" type="curve" smooth="yes"/>
      <point x="448" y="23"/>
      <point x="417" y="22"/>
    </contour>
  </outline>
</glyph>
<glyph name="j" format="1">
  <advance width="745"/>
  <unicode hex="006A"/>
  <outline>
    <contour>
      <point x="138" y="-254" type="curve"/>
      <point x="99" y="-143" type="line"/>
      <point x="328" y="-32"/>
      <point x="348" y="-9"/>
      <point x="344" y="187" type="curve" smooth="yes"/>
      <point x="323" y="1226" type="line"/>
      <point x="323" y="1235" type="line"/>
      <point x="114" y="1245" type="line"/>
      <point x="108" y="1288" type="line"/>
      <point x="111" y="1336" type="line"/>
      <point x="671" y="1323" type="line"/>
      <point x="672" y="1291"/>
      <point x="672" y="1258"/>
      <point x="673" y="1226" type="curve"/>
      <point x="467" y="1230" type="line"/>
      <point x="476" y="949"/>
      <point x="489" y="664"/>
      <point x="489" y="382" type="curve" smooth="yes"/>
      <point x="489" y="353"/>
      <point x="487" y="323"/>
      <point x="487" y="293" type="curve" smooth="yes"/>
      <point x="487" y="233"/>
      <point x="489" y="172"/>
      <point x="489" y="114" type="curve" smooth="yes"/>
      <point x="489" y="-64"/>
      <point x="450" y="-217"/>
    </contour>
  </outline>
</glyph>
<glyph name="k" format="1">
  <advance width="913"/>
  <unicode hex="006B"/>
  <outline>
    <contour>
      <point x="484" y="760" type="curve"/>
      <point x="504" y="718" type="line"/>
      <point x="904" y="39" type="line"/>
      <point x="808" y="-25" type="line"/>
      <point x="669" y="132"/>
      <point x="404" y="546"/>
      <point x="376" y="672" type="curve"/>
      <point x="294" y="523" type="line"/>
      <point x="284" y="-33" type="line"/>
      <point x="225" y="-31" type="line"/>
      <point x="137" y="-16" type="line"/>
      <point x="157" y="656" type="line"/>
      <point x="188" y="1368" type="line"/>
      <point x="336" y="1368" type="line"/>
      <point x="314" y="835" type="line"/>
      <point x="314" y="728" type="line"/>
      <point x="366" y="808"/>
      <point x="656" y="1276"/>
      <point x="722" y="1380" type="curve"/>
      <point x="825" y="1289" type="line"/>
      <point x="825" y="1284"/>
      <point x="521" y="822"/>
    </contour>
  </outline>
</glyph>
<glyph name="l" format="1">
  <advance width="685"/>
  <unicode hex="006C"/>
  <outline>
    <contour>
      <point x="287" y="569" type="line" smooth="yes"/>
      <point x="287" y="544" type="line" smooth="yes"/>
      <point x="277" y="78" type="line"/>
      <point x="366" y="77" type="line"/>
      <point x="587" y="80" type="line"/>
      <point x="610" y="20" type="line"/>
      <point x="619" y="-34" type="line"/>
      <point x="301" y="-10" type="line"/>
      <point x="150" y="-29" type="line"/>
      <point x="135" y="38" type="line"/>
      <point x="161" y="953" type="line"/>
      <point x="161" y="968" type="line"/>
      <point x="153" y="1350" type="line"/>
      <point x="246" y="1354" type="line"/>
      <point x="293" y="1353" type="line"/>
      <point x="295" y="1147" type="line"/>
    </contour>
  </outline>
</glyph>
<glyph name="m" format="1">
  <advance width="1557"/>
  <unicode hex="006D"/>
  <outline>
    <contour>
      <point x="344" y="1351" type="line"/>
      <point x="344" y="1353" type="line"/>
    </contour>
    <contour>
      <point x="1413" y="459" type="curve" smooth="yes"/>
      <point x="1413" y="-28" type="line"/>
      <point x="1261" y="-28" type="line"/>
      <point x="1261" y="78"/>
      <point x="1268" y="177"/>
      <point x="1268" y="283" type="curve" smooth="yes"/>
      <point x="1268" y="402"/>
      <point x="1259" y="521"/>
      <point x="1259" y="639" type="curve" smooth="yes"/>
      <point x="1259" y="794"/>
      <point x="1265" y="1025"/>
      <point x="1265" y="1195" type="curve"/>
      <point x="1208" y="1031"/>
      <point x="991" y="308"/>
      <point x="868" y="94" type="curve"/>
      <point x="778" y="94" type="line"/>
      <point x="698" y="140" type="line"/>
      <point x="594" y="388"/>
      <point x="382" y="1009"/>
      <point x="314" y="1135" type="curve"/>
      <point x="298" y="810"/>
      <point x="280" y="415"/>
      <point x="280" y="89" type="curve" smooth="yes"/>
      <point x="280" y="-32" type="line"/>
      <point x="138" y="-32" type="line" smooth="yes"/>
      <point x="131" y="-32"/>
      <point x="129" y="82"/>
      <point x="129" y="255" type="curve" smooth="yes"/>
      <point x="129" y="588"/>
      <point x="181" y="1095"/>
      <point x="181" y="1340" type="curve"/>
      <point x="235" y="1344"/>
      <point x="290" y="1347"/>
      <point x="344" y="1351" type="curve"/>
      <point x="344" y="1350" type="line"/>
      <point x="449" y="1268"/>
      <point x="730" y="432"/>
      <point x="776" y="242" type="curve"/>
      <point x="823" y="377"/>
      <point x="1069" y="1141"/>
      <point x="1214" y="1347" type="curve"/>
      <point x="1391" y="1291" type="line"/>
      <point x="1391" y="1014"/>
      <point x="1413" y="729"/>
    </contour>
  </outline>
</glyph>
<glyph name="n" format="1">
  <advance width="1307"/>
  <unicode hex="006E"/>
  <outline>
    <contour>
      <point x="284" y="807" type="line" smooth="yes"/>
      <point x="284" y="693"/>
      <point x="304" y="439"/>
      <point x="304" y="277" type="curve" smooth="yes"/>
      <point x="304" y="-45" type="line"/>
      <point x="230" y="-19" type="line"/>
      <point x="143" y="16" type="line"/>
      <point x="143" y="287"/>
      <point x="138" y="558"/>
      <point x="138" y="829" type="curve" smooth="yes"/>
      <point x="138" y="956"/>
      <point x="154" y="1084"/>
      <point x="154" y="1211" type="curve" smooth="yes"/>
      <point x="154" y="1299" type="line"/>
      <point x="331" y="1349" type="line"/>
      <point x="516" y="1181"/>
      <point x="916" y="306"/>
      <point x="1003" y="153" type="curve"/>
      <point x="1016" y="510"/>
      <point x="1018" y="869"/>
      <point x="1018" y="1228" type="curve" smooth="yes"/>
      <point x="1018" y="1283" type="line"/>
      <point x="1188.22" y="1283" type="line"/>
      <point x="1132" y="0" type="line"/>
      <point x="934.741" y="-26.0342" type="line"/>
      <point x="786.741" y="165.966"/>
      <point x="356" y="1087"/>
      <point x="284" y="1203" type="curve"/>
    </contour>
  </outline>
</glyph>
<glyph name="o" format="1">
  <advance width="1122"/>
  <unicode hex="006F"/>
  <outline>
    <contour>
      <point x="256" y="718" type="curve" smooth="yes"/>
      <point x="256" y="614"/>
      <point x="278" y="48"/>
      <point x="540" y="48" type="curve" smooth="yes"/>
      <point x="810" y="48"/>
      <point x="837" y="455"/>
      <point x="837" y="565" type="curve" smooth="yes"/>
      <point x="837" y="616"/>
      <point x="844" y="692"/>
      <point x="844" y="776" type="curve" smooth="yes"/>
      <point x="844" y="1039"/>
      <point x="714" y="1246"/>
      <point x="609" y="1246" type="curve" smooth="yes"/>
      <point x="295" y="1246"/>
      <point x="256" y="990"/>
    </contour>
    <contour>
      <point x="989" y="798" type="curve" smooth="yes"/>
      <point x="989" y="551" type="line" smooth="yes"/>
      <point x="989" y="368"/>
      <point x="971" y="-38"/>
      <point x="559" y="-38" type="curve" smooth="yes"/>
      <point x="148" y="-38"/>
      <point x="109" y="410"/>
      <point x="109" y="626" type="curve" smooth="yes"/>
      <point x="109" y="672"/>
      <point x="108" y="715"/>
      <point x="108" y="751" type="curve" smooth="yes"/>
      <point x="108" y="791" type="line" smooth="yes"/>
      <point x="108" y="1166"/>
      <point x="335" y="1361"/>
      <point x="559" y="1361" type="curve" smooth="yes"/>
      <point x="776" y="1361"/>
      <point x="989" y="1178"/>
    </contour>
  </outline>
</glyph>
<glyph name="p" format="1">
  <advance width="713"/>
  <unicode hex="0070"/>
  <outline>
    <contour>
      <point x="305" y="1228" type="curve"/>
      <point x="305" y="1115" type="line" smooth="yes"/>
      <point x="305" y="987"/>
      <point x="290" y="859"/>
      <point x="290" y="731" type="curve" smooth="yes"/>
      <point x="290" y="713" type="line"/>
      <point x="445" y="729"/>
      <point x="452" y="969"/>
      <point x="452" y="1059" type="curve" smooth="yes"/>
      <point x="452" y="1136"/>
      <point x="435" y="1228"/>
    </contour>
    <contour>
      <point x="159" y="1080" type="curve" smooth="yes"/>
      <point x="157" y="1340" type="line"/>
      <point x="210" y="1342" type="line"/>
      <point x="327" y="1342" type="line" smooth="yes"/>
      <point x="541" y="1342"/>
      <point x="597" y="1180"/>
      <point x="597" y="1044" type="curve" smooth="yes"/>
      <point x="597" y="831"/>
      <point x="593" y="699"/>
      <point x="292" y="628" type="curve"/>
      <point x="292" y="409" type="line" smooth="yes"/>
      <point x="292" y="259"/>
      <point x="283" y="111"/>
      <point x="283" y="-39" type="curve"/>
      <point x="149" y="-39" type="line"/>
      <point x="151" y="128" type="line"/>
      <point x="151" y="303"/>
      <point x="145" y="477"/>
      <point x="145" y="652" type="curve" smooth="yes"/>
      <point x="145" y="714"/>
      <point x="155" y="815"/>
      <point x="155" y="885" type="curve" smooth="yes"/>
      <point x="155" y="944"/>
      <point x="160" y="1012"/>
    </contour>
  </outline>
</glyph>
<glyph name="q" format="1">
  <advance width="1117"/>
  <unicode hex="0071"/>
  <outline>
    <contour>
      <point x="107" y="512" type="curve" smooth="yes"/>
      <point x="107" y="595"/>
      <point x="111" y="678"/>
      <point x="111" y="754" type="curve" smooth="yes"/>
      <point x="111" y="903"/>
      <point x="121" y="1369"/>
      <point x="484" y="1369" type="curve"/>
      <point x="943" y="1265"/>
      <point x="988" y="1092"/>
      <point x="988" y="812" type="curve" smooth="yes"/>
      <point x="988" y="635"/>
      <point x="936" y="0"/>
      <point x="693" y="-79" type="curve"/>
      <point x="759" y="-436" type="line"/>
      <point x="650" y="-481" type="line"/>
      <point x="578" y="-94" type="line"/>
      <point x="352" y="-67"/>
      <point x="107" y="37"/>
    </contour>
    <contour>
      <point x="241" y="699" type="curve" smooth="yes"/>
      <point x="241" y="590"/>
      <point x="241" y="7"/>
      <point x="520" y="6" type="curve"/>
      <point x="559" y="14"/>
      <point x="604" y="18"/>
      <point x="645" y="18" type="curve" smooth="yes"/>
      <point x="735" y="18"/>
      <point x="866" y="386"/>
      <point x="866" y="726" type="curve" smooth="yes"/>
      <point x="866" y="1017"/>
      <point x="771" y="1287"/>
      <point x="474" y="1288" type="curve" smooth="yes"/>
      <point x="283" y="1288"/>
      <point x="241" y="785"/>
    </contour>
  </outline>
</glyph>
<glyph name="r" format="1">
  <advance width="731"/>
  <unicode hex="0072"/>
  <outline>
    <contour>
      <point x="210" y="1365" type="line"/>
      <point x="405.004" y="1359.31"/>
      <point x="678.573" y="1316.25"/>
      <point x="651.319" y="1089.01" type="curve"/>
      <point x="651.319" y="893.53"/>
      <point x="568.093" y="819.003"/>
      <point x="403" y="736" type="curve"/>
      <point x="753" y="104" type="line"/>
      <point x="753" y="17" type="line"/>
      <point x="645.712" y="-34.1295" type="line"/>
      <point x="278" y="689" type="line"/>
      <point x="278" y="-4" type="line"/>
      <point x="214" y="-4" type="line"/>
      <point x="170.573" y="-3.79675" type="line"/>
      <point x="122" y="1328" type="line"/>
    </contour>
    <contour>
      <point x="257" y="1260" type="curve" smooth="yes"/>
      <point x="257" y="1102"/>
      <point x="266" y="945"/>
      <point x="268" y="787" type="curve"/>
      <point x="466.731" y="839.873"/>
      <point x="518.369" y="952.581"/>
      <point x="518.369" y="1065.28" type="curve"/>
      <point x="522.554" y="1212.74"/>
      <point x="409.856" y="1284.3"/>
      <point x="266" y="1289" type="curve"/>
      <point x="264" y="1280"/>
      <point x="257" y="1269"/>
    </contour>
  </outline>
</glyph>
<glyph name="s" format="1">
  <advance width="659"/>
  <unicode hex="0073"/>
  <outline>
    <contour>
      <point x="236" y="1075" type="curve" smooth="yes"/>
      <point x="236" y="811"/>
      <point x="555" y="689"/>
      <point x="555" y="342" type="curve" smooth="yes"/>
      <point x="555" y="191"/>
      <point x="479" y="-28"/>
      <point x="240" y="-28" type="curve" smooth="yes"/>
      <point x="183" y="-28"/>
      <point x="143" y="-16"/>
      <point x="85" y="12" type="curve"/>
      <point x="105" y="86" type="line"/>
      <point x="141" y="82"/>
      <point x="208" y="71"/>
      <point x="245" y="71" type="curve" smooth="yes"/>
      <point x="390" y="71"/>
      <point x="425" y="286"/>
      <point x="425" y="367" type="curve" smooth="yes"/>
      <point x="425" y="631"/>
      <point x="106" y="790"/>
      <point x="106" y="1086" type="curve" smooth="yes"/>
      <point x="106" y="1194"/>
      <point x="170" y="1381"/>
      <point x="347" y="1381" type="curve" smooth="yes"/>
      <point x="404" y="1381"/>
      <point x="481" y="1366"/>
      <point x="518" y="1337" type="curve"/>
      <point x="493" y="1241" type="line"/>
      <point x="464" y="1255"/>
      <point x="408" y="1272"/>
      <point x="384" y="1272" type="curve" smooth="yes"/>
      <point x="287" y="1272"/>
      <point x="236" y="1165"/>
    </contour>
  </outline>
</glyph>
<glyph name="t" format="1">
  <advance width="724"/>
  <unicode hex="0074"/>
  <outline>
    <contour>
      <point x="343" y="260" type="curve"/>
      <point x="334" y="299"/>
      <point x="297" y="1154"/>
      <point x="295" y="1255" type="curve"/>
      <point x="241" y="1255"/>
      <point x="69" y="1255"/>
      <point x="69" y="1266" type="curve" smooth="yes"/>
      <point x="74" y="1360" type="line"/>
      <point x="515" y="1341" type="line"/>
      <point x="640" y="1342" type="line"/>
      <point x="641" y="1293" type="line"/>
      <point x="635" y="1237" type="line"/>
      <point x="575" y="1237"/>
      <point x="518" y="1247"/>
      <point x="460" y="1251" type="curve"/>
      <point x="459" y="1245"/>
      <point x="455" y="1237"/>
      <point x="455" y="1230" type="curve" smooth="yes"/>
      <point x="455" y="821"/>
      <point x="494" y="416"/>
      <point x="494" y="7" type="curve"/>
      <point x="433" y="6" type="line"/>
      <point x="343" y="6" type="line"/>
      <point x="343" y="58"/>
      <point x="338" y="138"/>
      <point x="338" y="190" type="curve" smooth="yes"/>
      <point x="338" y="213"/>
      <point x="342" y="237"/>
    </contour>
  </outline>
</glyph>
<glyph name="u" format="1">
  <advance width="1024"/>
  <unicode hex="0075"/>
  <outline>
    <contour>
      <point x="457" y="106" type="curve" smooth="yes"/>
      <point x="748" y="106"/>
      <point x="745" y="427"/>
      <point x="745" y="970" type="curve" smooth="yes"/>
      <point x="745" y="1307" type="line"/>
      <point x="744" y="1411" type="line"/>
      <point x="816" y="1389" type="line"/>
      <point x="879" y="1360" type="line"/>
      <point x="879" y="1268"/>
      <point x="880" y="1174"/>
      <point x="880" y="1084" type="curve" smooth="yes"/>
      <point x="880" y="833" type="line" smooth="yes"/>
      <point x="880" y="479"/>
      <point x="857" y="-31"/>
      <point x="478" y="-31" type="curve" smooth="yes"/>
      <point x="164" y="-31"/>
      <point x="131" y="257"/>
      <point x="131" y="473" type="curve" smooth="yes"/>
      <point x="131" y="693"/>
      <point x="146" y="821"/>
      <point x="146" y="1013" type="curve" smooth="yes"/>
      <point x="146" y="1114"/>
      <point x="145" y="1213"/>
      <point x="143" y="1306" type="curve"/>
      <point x="143" y="1355" type="line"/>
      <point x="291" y="1372" type="line"/>
      <point x="291" y="341" type="line" smooth="yes"/>
      <point x="291" y="206"/>
      <point x="324" y="106"/>
    </contour>
  </outline>
</glyph>
<glyph name="v" format="1">
  <advance width="961"/>
  <unicode hex="0076"/>
  <outline>
    <contour>
      <point x="207" y="1366" type="line"/>
      <point x="208" y="1366" type="line"/>
      <point x="208" y="1366"/>
      <point x="469" y="402"/>
      <point x="493" y="247" type="curve"/>
      <point x="593" y="629"/>
      <point x="655" y="1004"/>
      <point x="736" y="1378" type="curve"/>
      <point x="796" y="1378" type="line"/>
      <point x="826" y="1375"/>
      <point x="857" y="1377"/>
      <point x="857" y="1351" type="curve" smooth="yes"/>
      <point x="857" y="1167"/>
      <point x="590" y="70"/>
      <point x="571" y="16" type="curve"/>
      <point x="391" y="7" type="line"/>
      <point x="330" y="234"/>
      <point x="200" y="916"/>
      <point x="82" y="1319" type="curve"/>
    </contour>
  </outline>
</glyph>
<glyph name="w" format="1">
  <advance width="1267"/>
  <unicode hex="0077"/>
  <outline>
    <contour>
      <point x="1001.59" y="-49.7626" type="line"/>
      <point x="863" y="-48" type="line"/>
      <point x="576" y="1052" type="line"/>
      <point x="429" y="-51" type="line"/>
      <point x="280" y="-51" type="line"/>
      <point x="78" y="1293" type="line"/>
      <point x="226" y="1329" type="line"/>
      <point x="359" y="283" type="line"/>
      <point x="486.096" y="1208.06" type="line"/>
      <point x="667" y="1210" type="line"/>
      <point x="747" y="911"/>
      <point x="815" y="610"/>
      <point x="891" y="307" type="curve"/>
      <point x="1007.92" y="1376.68" type="line"/>
      <point x="1153.25" y="1377.82" type="line"/>
    </contour>
  </outline>
</glyph>
<glyph name="x" format="1">
  <advance width="698"/>
  <unicode hex="0078"/>
  <outline>
    <contour>
      <point x="444" y="1340" type="line"/>
      <point x="599" y="1322" type="line"/>
      <point x="529" y="1109" type="line"/>
      <point x="488" y="1021"/>
      <point x="410" y="741"/>
      <point x="410" y="646" type="curve"/>
      <point x="599" y="54" type="line"/>
      <point x="478" y="3" type="line"/>
      <point x="343" y="433" type="line"/>
      <point x="278" y="93" type="line"/>
      <point x="250" y="-11" type="line"/>
      <point x="211" y="-7" type="line"/>
      <point x="130" y="40" type="line"/>
      <point x="280" y="660" type="line"/>
      <point x="143" y="1169" type="line"/>
      <point x="126" y="1210"/>
      <point x="109" y="1251"/>
      <point x="91" y="1292" type="curve"/>
      <point x="210" y="1344" type="line"/>
      <point x="252" y="1222"/>
      <point x="330" y="981"/>
      <point x="347" y="894" type="curve"/>
      <point x="375" y="1003"/>
      <point x="408" y="1164"/>
      <point x="422" y="1238" type="curve"/>
    </contour>
  </outline>
</glyph>
<glyph name="y" format="1">
  <advance width="763"/>
  <unicode hex="0079"/>
  <outline>
    <contour>
      <point x="373" y="564" type="line"/>
      <point x="331" y="706"/>
      <point x="93" y="1225"/>
      <point x="92" y="1228" type="curve" smooth="yes"/>
      <point x="52" y="1299" type="line"/>
      <point x="182" y="1373" type="line"/>
      <point x="267" y="1206"/>
      <point x="401" y="890"/>
      <point x="436" y="797" type="curve"/>
      <point x="466" y="887"/>
      <point x="531" y="1207"/>
      <point x="594" y="1362" type="curve"/>
      <point x="729" y="1339" type="line"/>
      <point x="644" y="1018"/>
      <point x="516" y="750"/>
      <point x="509" y="436" type="curve" smooth="yes"/>
      <point x="499" y="-11" type="line"/>
      <point x="417" y="-18" type="line"/>
      <point x="368" y="-23" type="line"/>
    </contour>
  </outline>
</glyph>
<glyph name="z" format="1">
  <advance width="723"/>
  <unicode hex="007A"/>
  <outline>
    <contour>
      <point x="623" y="1302" type="line"/>
      <point x="242" y="107" type="line"/>
      <point x="287" y="107" type="line"/>
      <point x="503" y="111" type="line"/>
      <point x="507" y="62" type="line"/>
      <point x="514" y="12" type="line"/>
      <point x="163" y="-4" type="line"/>
      <point x="91" y="48" type="line"/>
      <point x="485" y="1256" type="line"/>
      <point x="195" y="1244" type="line"/>
      <point x="199" y="1301" type="line"/>
      <point x="199" y="1359" type="line"/>
      <point x="561" y="1359" type="line"/>
    </contour>
  </outline>
</glyph>
<glyph name="braceleft" format="1">
  <advance width="787"/>
  <unicode hex="007B"/>
  <outline>
    <contour>
      <point x="526" y="-48" type="curve"/>
      <point x="526" y="-49" type="line"/>
      <point x="311" y="-49"/>
      <point x="263" y="51"/>
      <point x="263" y="197" type="curve" smooth="yes"/>
      <point x="263" y="620" type="line"/>
      <point x="262" y="784"/>
      <point x="81" y="672"/>
      <point x="81" y="765" type="curve" smooth="yes"/>
      <point x="81" y="865"/>
      <point x="262" y="753"/>
      <point x="262" y="915" type="curve" smooth="yes"/>
      <point x="262" y="957"/>
      <point x="249" y="1053"/>
      <point x="249" y="1129" type="curve" smooth="yes"/>
      <point x="249" y="1172"/>
      <point x="253" y="1208"/>
      <point x="266" y="1225" type="curve"/>
      <point x="262" y="1243"/>
      <point x="259" y="1261"/>
      <point x="259" y="1279" type="curve" smooth="yes"/>
      <point x="259" y="1398"/>
      <point x="348" y="1494"/>
      <point x="526" y="1494" type="curve" smooth="yes"/>
      <point x="570" y="1494"/>
      <point x="712" y="1481"/>
      <point x="712" y="1434" type="curve" smooth="yes"/>
      <point x="712" y="1403"/>
      <point x="673" y="1388"/>
      <point x="637" y="1388" type="curve" smooth="yes"/>
      <point x="592" y="1388"/>
      <point x="552" y="1407"/>
      <point x="506" y="1407" type="curve" smooth="yes"/>
      <point x="379" y="1407"/>
      <point x="379" y="1221"/>
      <point x="379" y="1156" type="curve" smooth="yes"/>
      <point x="379" y="1105"/>
      <point x="389" y="1023"/>
      <point x="389" y="946" type="curve" smooth="yes"/>
      <point x="389" y="874"/>
      <point x="380" y="805"/>
      <point x="342" y="767" type="curve"/>
      <point x="384" y="727"/>
      <point x="390" y="671"/>
      <point x="390" y="621" type="curve" smooth="yes"/>
      <point x="390" y="179" type="line" smooth="yes"/>
      <point x="390" y="116"/>
      <point x="402" y="39"/>
      <point x="506" y="39" type="curve" smooth="yes"/>
      <point x="561" y="39"/>
      <point x="609" y="62"/>
      <point x="663" y="62" type="curve" smooth="yes"/>
      <point x="679" y="62"/>
      <point x="686" y="25"/>
      <point x="686" y="16" type="curve" smooth="yes"/>
      <point x="686" y="-36"/>
      <point x="575" y="-48"/>
    </contour>
  </outline>
</glyph>
<glyph name="bar" format="1">
  <advance width="457"/>
  <unicode hex="007C"/>
  <outline>
    <contour>
      <point x="173" y="114" type="curve" smooth="yes"/>
      <point x="173" y="580"/>
      <point x="155" y="1045"/>
      <point x="155" y="1510" type="curve" smooth="yes"/>
      <point x="155" y="1556"/>
      <point x="185" y="1584"/>
      <point x="247" y="1584" type="curve" smooth="yes"/>
      <point x="281" y="1584"/>
      <point x="302" y="1556"/>
      <point x="302" y="1533" type="curve" smooth="yes"/>
      <point x="302" y="1148"/>
      <point x="311" y="763"/>
      <point x="311" y="379" type="curve" smooth="yes"/>
      <point x="311" y="-29" type="line" smooth="yes"/>
      <point x="311" y="-57"/>
      <point x="276" y="-80"/>
      <point x="240" y="-80" type="curve" smooth="yes"/>
      <point x="172" y="-80"/>
      <point x="173" y="82"/>
    </contour>
  </outline>
</glyph>
<glyph name="braceright" format="1">
  <advance width="782"/>
  <unicode hex="007D"/>
  <outline>
    <contour>
      <point x="271" y="1495" type="curve" smooth="yes"/>
      <point x="483" y="1495"/>
      <point x="534" y="1394"/>
      <point x="534" y="1249" type="curve" smooth="yes"/>
      <point x="534" y="876" type="line" smooth="yes"/>
      <point x="534" y="712"/>
      <point x="703" y="821"/>
      <point x="703" y="731" type="curve" smooth="yes"/>
      <point x="703" y="630"/>
      <point x="535" y="745"/>
      <point x="535" y="581" type="curve" smooth="yes"/>
      <point x="535" y="538"/>
      <point x="545" y="421"/>
      <point x="545" y="330" type="curve" smooth="yes"/>
      <point x="545" y="279"/>
      <point x="543" y="236"/>
      <point x="531" y="221" type="curve"/>
      <point x="535" y="202"/>
      <point x="536" y="184"/>
      <point x="536" y="166" type="curve" smooth="yes"/>
      <point x="536" y="47"/>
      <point x="449" y="-48"/>
      <point x="271" y="-48" type="curve" smooth="yes"/>
      <point x="227" y="-48"/>
      <point x="85" y="-35"/>
      <point x="85" y="12" type="curve" smooth="yes"/>
      <point x="85" y="43"/>
      <point x="124" y="58"/>
      <point x="159" y="58" type="curve" smooth="yes"/>
      <point x="205" y="58"/>
      <point x="245" y="39"/>
      <point x="290" y="39" type="curve" smooth="yes"/>
      <point x="417" y="39"/>
      <point x="418" y="224"/>
      <point x="418" y="289" type="curve" smooth="yes"/>
      <point x="418" y="346"/>
      <point x="405" y="443"/>
      <point x="405" y="534" type="curve" smooth="yes"/>
      <point x="405" y="615"/>
      <point x="415" y="691"/>
      <point x="454" y="729" type="curve"/>
      <point x="413" y="770"/>
      <point x="406" y="825"/>
      <point x="406" y="875" type="curve" smooth="yes"/>
      <point x="406" y="915"/>
      <point x="419" y="1021"/>
      <point x="419" y="1127" type="curve" smooth="yes"/>
      <point x="419" y="1267"/>
      <point x="397" y="1408"/>
      <point x="290" y="1408" type="curve" smooth="yes"/>
      <point x="236" y="1408"/>
      <point x="188" y="1385"/>
      <point x="133" y="1385" type="curve" smooth="yes"/>
      <point x="118" y="1385"/>
      <point x="111" y="1422"/>
      <point x="111" y="1431" type="curve" smooth="yes"/>
      <point x="111" y="1483"/>
      <point x="222" y="1495"/>
    </contour>
  </outline>
</glyph>
<glyph name="exclamdown" format="1">
  <advance width="460"/>
  <unicode hex="00A1"/>
  <outline>
    <contour>
      <point x="168" y="1038" type="curve" smooth="yes"/>
      <point x="168" y="1052"/>
      <point x="166" y="1074"/>
      <point x="166" y="1099" type="curve" smooth="yes"/>
      <point x="166" y="1165"/>
      <point x="173" y="1250"/>
      <point x="217" y="1250" type="curve" smooth="yes"/>
      <point x="269" y="1250"/>
      <point x="290" y="1127"/>
      <point x="290" y="1074" type="curve" smooth="yes"/>
      <point x="290" y="714"/>
      <point x="343" y="357"/>
      <point x="343" y="-2" type="curve" smooth="yes"/>
      <point x="343" y="-30"/>
      <point x="315" y="-52"/>
      <point x="278" y="-52" type="curve" smooth="yes"/>
      <point x="224" y="-52"/>
      <point x="165" y="-17"/>
      <point x="165" y="27" type="curve" smooth="yes"/>
      <point x="165" y="251"/>
      <point x="178" y="475"/>
      <point x="178" y="699" type="curve" smooth="yes"/>
      <point x="178" y="806"/>
      <point x="168" y="924"/>
    </contour>
    <contour>
      <point x="215" y="1395" type="curve" smooth="yes"/>
      <point x="157" y="1395"/>
      <point x="104" y="1438"/>
      <point x="104" y="1481" type="curve" smooth="yes"/>
      <point x="104" y="1487" type="line" smooth="yes"/>
      <point x="104" y="1532"/>
      <point x="133" y="1572"/>
      <point x="205" y="1572" type="curve" smooth="yes"/>
      <point x="269" y="1572"/>
      <point x="324" y="1549"/>
      <point x="324" y="1494" type="curve" smooth="yes"/>
      <point x="324" y="1443"/>
      <point x="286" y="1395"/>
    </contour>
  </outline>
</glyph>
<glyph name="cent" format="1">
  <advance width="929"/>
  <unicode hex="00A2"/>
  <outline>
    <contour>
      <point x="488" y="1371" type="line"/>
      <point x="486" y="1371" type="line"/>
      <point x="486" y="1184"/>
      <point x="674" y="1227"/>
      <point x="737" y="1140" type="curve"/>
      <point x="741" y="1135" type="line"/>
      <point x="741" y="1114"/>
      <point x="715" y="1084"/>
      <point x="684" y="1084" type="curve" smooth="yes"/>
      <point x="642" y="1084"/>
      <point x="610" y="1112"/>
      <point x="595" y="1140" type="curve"/>
      <point x="520" y="1140" type="line"/>
      <point x="542" y="919"/>
      <point x="590" y="595"/>
      <point x="590" y="403" type="curve" smooth="yes"/>
      <point x="590" y="399"/>
      <point x="592" y="395"/>
      <point x="593" y="391" type="curve"/>
      <point x="694" y="395"/>
      <point x="740" y="452"/>
      <point x="790" y="511" type="curve"/>
      <point x="844" y="511"/>
      <point x="867" y="492"/>
      <point x="867" y="451" type="curve" smooth="yes"/>
      <point x="867" y="373"/>
      <point x="681" y="307"/>
      <point x="592" y="301" type="curve"/>
      <point x="592" y="222" type="line" smooth="yes"/>
      <point x="592" y="157"/>
      <point x="610" y="93"/>
      <point x="610" y="28" type="curve" smooth="yes"/>
      <point x="610" y="2"/>
      <point x="581" y="-20"/>
      <point x="547" y="-20" type="curve"/>
      <point x="519" y="9"/>
      <point x="506" y="17"/>
      <point x="506" y="65" type="curve" smooth="yes"/>
      <point x="506" y="111"/>
      <point x="495" y="156"/>
      <point x="495" y="202" type="curve" smooth="yes"/>
      <point x="495" y="239"/>
      <point x="489" y="276"/>
      <point x="484" y="313" type="curve"/>
      <point x="121" y="402"/>
      <point x="117" y="560"/>
      <point x="117" y="777" type="curve" smooth="yes"/>
      <point x="117" y="943"/>
      <point x="124" y="1156"/>
      <point x="359" y="1254" type="curve"/>
      <point x="352" y="1292"/>
      <point x="339" y="1330"/>
      <point x="339" y="1368" type="curve" smooth="yes"/>
      <point x="339" y="1403"/>
      <point x="350" y="1456"/>
      <point x="430" y="1456" type="curve"/>
      <point x="486" y="1434"/>
      <point x="488" y="1423"/>
      <point x="488" y="1379" type="curve" smooth="yes"/>
    </contour>
    <contour>
      <point x="380" y="1150" type="curve"/>
      <point x="274" y="1068"/>
      <point x="246" y="889"/>
      <point x="246" y="790" type="curve" smooth="yes"/>
      <point x="246" y="695"/>
      <point x="256" y="427"/>
      <point x="489" y="406" type="curve"/>
      <point x="477" y="547"/>
      <point x="421" y="908"/>
    </contour>
  </outline>
</glyph>
<glyph name="sterling" format="1">
  <advance width="998"/>
  <unicode hex="00A3"/>
  <outline>
    <contour>
      <point x="338" y="382" type="curve" smooth="yes"/>
      <point x="338" y="565"/>
      <point x="142" y="785"/>
      <point x="142" y="918" type="curve" smooth="yes"/>
      <point x="142" y="937"/>
      <point x="155" y="956"/>
      <point x="177" y="966" type="curve"/>
      <point x="173" y="1057"/>
      <point x="145" y="1147"/>
      <point x="145" y="1238" type="curve" smooth="yes"/>
      <point x="145" y="1329"/>
      <point x="164" y="1632"/>
      <point x="333" y="1632" type="curve" smooth="yes"/>
      <point x="418" y="1632" type="line" smooth="yes"/>
      <point x="522" y="1632"/>
      <point x="635" y="1474"/>
      <point x="635" y="1403" type="curve" smooth="yes"/>
      <point x="635" y="1394" type="line"/>
      <point x="593" y="1359" type="line"/>
      <point x="523" y="1359"/>
      <point x="518" y="1380"/>
      <point x="488" y="1422" type="curve"/>
      <point x="488" y="1459" type="line"/>
      <point x="477" y="1475"/>
      <point x="470" y="1492"/>
      <point x="464" y="1509" type="curve"/>
      <point x="448" y="1523"/>
      <point x="414" y="1536"/>
      <point x="388" y="1539" type="curve"/>
      <point x="388" y="1519" type="line"/>
      <point x="351" y="1486"/>
      <point x="273" y="1318"/>
      <point x="273" y="1270" type="curve" smooth="yes"/>
      <point x="273" y="1243" type="line" smooth="yes"/>
      <point x="273" y="1154"/>
      <point x="275" y="1062"/>
      <point x="298" y="976" type="curve"/>
      <point x="388" y="979"/>
      <point x="475" y="1002"/>
      <point x="565" y="1002" type="curve" smooth="yes"/>
      <point x="600" y="1002"/>
      <point x="632" y="980"/>
      <point x="632" y="952" type="curve" smooth="yes"/>
      <point x="632" y="873"/>
      <point x="393" y="891"/>
      <point x="325" y="883" type="curve"/>
      <point x="366" y="717"/>
      <point x="464" y="548"/>
      <point x="464" y="378" type="curve" smooth="yes"/>
      <point x="464" y="305"/>
      <point x="431" y="238"/>
      <point x="403" y="169" type="curve"/>
      <point x="520" y="162"/>
      <point x="631" y="125"/>
      <point x="748" y="125" type="curve" smooth="yes"/>
      <point x="789" y="125"/>
      <point x="831" y="130"/>
      <point x="869" y="144" type="curve"/>
      <point x="932" y="109" type="line"/>
      <point x="932" y="41"/>
      <point x="867" y="27"/>
      <point x="795" y="27" type="curve" smooth="yes"/>
      <point x="748" y="27"/>
      <point x="700" y="34"/>
      <point x="665" y="34" type="curve" smooth="yes"/>
      <point x="579" y="34" type="line"/>
      <point x="541" y="45"/>
      <point x="462" y="71"/>
      <point x="405" y="71" type="curve" smooth="yes"/>
      <point x="357" y="71"/>
      <point x="211" y="21"/>
      <point x="165" y="2" type="curve"/>
      <point x="165" y="6" type="line"/>
      <point x="133" y="8"/>
      <point x="90" y="23"/>
      <point x="90" y="53" type="curve" smooth="yes"/>
      <point x="90" y="142"/>
      <point x="338" y="200"/>
    </contour>
  </outline>
</glyph>
<glyph name="currency" format="1">
  <advance width="1579"/>
  <unicode hex="00A4"/>
  <outline>
    <contour>
      <point x="1298" y="779" type="curve"/>
      <point x="1301" y="778" type="line"/>
      <point x="1301" y="957"/>
      <point x="1157" y="1180"/>
      <point x="761" y="1180" type="curve" smooth="yes"/>
      <point x="702" y="1180"/>
      <point x="555" y="1120"/>
      <point x="517" y="1099" type="curve"/>
      <point x="517" y="1085" type="line" smooth="yes"/>
      <point x="517" y="1076"/>
      <point x="518" y="1066"/>
      <point x="518" y="1056" type="curve" smooth="yes"/>
      <point x="518" y="1032"/>
      <point x="508" y="1009"/>
      <point x="442" y="1009" type="curve" smooth="yes"/>
      <point x="384" y="1009"/>
      <point x="314" y="774"/>
      <point x="314" y="696" type="curve" smooth="yes"/>
      <point x="314" y="687"/>
      <point x="325" y="678"/>
      <point x="325" y="669" type="curve" smooth="yes"/>
      <point x="325" y="641"/>
      <point x="314" y="614"/>
      <point x="314" y="585" type="curve" smooth="yes"/>
      <point x="314" y="527"/>
      <point x="330" y="462"/>
      <point x="438" y="421" type="curve"/>
      <point x="438" y="332"/>
      <point x="604" y="305"/>
      <point x="780" y="305" type="curve" smooth="yes"/>
      <point x="1215" y="305"/>
      <point x="1298" y="640"/>
    </contour>
    <contour>
      <point x="1299" y="251" type="curve" smooth="yes"/>
      <point x="1300" y="293" type="line"/>
      <point x="1151" y="235"/>
      <point x="899" y="205"/>
      <point x="699" y="205" type="curve" smooth="yes"/>
      <point x="540" y="205"/>
      <point x="391" y="243"/>
      <point x="296" y="290" type="curve"/>
      <point x="274" y="253"/>
      <point x="248" y="201"/>
      <point x="184" y="201" type="curve" smooth="yes"/>
      <point x="127" y="201"/>
      <point x="101" y="236"/>
      <point x="101" y="276" type="curve" smooth="yes"/>
      <point x="101" y="315"/>
      <point x="186" y="360"/>
      <point x="213" y="392" type="curve"/>
      <point x="175" y="446"/>
      <point x="171" y="507"/>
      <point x="171" y="567" type="curve" smooth="yes"/>
      <point x="171" y="692"/>
      <point x="176" y="977"/>
      <point x="265" y="1078" type="curve"/>
      <point x="235" y="1119"/>
      <point x="139" y="1160"/>
      <point x="139" y="1209" type="curve" smooth="yes"/>
      <point x="139" y="1235"/>
      <point x="169" y="1255"/>
      <point x="201" y="1255" type="curve" smooth="yes"/>
      <point x="269" y="1255"/>
      <point x="306" y="1209"/>
      <point x="362" y="1172" type="curve"/>
      <point x="423" y="1202"/>
      <point x="561" y="1285"/>
      <point x="657" y="1285" type="curve" smooth="yes"/>
      <point x="838" y="1285"/>
      <point x="1014" y="1259"/>
      <point x="1166" y="1216" type="curve"/>
      <point x="1242" y="1260"/>
      <point x="1301" y="1351"/>
      <point x="1389" y="1351" type="curve"/>
      <point x="1458" y="1304" type="line"/>
      <point x="1453" y="1241"/>
      <point x="1335" y="1165"/>
      <point x="1335" y="1141" type="curve" smooth="yes"/>
      <point x="1335" y="1019"/>
      <point x="1452" y="902"/>
      <point x="1452" y="772" type="curve" smooth="yes"/>
      <point x="1452" y="643"/>
      <point x="1365" y="525"/>
      <point x="1365" y="396" type="curve" smooth="yes"/>
      <point x="1365" y="335"/>
      <point x="1465" y="308"/>
      <point x="1465" y="247" type="curve" smooth="yes"/>
      <point x="1465" y="219"/>
      <point x="1436" y="195"/>
      <point x="1400" y="195" type="curve" smooth="yes"/>
      <point x="1354" y="195"/>
      <point x="1298" y="212"/>
    </contour>
  </outline>
</glyph>
<glyph name="yen" format="1">
  <advance width="1428"/>
  <unicode hex="00A5"/>
  <outline>
    <contour>
      <point x="735" y="1071" type="line"/>
      <point x="737" y="1071" type="line"/>
      <point x="622" y="1153"/>
      <point x="64" y="1604"/>
      <point x="64" y="1737" type="curve" smooth="yes"/>
      <point x="64" y="1762"/>
      <point x="93" y="1774"/>
      <point x="145" y="1774" type="curve" smooth="yes"/>
      <point x="273" y="1774"/>
      <point x="721" y="1293"/>
      <point x="801" y="1207" type="curve"/>
      <point x="849" y="1302"/>
      <point x="1060" y="1832"/>
      <point x="1186" y="1832" type="curve" smooth="yes"/>
      <point x="1225" y="1832"/>
      <point x="1261" y="1809"/>
      <point x="1261" y="1778" type="curve" smooth="yes"/>
      <point x="1261" y="1768" type="line"/>
      <point x="1153" y="1536"/>
      <point x="1010" y="1307"/>
      <point x="901" y="1059" type="curve"/>
      <point x="961" y="1059"/>
      <point x="1107" y="1066"/>
      <point x="1186" y="1066" type="curve" smooth="yes"/>
      <point x="1273" y="1066"/>
      <point x="1351" y="1054"/>
      <point x="1351" y="1005" type="curve" smooth="yes"/>
      <point x="1351" y="963"/>
      <point x="1257" y="957"/>
      <point x="1204" y="957" type="curve" smooth="yes"/>
      <point x="888" y="957" type="line"/>
      <point x="888" y="887" type="line"/>
      <point x="958" y="887"/>
      <point x="1094" y="889"/>
      <point x="1202" y="889" type="curve" smooth="yes"/>
      <point x="1273" y="889"/>
      <point x="1345" y="876"/>
      <point x="1345" y="820" type="curve" smooth="yes"/>
      <point x="1345" y="797"/>
      <point x="1307" y="780"/>
      <point x="1272" y="780" type="curve" smooth="yes"/>
      <point x="1126" y="780"/>
      <point x="1135" y="780"/>
      <point x="882" y="776" type="curve"/>
      <point x="880" y="564"/>
      <point x="841" y="354"/>
      <point x="841" y="142" type="curve" smooth="yes"/>
      <point x="841" y="128"/>
      <point x="843" y="111"/>
      <point x="843" y="94" type="curve" smooth="yes"/>
      <point x="843" y="45"/>
      <point x="832" y="-8"/>
      <point x="753" y="-8" type="curve" smooth="yes"/>
      <point x="705" y="-8"/>
      <point x="626" y="6"/>
      <point x="626" y="40" type="curve" smooth="yes"/>
      <point x="626" y="45" type="line"/>
      <point x="683" y="112"/>
      <point x="718" y="663"/>
      <point x="718" y="773" type="curve"/>
      <point x="275" y="773" type="line"/>
      <point x="224" y="774"/>
      <point x="194" y="809"/>
      <point x="194" y="838" type="curve" smooth="yes"/>
      <point x="194" y="854"/>
      <point x="203" y="869"/>
      <point x="225" y="875" type="curve"/>
      <point x="350" y="875"/>
      <point x="533" y="878"/>
      <point x="735" y="883" type="curve"/>
      <point x="737" y="907"/>
      <point x="737" y="934"/>
      <point x="737" y="958" type="curve"/>
      <point x="414" y="958" type="line" smooth="yes"/>
      <point x="312" y="958"/>
      <point x="230" y="968"/>
      <point x="230" y="1010" type="curve" smooth="yes"/>
      <point x="230" y="1049"/>
      <point x="282" y="1057"/>
      <point x="336" y="1057" type="curve" smooth="yes"/>
      <point x="379" y="1057"/>
      <point x="453" y="1052"/>
      <point x="520" y="1052" type="curve" smooth="yes"/>
      <point x="593" y="1052"/>
      <point x="663" y="1054"/>
      <point x="735" y="1059" type="curve"/>
    </contour>
  </outline>
</glyph>
<glyph name="brokenbar" format="1">
  <advance width="442"/>
  <unicode hex="00A6"/>
  <outline>
    <contour>
      <point x="217" y="695" type="curve" smooth="yes"/>
      <point x="277" y="695"/>
      <point x="296" y="662"/>
      <point x="296" y="621" type="curve" smooth="yes"/>
      <point x="296" y="-16" type="line" smooth="yes"/>
      <point x="296" y="-50"/>
      <point x="283" y="-80"/>
      <point x="233" y="-80" type="curve" smooth="yes"/>
      <point x="196" y="-80"/>
      <point x="165" y="-57"/>
      <point x="165" y="-29" type="curve" smooth="yes"/>
      <point x="165" y="644" type="line" smooth="yes"/>
      <point x="165" y="668"/>
      <point x="183" y="695"/>
    </contour>
    <contour>
      <point x="158" y="1020" type="curve" smooth="yes"/>
      <point x="158" y="1183"/>
      <point x="148" y="1348"/>
      <point x="148" y="1510" type="curve" smooth="yes"/>
      <point x="148" y="1556"/>
      <point x="178" y="1584"/>
      <point x="240" y="1584" type="curve" smooth="yes"/>
      <point x="290" y="1584"/>
      <point x="296" y="1481"/>
      <point x="296" y="1393" type="curve" smooth="yes"/>
      <point x="296" y="877" type="line" smooth="yes"/>
      <point x="296" y="849"/>
      <point x="261" y="826"/>
      <point x="225" y="826" type="curve" smooth="yes"/>
      <point x="157" y="826"/>
      <point x="158" y="988"/>
    </contour>
  </outline>
</glyph>
<glyph name="section" format="1">
  <advance width="802"/>
  <unicode hex="00A7"/>
  <outline>
    <contour>
      <point x="703" y="634" type="curve"/>
      <point x="704" y="634" type="line"/>
      <point x="704" y="566"/>
      <point x="663" y="502"/>
      <point x="589" y="465" type="curve"/>
      <point x="643" y="399"/>
      <point x="685" y="326"/>
      <point x="685" y="246" type="curve" smooth="yes"/>
      <point x="685" y="139"/>
      <point x="604" y="1"/>
      <point x="364" y="1" type="curve" smooth="yes"/>
      <point x="271" y="1"/>
      <point x="183" y="33"/>
      <point x="183" y="82" type="curve" smooth="yes"/>
      <point x="183" y="109"/>
      <point x="218" y="121"/>
      <point x="256" y="121" type="curve" smooth="yes"/>
      <point x="284" y="121"/>
      <point x="320" y="116"/>
      <point x="346" y="109" type="curve"/>
      <point x="477" y="110"/>
      <point x="541" y="206"/>
      <point x="541" y="257" type="curve" smooth="yes"/>
      <point x="541" y="457"/>
      <point x="105" y="550"/>
      <point x="105" y="820" type="curve" smooth="yes"/>
      <point x="105" y="895"/>
      <point x="144" y="972"/>
      <point x="223" y="1018" type="curve"/>
      <point x="173" y="1099"/>
      <point x="148" y="1186"/>
      <point x="148" y="1275" type="curve" smooth="yes"/>
      <point x="148" y="1385"/>
      <point x="219" y="1443"/>
      <point x="446" y="1443" type="curve" smooth="yes"/>
      <point x="503" y="1443"/>
      <point x="626" y="1430"/>
      <point x="626" y="1392" type="curve" smooth="yes"/>
      <point x="626" y="1308"/>
      <point x="265" y="1405"/>
      <point x="265" y="1277" type="curve" smooth="yes"/>
      <point x="265" y="1046"/>
      <point x="703" y="943"/>
    </contour>
    <contour>
      <point x="574" y="649" type="curve"/>
      <point x="573" y="649" type="line"/>
      <point x="573" y="754"/>
      <point x="442" y="840"/>
      <point x="327" y="925" type="curve"/>
      <point x="268" y="890"/>
      <point x="235" y="840"/>
      <point x="235" y="795" type="curve" smooth="yes"/>
      <point x="235" y="701"/>
      <point x="356" y="622"/>
      <point x="470" y="549" type="curve"/>
      <point x="530" y="573"/>
      <point x="574" y="612"/>
    </contour>
  </outline>
</glyph>
<glyph name="dieresis" format="1">
  <advance width="992"/>
  <unicode hex="00A8"/>
  <outline>
    <contour>
      <point x="683" y="1023" type="curve" smooth="yes"/>
      <point x="683" y="1062"/>
      <point x="727" y="1098"/>
      <point x="778" y="1098" type="curve" smooth="yes"/>
      <point x="826" y="1098"/>
      <point x="866" y="1061"/>
      <point x="866" y="1025" type="curve" smooth="yes"/>
      <point x="866" y="983"/>
      <point x="818" y="954"/>
      <point x="766" y="954" type="curve" smooth="yes"/>
      <point x="719" y="954"/>
      <point x="683" y="988"/>
    </contour>
    <contour>
      <point x="214" y="954" type="curve" smooth="yes"/>
      <point x="163" y="954"/>
      <point x="137" y="984"/>
      <point x="137" y="1021" type="curve" smooth="yes"/>
      <point x="137" y="1061"/>
      <point x="175" y="1095"/>
      <point x="228" y="1095" type="curve" smooth="yes"/>
      <point x="277" y="1095"/>
      <point x="320" y="1065"/>
      <point x="320" y="1026" type="curve" smooth="yes"/>
      <point x="320" y="984"/>
      <point x="264" y="954"/>
    </contour>
  </outline>
</glyph>
<glyph name="copyright" format="1">
  <advance width="2377"/>
  <unicode hex="00A9"/>
  <outline>
    <contour>
      <point x="1148" y="332" type="curve" smooth="yes"/>
      <point x="1149" y="332" type="line" smooth="yes"/>
      <point x="1387" y="332"/>
      <point x="1435" y="440"/>
      <point x="1610" y="440" type="curve" smooth="yes"/>
      <point x="1707" y="440"/>
      <point x="1723" y="404"/>
      <point x="1723" y="372" type="curve" smooth="yes"/>
      <point x="1723" y="283"/>
      <point x="1356" y="225"/>
      <point x="1175" y="225" type="curve" smooth="yes"/>
      <point x="533" y="225"/>
      <point x="479" y="583"/>
      <point x="479" y="813" type="curve" smooth="yes"/>
      <point x="479" y="825" type="line" smooth="yes"/>
      <point x="479" y="1028"/>
      <point x="482" y="1499"/>
      <point x="1066" y="1499" type="curve" smooth="yes"/>
      <point x="1334" y="1499"/>
      <point x="1702" y="1380"/>
      <point x="1702" y="1275" type="curve" smooth="yes"/>
      <point x="1702" y="1247"/>
      <point x="1647" y="1223"/>
      <point x="1571" y="1223" type="curve" smooth="yes"/>
      <point x="1308" y="1223"/>
      <point x="1327" y="1387"/>
      <point x="1091" y="1387" type="curve" smooth="yes"/>
      <point x="814" y="1387"/>
      <point x="632" y="1093"/>
      <point x="632" y="815" type="curve" smooth="yes"/>
      <point x="632" y="567"/>
      <point x="823" y="332"/>
    </contour>
    <contour>
      <point x="2124" y="894" type="line"/>
      <point x="2126" y="894" type="line"/>
      <point x="2126" y="1166"/>
      <point x="1736" y="1713"/>
      <point x="984" y="1713" type="curve" smooth="yes"/>
      <point x="363" y="1713"/>
      <point x="274" y="1160"/>
      <point x="274" y="940" type="curve" smooth="yes"/>
      <point x="274" y="884"/>
      <point x="272" y="823"/>
      <point x="272" y="760" type="curve" smooth="yes"/>
      <point x="272" y="443"/>
      <point x="332" y="81"/>
      <point x="1013" y="81" type="curve" smooth="yes"/>
      <point x="1634" y="81"/>
      <point x="1931" y="234"/>
      <point x="2124" y="464" type="curve"/>
    </contour>
    <contour>
      <point x="1075" y="-20" type="curve" smooth="yes"/>
      <point x="1074" y="-20" type="line" smooth="yes"/>
      <point x="151" y="-20"/>
      <point x="121" y="384"/>
      <point x="121" y="795" type="curve" smooth="yes"/>
      <point x="121" y="924" type="line" smooth="yes"/>
      <point x="121" y="1208"/>
      <point x="186" y="1812"/>
      <point x="918" y="1812" type="curve" smooth="yes"/>
      <point x="2130" y="1812"/>
      <point x="2273" y="1105"/>
      <point x="2273" y="757" type="curve"/>
      <point x="2227" y="403"/>
      <point x="2118" y="-20"/>
    </contour>
  </outline>
</glyph>
<glyph name="ordfeminine" format="1">
  <advance width="1179"/>
  <unicode hex="00AA"/>
  <outline>
    <contour>
      <point x="914" y="544" type="curve" smooth="yes"/>
      <point x="914" y="591" type="line" smooth="yes"/>
      <point x="914" y="702"/>
      <point x="898" y="817"/>
      <point x="639" y="817" type="curve"/>
      <point x="521" y="815" type="line"/>
      <point x="500" y="819"/>
      <point x="454" y="823"/>
      <point x="381" y="827" type="curve"/>
      <point x="266" y="652" type="line"/>
      <point x="242" y="580"/>
      <point x="190" y="503"/>
      <point x="164" y="503" type="curve" smooth="yes"/>
      <point x="155" y="503"/>
      <point x="148" y="514"/>
      <point x="148" y="539" type="curve"/>
      <point x="156" y="549"/>
      <point x="223" y="1088"/>
      <point x="526" y="1365" type="curve"/>
      <point x="587" y="1363" type="line"/>
      <point x="624" y="1363"/>
      <point x="651" y="1367"/>
      <point x="669" y="1375" type="curve"/>
      <point x="708" y="1375"/>
      <point x="743" y="1362"/>
      <point x="751" y="1344" type="curve"/>
      <point x="992" y="665" type="line"/>
      <point x="1006" y="605"/>
      <point x="1014" y="563"/>
      <point x="1014" y="539" type="curve" smooth="yes"/>
      <point x="1014" y="515"/>
      <point x="1007" y="500"/>
      <point x="993" y="494" type="curve"/>
      <point x="929" y="494"/>
      <point x="914" y="502"/>
    </contour>
    <contour>
      <point x="413" y="892" type="curve"/>
      <point x="577" y="876" type="line"/>
      <point x="701" y="871"/>
      <point x="773" y="866"/>
      <point x="794" y="862" type="curve"/>
      <point x="840" y="862" type="line"/>
      <point x="624" y="1282" type="line"/>
      <point x="542" y="1115"/>
      <point x="472" y="985"/>
    </contour>
    <contour>
      <point x="941" y="428" type="curve" smooth="yes"/>
      <point x="966" y="428"/>
      <point x="1000" y="412"/>
      <point x="1000" y="393" type="curve" smooth="yes"/>
      <point x="1000" y="379"/>
      <point x="347" y="375"/>
      <point x="287" y="375" type="curve" smooth="yes"/>
      <point x="251" y="375"/>
      <point x="221" y="389"/>
      <point x="221" y="410" type="curve" smooth="yes"/>
      <point x="221" y="423"/>
      <point x="906" y="428"/>
    </contour>
  </outline>
</glyph>
<glyph name="guillemotleft" format="1">
  <advance width="954"/>
  <unicode hex="00AB"/>
  <outline>
    <contour>
      <point x="92" y="697" type="curve" smooth="yes"/>
      <point x="92" y="778"/>
      <point x="418" y="1406"/>
      <point x="511" y="1483" type="curve"/>
      <point x="511" y="1485" type="line"/>
      <point x="518" y="1486"/>
      <point x="528" y="1489"/>
      <point x="535" y="1489" type="curve" smooth="yes"/>
      <point x="573" y="1489"/>
      <point x="616" y="1473"/>
      <point x="619" y="1440" type="curve"/>
      <point x="479" y="1193"/>
      <point x="385" y="929"/>
      <point x="236" y="687" type="curve"/>
      <point x="279" y="526"/>
      <point x="700" y="65"/>
      <point x="700" y="-13" type="curve" smooth="yes"/>
      <point x="700" y="-45"/>
      <point x="651" y="-59"/>
      <point x="617" y="-59" type="curve" smooth="yes"/>
      <point x="559" y="-59"/>
      <point x="92" y="607"/>
    </contour>
    <contour>
      <point x="318" y="698" type="curve"/>
      <point x="321" y="757"/>
      <point x="658" y="1447"/>
      <point x="738" y="1447" type="curve" smooth="yes"/>
      <point x="741" y="1447"/>
      <point x="743" y="1446"/>
      <point x="747" y="1446" type="curve"/>
      <point x="806" y="1411" type="line"/>
      <point x="771" y="1193"/>
      <point x="470" y="869"/>
      <point x="470" y="702" type="curve" smooth="yes"/>
      <point x="470" y="679"/>
      <point x="827" y="135"/>
      <point x="875" y="69" type="curve"/>
      <point x="875" y="33" type="line" smooth="yes"/>
      <point x="875" y="6"/>
      <point x="871" y="-22"/>
      <point x="838" y="-22" type="curve" smooth="yes"/>
      <point x="721" y="-22"/>
      <point x="390" y="579"/>
    </contour>
  </outline>
</glyph>
<glyph name="logicalnot" format="1">
  <advance width="1687"/>
  <unicode hex="00AC"/>
  <outline>
    <contour>
      <point x="1400" y="659" type="curve"/>
      <point x="1399" y="659" type="line"/>
      <point x="1399" y="725"/>
      <point x="1375" y="733"/>
      <point x="1230" y="733" type="curve" smooth="yes"/>
      <point x="835" y="733"/>
      <point x="448" y="711"/>
      <point x="205" y="711" type="curve" smooth="yes"/>
      <point x="169" y="711"/>
      <point x="139" y="735"/>
      <point x="139" y="763" type="curve" smooth="yes"/>
      <point x="139" y="822"/>
      <point x="283" y="835"/>
      <point x="422" y="835" type="curve" smooth="yes"/>
      <point x="567" y="835"/>
      <point x="727" y="828"/>
      <point x="786" y="828" type="curve" smooth="yes"/>
      <point x="1024" y="828"/>
      <point x="1257" y="848"/>
      <point x="1456" y="848" type="curve" smooth="yes"/>
      <point x="1498" y="848"/>
      <point x="1543" y="824"/>
      <point x="1543" y="790" type="curve" smooth="yes"/>
      <point x="1543" y="766"/>
      <point x="1534" y="741"/>
      <point x="1518" y="720" type="curve"/>
      <point x="1518" y="658"/>
      <point x="1525" y="596"/>
      <point x="1550" y="537" type="curve"/>
      <point x="1544" y="509"/>
      <point x="1521" y="475"/>
      <point x="1479" y="475" type="curve" smooth="yes"/>
      <point x="1409" y="475"/>
      <point x="1397" y="536"/>
      <point x="1397" y="592" type="curve" smooth="yes"/>
      <point x="1397" y="618"/>
      <point x="1400" y="643"/>
    </contour>
  </outline>
</glyph>
<glyph name="uni00AD" format="1">
  <advance width="855"/>
  <unicode hex="00AD"/>
  <outline>
    <contour>
      <point x="721" y="739" type="curve" smooth="yes"/>
      <point x="721" y="666"/>
      <point x="309" y="656"/>
      <point x="233" y="656" type="curve" smooth="yes"/>
      <point x="190" y="656"/>
      <point x="146" y="680"/>
      <point x="146" y="715" type="curve" smooth="yes"/>
      <point x="146" y="787"/>
      <point x="558" y="798"/>
      <point x="632" y="798" type="curve" smooth="yes"/>
      <point x="675" y="798"/>
      <point x="721" y="775"/>
    </contour>
  </outline>
</glyph>
<glyph name="registered" format="1">
  <advance width="2088"/>
  <unicode hex="00AE"/>
  <outline>
    <contour>
      <point x="965" y="1524" type="curve" smooth="yes"/>
      <point x="784" y="1524"/>
      <point x="761" y="1474"/>
      <point x="761" y="1406" type="curve" smooth="yes"/>
      <point x="761" y="1363"/>
      <point x="771" y="1311"/>
      <point x="771" y="1262" type="curve" smooth="yes"/>
      <point x="771" y="1174"/>
      <point x="772" y="1085"/>
      <point x="802" y="999" type="curve"/>
      <point x="1057" y="1048"/>
      <point x="1193" y="1141"/>
      <point x="1193" y="1271" type="curve" smooth="yes"/>
      <point x="1193" y="1280" type="line" smooth="yes"/>
      <point x="1193" y="1359"/>
      <point x="1190" y="1524"/>
    </contour>
    <contour>
      <point x="797" y="795" type="curve" smooth="yes"/>
      <point x="797" y="599"/>
      <point x="846" y="405"/>
      <point x="846" y="209" type="curve"/>
      <point x="668" y="209" type="line"/>
      <point x="668" y="281"/>
      <point x="642" y="353"/>
      <point x="642" y="425" type="curve" smooth="yes"/>
      <point x="642" y="1453" type="line" smooth="yes"/>
      <point x="642" y="1602"/>
      <point x="716" y="1634"/>
      <point x="949" y="1634" type="curve" smooth="yes"/>
      <point x="1386" y="1634"/>
      <point x="1447" y="1432"/>
      <point x="1447" y="1269" type="curve" smooth="yes"/>
      <point x="1447" y="1022"/>
      <point x="1174" y="1006"/>
      <point x="1149" y="968" type="curve"/>
      <point x="1156" y="887"/>
      <point x="1461" y="424"/>
      <point x="1518" y="313" type="curve"/>
      <point x="1352" y="226" type="line"/>
      <point x="1161" y="394"/>
      <point x="1021" y="796"/>
      <point x="924" y="913" type="curve"/>
      <point x="807" y="913" type="line"/>
      <point x="803" y="881"/>
      <point x="797" y="827"/>
    </contour>
    <contour>
      <point x="286" y="954" type="curve" smooth="yes"/>
      <point x="286" y="953" type="line" smooth="yes"/>
      <point x="286" y="585"/>
      <point x="446" y="120"/>
      <point x="744" y="-64" type="curve"/>
      <point x="829" y="-64" type="line"/>
      <point x="829" y="-84" type="line"/>
      <point x="1746" y="-79"/>
      <point x="1832" y="396"/>
      <point x="1832" y="706" type="curve" smooth="yes"/>
      <point x="1832" y="1023"/>
      <point x="1797" y="1354"/>
      <point x="1567" y="1655" type="curve"/>
      <point x="1567" y="1670" type="line"/>
      <point x="1487" y="1727"/>
      <point x="1232" y="1832"/>
      <point x="1087" y="1832" type="curve" smooth="yes"/>
      <point x="334" y="1832"/>
      <point x="286" y="1241"/>
    </contour>
    <contour>
      <point x="1053" y="1938" type="curve"/>
      <point x="1053" y="1938" type="line"/>
      <point x="1917" y="1938"/>
      <point x="1980" y="1224"/>
      <point x="1980" y="807" type="curve" smooth="yes"/>
      <point x="1980" y="470"/>
      <point x="1979" y="-190"/>
      <point x="1024" y="-190" type="curve" smooth="yes"/>
      <point x="290" y="-190"/>
      <point x="257" y="366"/>
      <point x="131" y="765" type="curve"/>
      <point x="131" y="810"/>
      <point x="130" y="866"/>
      <point x="130" y="930" type="curve" smooth="yes"/>
      <point x="130" y="1306"/>
      <point x="175" y="1938"/>
    </contour>
  </outline>
</glyph>
<glyph name="macron" format="1">
  <advance width="879"/>
  <unicode hex="00AF"/>
  <outline>
    <contour>
      <point x="726" y="749" type="line"/>
      <point x="689" y="704" type="line"/>
      <point x="171" y="704" type="line"/>
      <point x="151" y="756" type="line"/>
      <point x="155" y="800" type="line"/>
      <point x="729" y="800" type="line"/>
    </contour>
  </outline>
</glyph>
<glyph name="degree" format="1">
  <advance width="1255"/>
  <unicode hex="00B0"/>
  <outline>
    <contour>
      <point x="585" y="901" type="curve" smooth="yes"/>
      <point x="584" y="901" type="line" smooth="yes"/>
      <point x="310" y="901"/>
      <point x="237" y="773"/>
      <point x="237" y="665" type="curve" smooth="yes"/>
      <point x="237" y="607"/>
      <point x="395" y="515"/>
      <point x="584" y="515" type="curve" smooth="yes"/>
      <point x="969" y="515"/>
      <point x="1042" y="668"/>
      <point x="1042" y="729" type="curve" smooth="yes"/>
      <point x="1042" y="792"/>
      <point x="952" y="901"/>
    </contour>
    <contour>
      <point x="139" y="731" type="curve"/>
      <point x="138" y="731" type="line"/>
      <point x="138" y="867"/>
      <point x="269" y="970"/>
      <point x="566" y="970" type="curve" smooth="yes"/>
      <point x="1057" y="970"/>
      <point x="1131" y="821"/>
      <point x="1131" y="733" type="curve" smooth="yes"/>
      <point x="1131" y="649"/>
      <point x="1069" y="438"/>
      <point x="568" y="438" type="curve" smooth="yes"/>
      <point x="194" y="438"/>
      <point x="139" y="617"/>
    </contour>
  </outline>
</glyph>
<glyph name="plusminus" format="1">
  <advance width="978"/>
  <unicode hex="00B1"/>
  <outline>
    <contour>
      <point x="551" y="909" type="curve" smooth="yes"/>
      <point x="551" y="878" type="line" smooth="yes"/>
      <point x="551" y="864"/>
      <point x="550" y="839"/>
      <point x="550" y="812" type="curve" smooth="yes"/>
      <point x="550" y="760"/>
      <point x="554" y="701"/>
      <point x="576" y="701" type="curve" smooth="yes"/>
      <point x="609" y="701"/>
      <point x="671" y="709"/>
      <point x="731" y="709" type="curve" smooth="yes"/>
      <point x="802" y="709"/>
      <point x="869" y="697"/>
      <point x="869" y="647" type="curve" smooth="yes"/>
      <point x="869" y="615"/>
      <point x="835" y="591"/>
      <point x="793" y="591" type="curve" smooth="yes"/>
      <point x="740" y="591"/>
      <point x="689" y="602"/>
      <point x="636" y="602" type="curve" smooth="yes"/>
      <point x="592" y="602"/>
      <point x="551" y="593"/>
      <point x="551" y="553" type="curve" smooth="yes"/>
      <point x="551" y="498"/>
      <point x="576" y="444"/>
      <point x="576" y="389" type="curve" smooth="yes"/>
      <point x="576" y="353"/>
      <point x="531" y="333"/>
      <point x="489" y="333" type="curve" smooth="yes"/>
      <point x="451" y="333"/>
      <point x="403" y="352"/>
      <point x="403" y="385" type="curve" smooth="yes"/>
      <point x="403" y="451"/>
      <point x="411" y="518"/>
      <point x="411" y="584" type="curve" smooth="yes"/>
      <point x="411" y="599" type="line"/>
      <point x="375" y="599"/>
      <point x="290" y="590"/>
      <point x="238" y="590" type="curve" smooth="yes"/>
      <point x="177" y="590"/>
      <point x="125" y="602"/>
      <point x="125" y="655" type="curve" smooth="yes"/>
      <point x="125" y="682"/>
      <point x="147" y="708"/>
      <point x="185" y="708" type="curve" smooth="yes"/>
      <point x="237" y="708"/>
      <point x="290" y="701"/>
      <point x="342" y="701" type="curve" smooth="yes"/>
      <point x="363" y="701"/>
      <point x="382" y="702"/>
      <point x="403" y="705" type="curve"/>
      <point x="401" y="755"/>
      <point x="388" y="805"/>
      <point x="388" y="855" type="curve" smooth="yes"/>
      <point x="388" y="900"/>
      <point x="397" y="968"/>
      <point x="473" y="968" type="curve" smooth="yes"/>
      <point x="515" y="968"/>
      <point x="551" y="942"/>
    </contour>
    <contour>
      <point x="125" y="200" type="curve" smooth="yes"/>
      <point x="125" y="228"/>
      <point x="148" y="246"/>
      <point x="185" y="246" type="curve" smooth="yes"/>
      <point x="740" y="246" type="line" smooth="yes"/>
      <point x="795" y="246"/>
      <point x="869" y="246"/>
      <point x="869" y="192" type="curve" smooth="yes"/>
      <point x="869" y="158"/>
      <point x="832" y="145"/>
      <point x="793" y="145" type="curve" smooth="yes"/>
      <point x="606" y="145"/>
      <point x="418" y="135"/>
      <point x="232" y="135" type="curve" smooth="yes"/>
      <point x="173" y="135"/>
      <point x="125" y="149"/>
    </contour>
  </outline>
</glyph>
<glyph name="twosuperior" format="1">
  <advance width="761"/>
  <unicode hex="00B2"/>
  <outline>
    <contour>
      <point x="78" y="47" type="curve"/>
      <point x="78" y="47"/>
      <point x="525" y="864"/>
      <point x="525" y="1236" type="curve" smooth="yes"/>
      <point x="525" y="1305"/>
      <point x="520" y="1492"/>
      <point x="398" y="1500" type="curve"/>
      <point x="325" y="1470"/>
      <point x="359" y="1327"/>
      <point x="260" y="1327" type="curve" smooth="yes"/>
      <point x="211" y="1327"/>
      <point x="195" y="1357"/>
      <point x="195" y="1390" type="curve" smooth="yes"/>
      <point x="195" y="1465"/>
      <point x="247" y="1586"/>
      <point x="367" y="1586" type="curve"/>
      <point x="367" y="1587" type="line"/>
      <point x="651" y="1587"/>
      <point x="653" y="1357"/>
      <point x="653" y="1201" type="curve" smooth="yes"/>
      <point x="653" y="774"/>
      <point x="384" y="408"/>
      <point x="246" y="86" type="curve"/>
      <point x="346" y="99"/>
      <point x="446" y="107"/>
      <point x="547" y="107" type="curve"/>
      <point x="595" y="98"/>
      <point x="612" y="81"/>
      <point x="612" y="61" type="curve" smooth="yes"/>
      <point x="612" y="43"/>
      <point x="599" y="23"/>
      <point x="581" y="4" type="curve"/>
      <point x="446" y="4"/>
      <point x="311" y="-15"/>
      <point x="176" y="-15" type="curve" smooth="yes"/>
      <point x="129" y="-15"/>
      <point x="78" y="7"/>
    </contour>
  </outline>
</glyph>
<glyph name="threesuperior" format="1">
  <advance width="787"/>
  <unicode hex="00B3"/>
  <outline>
    <contour>
      <point x="331" y="1573" type="curve" smooth="yes"/>
      <point x="554" y="1573"/>
      <point x="598" y="1293"/>
      <point x="598" y="1124" type="curve" smooth="yes"/>
      <point x="598" y="1040"/>
      <point x="534" y="993"/>
      <point x="478" y="927" type="curve"/>
      <point x="658" y="844"/>
      <point x="701" y="509"/>
      <point x="701" y="361" type="curve" smooth="yes"/>
      <point x="701" y="213"/>
      <point x="684" y="-20"/>
      <point x="425" y="-20" type="curve" smooth="yes"/>
      <point x="351" y="-20"/>
      <point x="229" y="5"/>
      <point x="229" y="76" type="curve" smooth="yes"/>
      <point x="229" y="89" type="line"/>
      <point x="273" y="89" type="line"/>
      <point x="328" y="83"/>
      <point x="361" y="88"/>
      <point x="404" y="64" type="curve"/>
      <point x="554" y="69"/>
      <point x="567" y="207"/>
      <point x="567" y="294" type="curve" smooth="yes"/>
      <point x="567" y="482"/>
      <point x="564" y="694"/>
      <point x="404" y="849" type="curve"/>
      <point x="399" y="848"/>
      <point x="394" y="848"/>
      <point x="387" y="848" type="curve" smooth="yes"/>
      <point x="361" y="848"/>
      <point x="333" y="857"/>
      <point x="309" y="865" type="curve"/>
      <point x="309" y="889" type="line" smooth="yes"/>
      <point x="309" y="950"/>
      <point x="465" y="1016"/>
      <point x="465" y="1150" type="curve" smooth="yes"/>
      <point x="465" y="1216"/>
      <point x="447" y="1477"/>
      <point x="326" y="1477" type="curve" smooth="yes"/>
      <point x="227" y="1477"/>
      <point x="259" y="1360"/>
      <point x="151" y="1360" type="curve" smooth="yes"/>
      <point x="109" y="1360"/>
      <point x="81" y="1387"/>
      <point x="74" y="1416" type="curve"/>
      <point x="118" y="1501"/>
      <point x="205" y="1573"/>
    </contour>
  </outline>
</glyph>
<glyph name="acute" format="1">
  <advance width="587"/>
  <unicode hex="00B4"/>
  <outline>
    <contour>
      <point x="519.883" y="1517" type="line"/>
      <point x="159.883" y="1285" type="line"/>
      <point x="69" y="1339.53" type="line"/>
      <point x="417.883" y="1573" type="line"/>
    </contour>
  </outline>
</glyph>
<glyph name="mu" format="1">
  <advance width="1140"/>
  <unicode hex="00B5"/>
  <unicode hex="03bc"/>
  <outline>
    <contour>
      <point x="935" y="878" type="curve"/>
      <point x="877" y="672"/>
      <point x="980" y="-27"/>
      <point x="485" y="-31" type="curve" smooth="yes"/>
      <point x="386" y="-31"/>
      <point x="307" y="-15"/>
      <point x="246" y="11" type="curve"/>
      <point x="250" y="-48"/>
      <point x="252" y="-107"/>
      <point x="252" y="-166" type="curve" smooth="yes"/>
      <point x="252" y="-211"/>
      <point x="224" y="-248"/>
      <point x="148" y="-248" type="curve" smooth="yes"/>
      <point x="112" y="-248"/>
      <point x="88" y="-230"/>
      <point x="88" y="-202" type="curve" smooth="yes"/>
      <point x="88" y="99" type="line" smooth="yes"/>
      <point x="88" y="215"/>
      <point x="79" y="356"/>
      <point x="79" y="475" type="curve" smooth="yes"/>
      <point x="79" y="484" type="line" smooth="yes"/>
      <point x="79" y="697"/>
      <point x="94" y="824"/>
      <point x="94" y="1013" type="curve" smooth="yes"/>
      <point x="94" y="1114"/>
      <point x="87" y="1213"/>
      <point x="61" y="1306" type="curve"/>
      <point x="61" y="1355" type="line"/>
      <point x="152" y="1355"/>
      <point x="199" y="1289"/>
      <point x="199" y="1232" type="curve" smooth="yes"/>
      <point x="199" y="241" type="line" smooth="yes"/>
      <point x="199" y="152"/>
      <point x="289" y="31"/>
      <point x="526" y="31" type="curve" smooth="yes"/>
      <point x="718" y="31"/>
      <point x="775" y="480"/>
      <point x="775" y="559" type="curve" smooth="yes"/>
      <point x="775" y="808"/>
      <point x="809" y="1057"/>
      <point x="809" y="1307" type="curve" smooth="yes"/>
      <point x="809" y="1319"/>
      <point x="807" y="1330"/>
      <point x="807" y="1341" type="curve" smooth="yes"/>
      <point x="807" y="1369"/>
      <point x="816" y="1389"/>
      <point x="880" y="1389" type="curve" smooth="yes"/>
      <point x="958" y="1389"/>
      <point x="962" y="1336"/>
      <point x="962" y="1290" type="curve" smooth="yes"/>
      <point x="962" y="1221"/>
      <point x="944" y="1151"/>
      <point x="944" y="1084" type="curve" smooth="yes"/>
      <point x="944" y="1027"/>
      <point x="932" y="970"/>
      <point x="932" y="913" type="curve" smooth="yes"/>
      <point x="932" y="901"/>
      <point x="935" y="890"/>
    </contour>
  </outline>
</glyph>
<glyph name="paragraph" format="1">
  <advance width="1301"/>
  <unicode hex="00B6"/>
  <outline>
    <contour>
      <point x="88" y="1385" type="line" smooth="yes"/>
      <point x="88" y="1743"/>
      <point x="373" y="1877"/>
      <point x="821" y="1877" type="curve" smooth="yes"/>
      <point x="1230" y="1877" type="line"/>
      <point x="1230" y="1791" type="line"/>
      <point x="1145" y="1739" type="line"/>
      <point x="1145" y="36" type="line"/>
      <point x="1076" y="-20" type="line"/>
      <point x="963" y="43" type="line"/>
      <point x="1022.32" y="1767.98" type="line"/>
      <point x="841.948" y="1767.98" type="line"/>
      <point x="882" y="980" type="line"/>
      <point x="803" y="4" type="line"/>
      <point x="646" y="4" type="line"/>
      <point x="710.233" y="1097.49" type="line"/>
      <point x="367.233" y="1097.49"/>
      <point x="225" y="1151"/>
      <point x="88" y="1384" type="curve"/>
    </contour>
    <contour>
      <point x="235" y="1455" type="curve" smooth="yes"/>
      <point x="235" y="1224"/>
      <point x="426" y="1196"/>
      <point x="680" y="1196" type="curve"/>
      <point x="680" y="1740" type="line"/>
      <point x="569" y="1740" type="line" smooth="yes"/>
      <point x="378" y="1740"/>
      <point x="235" y="1592"/>
    </contour>
  </outline>
</glyph>
<glyph name="periodcentered" format="1">
  <advance width="481"/>
  <unicode hex="00B7"/>
  <outline>
    <contour>
      <point x="148" y="706" type="curve" smooth="yes"/>
      <point x="148" y="747"/>
      <point x="195" y="785"/>
      <point x="248" y="785" type="curve" smooth="yes"/>
      <point x="299" y="785"/>
      <point x="343" y="746"/>
      <point x="343" y="708" type="curve" smooth="yes"/>
      <point x="343" y="661"/>
      <point x="296" y="633"/>
      <point x="238" y="633" type="curve" smooth="yes"/>
      <point x="188" y="633"/>
      <point x="148" y="669"/>
    </contour>
  </outline>
</glyph>
<glyph name="cedilla" format="1">
  <advance width="609"/>
  <unicode hex="00B8"/>
  <outline>
    <contour>
      <point x="279.742" y="-504.763" type="curve" smooth="yes"/>
      <point x="231.704" y="-504.763"/>
      <point x="178.168" y="-481.367"/>
      <point x="124" y="-425" type="curve"/>
      <point x="184" y="-381" type="line"/>
      <point x="282.742" y="-381"/>
      <point x="317.701" y="-357.455"/>
      <point x="317.701" y="-325.178" type="curve" smooth="yes"/>
      <point x="317.701" y="-269.938"/>
      <point x="215.301" y="-189.123"/>
      <point x="155" y="-157" type="curve"/>
      <point x="189.993" y="-0.230617" type="line"/>
      <point x="266" y="-0.230617" type="line"/>
      <point x="266" y="-91" type="line"/>
      <point x="496.117" y="-191.265"/>
      <point x="538.996" y="-504.763"/>
    </contour>
  </outline>
</glyph>
<glyph name="onesuperior" format="1">
  <advance width="789"/>
  <unicode hex="00B9"/>
  <outline>
    <contour>
      <point x="383" y="120" type="curve" smooth="yes"/>
      <point x="383" y="519"/>
      <point x="302" y="923"/>
      <point x="302" y="1308" type="curve" smooth="yes"/>
      <point x="302" y="1329"/>
      <point x="306" y="1356"/>
      <point x="306" y="1383" type="curve" smooth="yes"/>
      <point x="306" y="1432"/>
      <point x="292" y="1479"/>
      <point x="214" y="1479" type="curve" smooth="yes"/>
      <point x="197" y="1479"/>
      <point x="175" y="1477"/>
      <point x="152" y="1477" type="curve" smooth="yes"/>
      <point x="113" y="1477"/>
      <point x="77" y="1483"/>
      <point x="77" y="1521" type="curve" smooth="yes"/>
      <point x="77" y="1574"/>
      <point x="236" y="1575"/>
      <point x="292" y="1575" type="curve" smooth="yes"/>
      <point x="334" y="1575"/>
      <point x="385" y="1574"/>
      <point x="409" y="1541" type="curve"/>
      <point x="407" y="1534"/>
      <point x="406" y="1527"/>
      <point x="406" y="1520" type="curve" smooth="yes"/>
      <point x="406" y="1499"/>
      <point x="412" y="1477"/>
      <point x="412" y="1455" type="curve" smooth="yes"/>
      <point x="412" y="1329"/>
      <point x="453" y="1205"/>
      <point x="453" y="1079" type="curve" smooth="yes"/>
      <point x="453" y="756"/>
      <point x="511" y="433"/>
      <point x="511" y="109" type="curve" smooth="yes"/>
      <point x="511" y="96" type="line"/>
      <point x="544" y="98"/>
      <point x="576" y="102"/>
      <point x="609" y="102" type="curve"/>
      <point x="609" y="103" type="line"/>
      <point x="656" y="103"/>
      <point x="721" y="99"/>
      <point x="721" y="52" type="curve" smooth="yes"/>
      <point x="721" y="-4"/>
      <point x="510" y="-8"/>
      <point x="418" y="-8" type="curve" smooth="yes"/>
      <point x="379" y="-8"/>
      <point x="368" y="-9"/>
      <point x="338" y="-9" type="curve" smooth="yes"/>
      <point x="285" y="-9"/>
      <point x="230" y="-3"/>
      <point x="230" y="47" type="curve" smooth="yes"/>
      <point x="230" y="91" type="line"/>
      <point x="247" y="90"/>
      <point x="299" y="86"/>
      <point x="324" y="86" type="curve" smooth="yes"/>
      <point x="355" y="86"/>
      <point x="383" y="93"/>
    </contour>
  </outline>
</glyph>
<glyph name="ordmasculine" format="1">
  <advance width="1270"/>
  <unicode hex="00BA"/>
  <outline>
    <contour>
      <point x="569" y="1333" type="curve" smooth="yes"/>
      <point x="1070" y="1333"/>
      <point x="1114" y="1099"/>
      <point x="1114" y="825" type="curve" smooth="yes"/>
      <point x="1114" y="718"/>
      <point x="992" y="538"/>
      <point x="667" y="538" type="curve" smooth="yes"/>
      <point x="312" y="538"/>
      <point x="193" y="654"/>
      <point x="193" y="887" type="curve" smooth="yes"/>
      <point x="193" y="1006"/>
      <point x="192" y="1333"/>
    </contour>
    <contour>
      <point x="1029" y="842" type="curve"/>
      <point x="1031" y="841" type="line"/>
      <point x="1031" y="1111"/>
      <point x="947" y="1294"/>
      <point x="592" y="1294" type="curve" smooth="yes"/>
      <point x="409" y="1294"/>
      <point x="278" y="1181"/>
      <point x="278" y="954" type="curve" smooth="yes"/>
      <point x="278" y="717"/>
      <point x="407" y="598"/>
      <point x="646" y="598" type="curve" smooth="yes"/>
      <point x="902" y="598"/>
      <point x="1029" y="679"/>
    </contour>
    <contour>
      <point x="946" y="484" type="curve" smooth="yes"/>
      <point x="947" y="484" type="line" smooth="yes"/>
      <point x="989" y="484"/>
      <point x="1038" y="468"/>
      <point x="1038" y="449" type="curve" smooth="yes"/>
      <point x="1038" y="435"/>
      <point x="332" y="431"/>
      <point x="274" y="431" type="curve" smooth="yes"/>
      <point x="248" y="431"/>
      <point x="218" y="445"/>
      <point x="218" y="466" type="curve" smooth="yes"/>
      <point x="218" y="479"/>
      <point x="891" y="484"/>
    </contour>
  </outline>
</glyph>
<glyph name="guillemotright" format="1">
  <advance width="988"/>
  <unicode hex="00BB"/>
  <outline>
    <contour>
      <point x="478" y="1484" type="line"/>
      <point x="577" y="1408"/>
      <point x="902" y="784"/>
      <point x="902" y="699" type="curve" smooth="yes"/>
      <point x="902" y="609"/>
      <point x="435" y="-57"/>
      <point x="378" y="-57" type="curve" smooth="yes"/>
      <point x="344" y="-57"/>
      <point x="294" y="-44"/>
      <point x="294" y="-11" type="curve" smooth="yes"/>
      <point x="294" y="67"/>
      <point x="715" y="527"/>
      <point x="759" y="688" type="curve"/>
      <point x="610" y="927"/>
      <point x="568" y="1210"/>
      <point x="374" y="1432" type="curve"/>
      <point x="378" y="1466"/>
      <point x="415" y="1489"/>
      <point x="459" y="1489" type="curve" smooth="yes"/>
      <point x="464" y="1489"/>
      <point x="473" y="1486"/>
      <point x="478" y="1485" type="curve"/>
    </contour>
    <contour>
      <point x="243" y="1446" type="line" smooth="yes"/>
      <point x="243" y="1443" type="line" smooth="yes"/>
      <point x="369" y="1399"/>
      <point x="668" y="799"/>
      <point x="672" y="698" type="curve"/>
      <point x="208" y="-19" type="line"/>
      <point x="191" y="-19"/>
      <point x="170" y="-23"/>
      <point x="153" y="-23" type="curve" smooth="yes"/>
      <point x="105" y="-23"/>
      <point x="84" y="19"/>
      <point x="83" y="49" type="curve"/>
      <point x="130" y="116"/>
      <point x="519" y="680"/>
      <point x="519" y="702" type="curve" smooth="yes"/>
      <point x="519" y="908"/>
      <point x="187" y="1202"/>
      <point x="184" y="1411" type="curve"/>
    </contour>
  </outline>
</glyph>
<glyph name="onequarter" format="1">
  <advance width="2729"/>
  <unicode hex="00BC"/>
  <outline>
    <contour>
      <point x="382" y="123" type="curve"/>
      <point x="381" y="123" type="line"/>
      <point x="381" y="522"/>
      <point x="300" y="926"/>
      <point x="300" y="1311" type="curve" smooth="yes"/>
      <point x="300" y="1332"/>
      <point x="304" y="1359"/>
      <point x="304" y="1386" type="curve" smooth="yes"/>
      <point x="304" y="1435"/>
      <point x="290" y="1482"/>
      <point x="212" y="1482" type="curve" smooth="yes"/>
      <point x="195" y="1482"/>
      <point x="173" y="1480"/>
      <point x="150" y="1480" type="curve" smooth="yes"/>
      <point x="111" y="1480"/>
      <point x="75" y="1486"/>
      <point x="75" y="1524" type="curve" smooth="yes"/>
      <point x="75" y="1577"/>
      <point x="234" y="1578"/>
      <point x="290" y="1578" type="curve" smooth="yes"/>
      <point x="332" y="1578"/>
      <point x="383" y="1577"/>
      <point x="407" y="1544" type="curve"/>
      <point x="405" y="1537"/>
      <point x="404" y="1530"/>
      <point x="404" y="1523" type="curve" smooth="yes"/>
      <point x="404" y="1502"/>
      <point x="410" y="1480"/>
      <point x="410" y="1458" type="curve" smooth="yes"/>
      <point x="410" y="1332"/>
      <point x="451" y="1208"/>
      <point x="451" y="1082" type="curve" smooth="yes"/>
      <point x="451" y="759"/>
      <point x="509" y="436"/>
      <point x="509" y="112" type="curve" smooth="yes"/>
      <point x="509" y="99" type="line"/>
      <point x="563" y="101"/>
      <point x="616" y="105"/>
      <point x="669" y="105" type="curve"/>
      <point x="669" y="106" type="line"/>
      <point x="746" y="106"/>
      <point x="851" y="102"/>
      <point x="851" y="55" type="curve" smooth="yes"/>
      <point x="851" y="-1"/>
      <point x="509" y="-5"/>
      <point x="417" y="-5" type="curve" smooth="yes"/>
      <point x="378" y="-5"/>
      <point x="368" y="-6"/>
      <point x="338" y="-6" type="curve" smooth="yes"/>
      <point x="284" y="-6"/>
      <point x="230" y="0"/>
      <point x="230" y="50" type="curve" smooth="yes"/>
      <point x="230" y="94" type="line"/>
      <point x="247" y="93"/>
      <point x="299" y="89"/>
      <point x="323" y="89" type="curve" smooth="yes"/>
      <point x="355" y="89"/>
      <point x="382" y="96"/>
    </contour>
    <contour>
      <point x="994" y="33" type="curve" smooth="yes"/>
      <point x="994" y="129"/>
      <point x="1573" y="1556"/>
      <point x="1809" y="1556" type="curve" smooth="yes"/>
      <point x="1869" y="1556"/>
      <point x="1924" y="1536"/>
      <point x="1924" y="1506" type="curve" smooth="yes"/>
      <point x="1924" y="1329"/>
      <point x="1384" y="-28"/>
      <point x="1092" y="-28" type="curve"/>
      <point x="1047" y="-15"/>
      <point x="994" y="8"/>
    </contour>
    <contour>
      <point x="2377" y="587" type="curve"/>
      <point x="2377" y="590" type="line" smooth="yes"/>
      <point x="2377" y="783"/>
      <point x="2337" y="986"/>
      <point x="2337" y="1162" type="curve" smooth="yes"/>
      <point x="2337" y="1193"/>
      <point x="2385" y="1208"/>
      <point x="2419" y="1208" type="curve"/>
      <point x="2474" y="1172" type="line"/>
      <point x="2474" y="1073" type="line" smooth="yes"/>
      <point x="2474" y="914"/>
      <point x="2476" y="754"/>
      <point x="2507" y="597" type="curve"/>
      <point x="2527" y="598"/>
      <point x="2555" y="602"/>
      <point x="2584" y="602" type="curve" smooth="yes"/>
      <point x="2624" y="602"/>
      <point x="2663" y="594"/>
      <point x="2663" y="558" type="curve" smooth="yes"/>
      <point x="2663" y="514"/>
      <point x="2623" y="508"/>
      <point x="2576" y="508" type="curve" smooth="yes"/>
      <point x="2557" y="508"/>
      <point x="2514" y="506"/>
      <point x="2514" y="490" type="curve" smooth="yes"/>
      <point x="2514" y="437"/>
      <point x="2640" y="191"/>
      <point x="2659" y="156" type="curve"/>
      <point x="2657" y="144"/>
      <point x="2654" y="131"/>
      <point x="2654" y="118" type="curve" smooth="yes"/>
      <point x="2654" y="104"/>
      <point x="2657" y="90"/>
      <point x="2667" y="77" type="curve"/>
      <point x="2667" y="40" type="line" smooth="yes"/>
      <point x="2667" y="10"/>
      <point x="2653" y="-37"/>
      <point x="2604" y="-37" type="curve" smooth="yes"/>
      <point x="2544" y="-37"/>
      <point x="2524" y="24"/>
      <point x="2524" y="60" type="curve" smooth="yes"/>
      <point x="2524" y="67" type="line"/>
      <point x="2533" y="91"/>
      <point x="2533" y="116"/>
      <point x="2533" y="141" type="curve" smooth="yes"/>
      <point x="2533" y="208"/>
      <point x="2514" y="273"/>
      <point x="2514" y="340" type="curve" smooth="yes"/>
      <point x="2514" y="370"/>
      <point x="2516" y="399"/>
      <point x="2398" y="429" type="curve"/>
      <point x="2398" y="450"/>
      <point x="2397" y="471"/>
      <point x="2393" y="492" type="curve"/>
      <point x="2345" y="490"/>
      <point x="2271" y="481"/>
      <point x="2211" y="481" type="curve"/>
      <point x="2211" y="480" type="line"/>
      <point x="2171" y="480"/>
      <point x="2137" y="494"/>
      <point x="2106" y="513" type="curve"/>
      <point x="2106" y="540"/>
      <point x="2108" y="566"/>
      <point x="2117" y="592" type="curve"/>
      <point x="2108" y="629"/>
      <point x="2106" y="667"/>
      <point x="2106" y="707" type="curve" smooth="yes"/>
      <point x="2106" y="845"/>
      <point x="2146" y="992"/>
      <point x="2146" y="1125" type="curve" smooth="yes"/>
      <point x="2146" y="1504" type="line" smooth="yes"/>
      <point x="2146" y="1526"/>
      <point x="2149" y="1544"/>
      <point x="2197" y="1544" type="curve" smooth="yes"/>
      <point x="2234" y="1544"/>
      <point x="2299" y="1525"/>
      <point x="2299" y="1493" type="curve" smooth="yes"/>
      <point x="2299" y="1441"/>
      <point x="2280" y="1387"/>
      <point x="2280" y="1334" type="curve" smooth="yes"/>
      <point x="2280" y="1309"/>
      <point x="2284" y="1284"/>
      <point x="2297" y="1260" type="curve"/>
      <point x="2297" y="1253" type="line"/>
      <point x="2301" y="1239"/>
      <point x="2302" y="1224"/>
      <point x="2302" y="1209" type="curve" smooth="yes"/>
      <point x="2302" y="1187"/>
      <point x="2299" y="1165"/>
      <point x="2299" y="1143" type="curve" smooth="yes"/>
      <point x="2299" y="969"/>
      <point x="2238" y="796"/>
      <point x="2238" y="622" type="curve" smooth="yes"/>
      <point x="2238" y="607"/>
      <point x="2241" y="591"/>
      <point x="2245" y="576" type="curve"/>
      <point x="2298" y="577"/>
      <point x="2345" y="581"/>
    </contour>
  </outline>
</glyph>
<glyph name="onehalf" format="1">
  <advance width="2904"/>
  <unicode hex="00BD"/>
  <outline>
    <contour>
      <point x="382" y="120" type="curve"/>
      <point x="381" y="120" type="line"/>
      <point x="381" y="519"/>
      <point x="300" y="923"/>
      <point x="300" y="1308" type="curve" smooth="yes"/>
      <point x="300" y="1329"/>
      <point x="304" y="1356"/>
      <point x="304" y="1383" type="curve" smooth="yes"/>
      <point x="304" y="1432"/>
      <point x="290" y="1479"/>
      <point x="212" y="1479" type="curve" smooth="yes"/>
      <point x="195" y="1479"/>
      <point x="173" y="1477"/>
      <point x="150" y="1477" type="curve" smooth="yes"/>
      <point x="111" y="1477"/>
      <point x="75" y="1483"/>
      <point x="75" y="1521" type="curve" smooth="yes"/>
      <point x="75" y="1574"/>
      <point x="234" y="1575"/>
      <point x="290" y="1575" type="curve" smooth="yes"/>
      <point x="332" y="1575"/>
      <point x="383" y="1574"/>
      <point x="407" y="1541" type="curve"/>
      <point x="405" y="1534"/>
      <point x="404" y="1527"/>
      <point x="404" y="1520" type="curve" smooth="yes"/>
      <point x="404" y="1499"/>
      <point x="410" y="1477"/>
      <point x="410" y="1455" type="curve" smooth="yes"/>
      <point x="410" y="1329"/>
      <point x="451" y="1205"/>
      <point x="451" y="1079" type="curve" smooth="yes"/>
      <point x="451" y="756"/>
      <point x="509" y="433"/>
      <point x="509" y="109" type="curve" smooth="yes"/>
      <point x="509" y="96" type="line"/>
      <point x="563" y="98"/>
      <point x="616" y="102"/>
      <point x="669" y="102" type="curve"/>
      <point x="669" y="103" type="line"/>
      <point x="746" y="103"/>
      <point x="851" y="99"/>
      <point x="851" y="52" type="curve" smooth="yes"/>
      <point x="851" y="-4"/>
      <point x="509" y="-8"/>
      <point x="417" y="-8" type="curve" smooth="yes"/>
      <point x="378" y="-8"/>
      <point x="368" y="-9"/>
      <point x="338" y="-9" type="curve" smooth="yes"/>
      <point x="284" y="-9"/>
      <point x="230" y="-3"/>
      <point x="230" y="47" type="curve" smooth="yes"/>
      <point x="230" y="91" type="line"/>
      <point x="247" y="90"/>
      <point x="299" y="86"/>
      <point x="323" y="86" type="curve" smooth="yes"/>
      <point x="355" y="86"/>
      <point x="382" y="93"/>
    </contour>
    <contour>
      <point x="994" y="30" type="curve" smooth="yes"/>
      <point x="994" y="126"/>
      <point x="1573" y="1553"/>
      <point x="1809" y="1553" type="curve" smooth="yes"/>
      <point x="1869" y="1553"/>
      <point x="1924" y="1533"/>
      <point x="1924" y="1503" type="curve" smooth="yes"/>
      <point x="1924" y="1326"/>
      <point x="1384" y="-31"/>
      <point x="1092" y="-31" type="curve"/>
      <point x="1047" y="-18"/>
      <point x="994" y="5"/>
    </contour>
    <contour>
      <point x="2064" y="55" type="line"/>
      <point x="2510" y="321"/>
      <point x="2670" y="866"/>
      <point x="2670" y="1236" type="curve" smooth="yes"/>
      <point x="2670" y="1305"/>
      <point x="2665" y="1492"/>
      <point x="2542" y="1500" type="curve"/>
      <point x="2464" y="1470"/>
      <point x="2503" y="1327"/>
      <point x="2359" y="1327" type="curve" smooth="yes"/>
      <point x="2280" y="1327"/>
      <point x="2254" y="1357"/>
      <point x="2254" y="1390" type="curve" smooth="yes"/>
      <point x="2254" y="1465"/>
      <point x="2340" y="1586"/>
      <point x="2513" y="1586" type="curve"/>
      <point x="2513" y="1587" type="line"/>
      <point x="2797" y="1587"/>
      <point x="2799" y="1357"/>
      <point x="2799" y="1201" type="curve" smooth="yes"/>
      <point x="2799" y="775"/>
      <point x="2527" y="409"/>
      <point x="2337" y="86" type="curve"/>
      <point x="2490" y="99"/>
      <point x="2591" y="107"/>
      <point x="2692" y="107" type="curve"/>
      <point x="2773" y="55" type="line"/>
      <point x="2726" y="4" type="line"/>
      <point x="2591" y="4"/>
      <point x="2442" y="-15"/>
      <point x="2223" y="-15" type="curve" smooth="yes"/>
      <point x="2146" y="-15"/>
      <point x="2064" y="7"/>
      <point x="2064" y="47" type="curve" smooth="yes"/>
    </contour>
  </outline>
</glyph>
<glyph name="threequarters" format="1">
  <advance width="2592"/>
  <unicode hex="00BE"/>
  <outline>
    <contour>
      <point x="331" y="1576" type="curve" smooth="yes"/>
      <point x="554" y="1576"/>
      <point x="598" y="1296"/>
      <point x="598" y="1127" type="curve" smooth="yes"/>
      <point x="598" y="1043"/>
      <point x="534" y="996"/>
      <point x="478" y="930" type="curve"/>
      <point x="658" y="847"/>
      <point x="701" y="512"/>
      <point x="701" y="364" type="curve" smooth="yes"/>
      <point x="701" y="216"/>
      <point x="684" y="-17"/>
      <point x="425" y="-17" type="curve" smooth="yes"/>
      <point x="351" y="-17"/>
      <point x="229" y="8"/>
      <point x="229" y="79" type="curve" smooth="yes"/>
      <point x="229" y="92" type="line"/>
      <point x="273" y="92" type="line"/>
      <point x="328" y="86"/>
      <point x="361" y="91"/>
      <point x="404" y="67" type="curve"/>
      <point x="554" y="72"/>
      <point x="567" y="210"/>
      <point x="567" y="297" type="curve" smooth="yes"/>
      <point x="567" y="485"/>
      <point x="564" y="697"/>
      <point x="404" y="852" type="curve"/>
      <point x="399" y="851"/>
      <point x="394" y="851"/>
      <point x="387" y="851" type="curve" smooth="yes"/>
      <point x="361" y="851"/>
      <point x="333" y="860"/>
      <point x="309" y="868" type="curve"/>
      <point x="309" y="892" type="line" smooth="yes"/>
      <point x="309" y="953"/>
      <point x="465" y="1019"/>
      <point x="465" y="1153" type="curve" smooth="yes"/>
      <point x="465" y="1219"/>
      <point x="447" y="1480"/>
      <point x="326" y="1480" type="curve" smooth="yes"/>
      <point x="227" y="1480"/>
      <point x="259" y="1363"/>
      <point x="151" y="1363" type="curve" smooth="yes"/>
      <point x="109" y="1363"/>
      <point x="81" y="1390"/>
      <point x="74" y="1419" type="curve"/>
      <point x="118" y="1504"/>
      <point x="205" y="1576"/>
    </contour>
    <contour>
      <point x="853" y="33" type="curve" smooth="yes"/>
      <point x="853" y="129"/>
      <point x="1431" y="1556"/>
      <point x="1668" y="1556" type="curve" smooth="yes"/>
      <point x="1728" y="1556"/>
      <point x="1785" y="1536"/>
      <point x="1785" y="1506" type="curve" smooth="yes"/>
      <point x="1785" y="1330"/>
      <point x="1241" y="-28"/>
      <point x="950" y="-28" type="curve"/>
      <point x="906" y="-15"/>
      <point x="853" y="8"/>
    </contour>
    <contour>
      <point x="2236" y="587" type="curve"/>
      <point x="2236" y="590" type="line" smooth="yes"/>
      <point x="2236" y="783"/>
      <point x="2196" y="986"/>
      <point x="2196" y="1162" type="curve" smooth="yes"/>
      <point x="2196" y="1193"/>
      <point x="2244" y="1208"/>
      <point x="2278" y="1208" type="curve"/>
      <point x="2332" y="1172" type="line"/>
      <point x="2332" y="1073" type="line" smooth="yes"/>
      <point x="2332" y="914"/>
      <point x="2335" y="754"/>
      <point x="2366" y="597" type="curve"/>
      <point x="2385" y="598"/>
      <point x="2414" y="602"/>
      <point x="2443" y="602" type="curve" smooth="yes"/>
      <point x="2483" y="602"/>
      <point x="2522" y="594"/>
      <point x="2522" y="558" type="curve" smooth="yes"/>
      <point x="2522" y="514"/>
      <point x="2482" y="508"/>
      <point x="2435" y="508" type="curve" smooth="yes"/>
      <point x="2415" y="508"/>
      <point x="2372" y="506"/>
      <point x="2372" y="490" type="curve" smooth="yes"/>
      <point x="2372" y="437"/>
      <point x="2502" y="191"/>
      <point x="2522" y="156" type="curve"/>
      <point x="2519" y="144"/>
      <point x="2517" y="131"/>
      <point x="2517" y="118" type="curve" smooth="yes"/>
      <point x="2517" y="104"/>
      <point x="2519" y="90"/>
      <point x="2530" y="77" type="curve"/>
      <point x="2530" y="40" type="line" smooth="yes"/>
      <point x="2530" y="10"/>
      <point x="2515" y="-37"/>
      <point x="2466" y="-37" type="curve" smooth="yes"/>
      <point x="2406" y="-37"/>
      <point x="2387" y="24"/>
      <point x="2387" y="60" type="curve" smooth="yes"/>
      <point x="2387" y="67" type="line"/>
      <point x="2396" y="91"/>
      <point x="2396" y="116"/>
      <point x="2396" y="141" type="curve" smooth="yes"/>
      <point x="2396" y="208"/>
      <point x="2375" y="273"/>
      <point x="2375" y="340" type="curve" smooth="yes"/>
      <point x="2375" y="370"/>
      <point x="2376" y="399"/>
      <point x="2257" y="429" type="curve"/>
      <point x="2257" y="450"/>
      <point x="2255" y="471"/>
      <point x="2252" y="492" type="curve"/>
      <point x="2203" y="490"/>
      <point x="2129" y="481"/>
      <point x="2070" y="481" type="curve"/>
      <point x="2070" y="480" type="line"/>
      <point x="2029" y="480"/>
      <point x="1995" y="494"/>
      <point x="1964" y="513" type="curve"/>
      <point x="1964" y="540"/>
      <point x="1967" y="566"/>
      <point x="1976" y="592" type="curve"/>
      <point x="1967" y="629"/>
      <point x="1964" y="667"/>
      <point x="1964" y="707" type="curve" smooth="yes"/>
      <point x="1964" y="845"/>
      <point x="2005" y="992"/>
      <point x="2005" y="1125" type="curve" smooth="yes"/>
      <point x="2005" y="1504" type="line" smooth="yes"/>
      <point x="2005" y="1526"/>
      <point x="2007" y="1544"/>
      <point x="2055" y="1544" type="curve" smooth="yes"/>
      <point x="2093" y="1544"/>
      <point x="2158" y="1525"/>
      <point x="2158" y="1493" type="curve" smooth="yes"/>
      <point x="2158" y="1441"/>
      <point x="2138" y="1387"/>
      <point x="2138" y="1334" type="curve" smooth="yes"/>
      <point x="2138" y="1309"/>
      <point x="2142" y="1284"/>
      <point x="2155" y="1260" type="curve"/>
      <point x="2155" y="1253" type="line"/>
      <point x="2159" y="1239"/>
      <point x="2161" y="1224"/>
      <point x="2161" y="1209" type="curve" smooth="yes"/>
      <point x="2161" y="1187"/>
      <point x="2158" y="1165"/>
      <point x="2158" y="1143" type="curve" smooth="yes"/>
      <point x="2158" y="969"/>
      <point x="2097" y="796"/>
      <point x="2097" y="622" type="curve" smooth="yes"/>
      <point x="2097" y="607"/>
      <point x="2099" y="591"/>
      <point x="2103" y="576" type="curve"/>
      <point x="2157" y="577"/>
      <point x="2203" y="581"/>
    </contour>
  </outline>
</glyph>
<glyph name="AE" format="1">
  <advance width="1496"/>
  <unicode hex="00C6"/>
  <outline>
    <contour>
      <point x="1374" y="1450" type="line"/>
      <point x="1011" y="1450" type="line"/>
      <point x="1011" y="716" type="line"/>
      <point x="1369" y="716" type="line"/>
      <point x="1369" y="621" type="line"/>
      <point x="1016" y="621" type="line"/>
      <point x="1016" y="82" type="line"/>
      <point x="1337" y="103" type="line"/>
      <point x="1337" y="-7" type="line"/>
      <point x="922.485" y="-50.2443" type="line"/>
      <point x="846.882" y="2.0142" type="line"/>
      <point x="877" y="253" type="line"/>
      <point x="877" y="633" type="line"/>
      <point x="491" y="611" type="line"/>
      <point x="140.692" y="3.48404" type="line"/>
      <point x="33" y="48" type="line"/>
      <point x="889" y="1544" type="line"/>
      <point x="1374" y="1544" type="line"/>
    </contour>
    <contour>
      <point x="862" y="728" type="line"/>
      <point x="862" y="1253" type="line"/>
      <point x="558" y="728" type="line"/>
    </contour>
  </outline>
</glyph>
<glyph name="multiply" format="1">
  <advance width="849"/>
  <unicode hex="00D7"/>
  <outline>
    <contour>
      <point x="599" y="399" type="line"/>
      <point x="569" y="421"/>
      <point x="429" y="557"/>
      <point x="410" y="562" type="curve"/>
      <point x="376" y="560"/>
      <point x="298" y="430"/>
      <point x="212" y="430" type="curve" smooth="yes"/>
      <point x="173" y="430"/>
      <point x="131" y="460"/>
      <point x="131" y="490" type="curve" smooth="yes"/>
      <point x="131" y="528"/>
      <point x="272" y="601"/>
      <point x="306" y="638" type="curve"/>
      <point x="246" y="681"/>
      <point x="91" y="755"/>
      <point x="91" y="823" type="curve" smooth="yes"/>
      <point x="91" y="854"/>
      <point x="130" y="880"/>
      <point x="169" y="880" type="curve" smooth="yes"/>
      <point x="203" y="880"/>
      <point x="373" y="748"/>
      <point x="415" y="721" type="curve"/>
      <point x="488" y="750"/>
      <point x="542" y="866"/>
      <point x="640" y="866" type="curve" smooth="yes"/>
      <point x="676" y="866"/>
      <point x="710" y="839"/>
      <point x="710" y="811" type="curve" smooth="yes"/>
      <point x="710" y="745"/>
      <point x="530" y="707"/>
      <point x="530" y="643" type="curve" smooth="yes"/>
      <point x="530" y="583"/>
      <point x="737" y="539"/>
      <point x="737" y="473" type="curve" smooth="yes"/>
      <point x="737" y="435"/>
      <point x="692" y="399"/>
      <point x="642" y="399" type="curve" smooth="yes"/>
    </contour>
  </outline>
</glyph>
<glyph name="Oslash" format="1">
  <advance width="1029"/>
  <unicode hex="00D8"/>
  <outline>
    <contour>
      <point x="851" y="1206" type="line"/>
      <point x="850" y="1207" type="line"/>
      <point x="858" y="967"/>
      <point x="898" y="723"/>
      <point x="898" y="459" type="curve" smooth="yes"/>
      <point x="898" y="301"/>
      <point x="897" y="-16"/>
      <point x="502" y="-16" type="curve" smooth="yes"/>
      <point x="438" y="-16"/>
      <point x="377" y="-10"/>
      <point x="322" y="4" type="curve"/>
      <point x="290" y="-91"/>
      <point x="246" y="-185"/>
      <point x="224" y="-280" type="curve"/>
      <point x="133" y="-224" type="line"/>
      <point x="133" y="-103"/>
      <point x="209" y="8"/>
      <point x="209" y="129" type="curve"/>
      <point x="142" y="302"/>
      <point x="126" y="518"/>
      <point x="126" y="722" type="curve" smooth="yes"/>
      <point x="126" y="746" type="line" smooth="yes"/>
      <point x="126" y="869"/>
      <point x="130" y="990"/>
      <point x="130" y="1107" type="curve" smooth="yes"/>
      <point x="130" y="1225"/>
      <point x="130" y="1569"/>
      <point x="422" y="1569" type="curve" smooth="yes"/>
      <point x="464" y="1569"/>
      <point x="510" y="1559"/>
      <point x="541" y="1547" type="curve"/>
      <point x="541" y="1551" type="line"/>
      <point x="586" y="1632"/>
      <point x="612" y="1716"/>
      <point x="654" y="1798" type="curve"/>
      <point x="802" y="1798" type="line"/>
      <point x="797" y="1688"/>
      <point x="725" y="1582"/>
      <point x="725" y="1472" type="curve" smooth="yes"/>
      <point x="725" y="1455"/>
      <point x="773" y="1430"/>
      <point x="789" y="1419" type="curve"/>
      <point x="789" y="1365" type="line"/>
      <point x="790" y="1316"/>
      <point x="851" y="1271"/>
      <point x="851" y="1222" type="curve" smooth="yes"/>
    </contour>
    <contour>
      <point x="676" y="1295" type="curve"/>
      <point x="573" y="929"/>
      <point x="396" y="505"/>
      <point x="396" y="144" type="curve" smooth="yes"/>
      <point x="396" y="91"/>
      <point x="416" y="71"/>
      <point x="537" y="71" type="curve" smooth="yes"/>
      <point x="747" y="71"/>
      <point x="770" y="318"/>
      <point x="770" y="463" type="curve" smooth="yes"/>
      <point x="770" y="531" type="line" smooth="yes"/>
      <point x="770" y="786"/>
      <point x="766" y="1043"/>
    </contour>
    <contour>
      <point x="309" y="505" type="curve"/>
      <point x="386" y="815"/>
      <point x="515" y="1148"/>
      <point x="515" y="1458" type="curve" smooth="yes"/>
      <point x="515" y="1478"/>
      <point x="467" y="1491"/>
      <point x="432" y="1492" type="curve"/>
      <point x="432" y="1491" type="line"/>
      <point x="357" y="1491" type="line"/>
      <point x="357" y="1480" type="line"/>
      <point x="261" y="1386"/>
      <point x="248" y="996"/>
      <point x="248" y="850" type="curve" smooth="yes"/>
      <point x="248" y="735"/>
      <point x="287" y="620"/>
    </contour>
  </outline>
</glyph>
<glyph name="Thorn" format="1">
  <advance width="863"/>
  <unicode hex="00DE"/>
  <outline>
    <contour>
      <point x="139" y="1297" type="curve"/>
      <point x="138" y="1487" type="line" smooth="yes"/>
      <point x="138" y="1522"/>
      <point x="151" y="1548"/>
      <point x="202" y="1548" type="curve" smooth="yes"/>
      <point x="280" y="1548"/>
      <point x="293" y="1483"/>
      <point x="293" y="1424" type="curve" smooth="yes"/>
      <point x="293" y="1396"/>
      <point x="290" y="1370"/>
      <point x="290" y="1353" type="curve"/>
      <point x="650" y="1327"/>
      <point x="756" y="1128"/>
      <point x="756" y="965" type="curve" smooth="yes"/>
      <point x="756" y="773"/>
      <point x="649" y="595"/>
      <point x="302" y="502" type="curve"/>
      <point x="304" y="359"/>
      <point x="336" y="217"/>
      <point x="336" y="74" type="curve" smooth="yes"/>
      <point x="336" y="29"/>
      <point x="301" y="-11"/>
      <point x="232" y="-11" type="curve" smooth="yes"/>
      <point x="185" y="-11"/>
      <point x="168" y="29"/>
      <point x="168" y="58" type="curve" smooth="yes"/>
      <point x="168" y="471"/>
      <point x="139" y="884"/>
    </contour>
    <contour>
      <point x="618" y="948" type="curve"/>
      <point x="619" y="948" type="line"/>
      <point x="619" y="1117"/>
      <point x="568" y="1147"/>
      <point x="295" y="1249" type="curve"/>
      <point x="295" y="1033"/>
      <point x="291" y="817"/>
      <point x="291" y="601" type="curve"/>
      <point x="510" y="699"/>
      <point x="618" y="804"/>
    </contour>
  </outline>
</glyph>
<glyph name="germandbls" format="1">
  <advance width="1002"/>
  <unicode hex="00DF"/>
  <outline>
    <contour>
      <point x="595" y="49" type="curve"/>
      <point x="586" y="48"/>
      <point x="571" y="45"/>
      <point x="563" y="45" type="curve" smooth="yes"/>
      <point x="524" y="45"/>
      <point x="460" y="57"/>
      <point x="460" y="81" type="curve" smooth="yes"/>
      <point x="460" y="134"/>
      <point x="770" y="240"/>
      <point x="770" y="409" type="curve" smooth="yes"/>
      <point x="770" y="789"/>
      <point x="394" y="776"/>
      <point x="394" y="854" type="curve" smooth="yes"/>
      <point x="394" y="898"/>
      <point x="645" y="1106"/>
      <point x="645" y="1274" type="curve" smooth="yes"/>
      <point x="645" y="1321"/>
      <point x="599" y="1473"/>
      <point x="454" y="1473" type="curve" smooth="yes"/>
      <point x="299" y="1473"/>
      <point x="273" y="1350"/>
      <point x="273" y="1294" type="curve" smooth="yes"/>
      <point x="273" y="878"/>
      <point x="313" y="463"/>
      <point x="313" y="46" type="curve" smooth="yes"/>
      <point x="313" y="-2"/>
      <point x="302" y="-47"/>
      <point x="227" y="-47" type="curve" smooth="yes"/>
      <point x="182" y="-47"/>
      <point x="149" y="-37"/>
      <point x="149" y="4" type="curve" smooth="yes"/>
      <point x="149" y="182"/>
      <point x="162" y="360"/>
      <point x="162" y="538" type="curve" smooth="yes"/>
      <point x="162" y="775"/>
      <point x="143" y="1012"/>
      <point x="143" y="1249" type="curve" smooth="yes"/>
      <point x="143" y="1375"/>
      <point x="185" y="1585"/>
      <point x="454" y="1585" type="curve" smooth="yes"/>
      <point x="779" y="1585"/>
      <point x="822" y="1367"/>
      <point x="822" y="1249" type="curve" smooth="yes"/>
      <point x="822" y="1109"/>
      <point x="741" y="977"/>
      <point x="589" y="859" type="curve"/>
      <point x="858" y="744"/>
      <point x="898" y="635"/>
      <point x="898" y="444" type="curve" smooth="yes"/>
      <point x="898" y="294"/>
      <point x="818" y="143"/>
    </contour>
  </outline>
</glyph>
